<svg width="24" height="24" viewBox="0 0 24 24" fill="none" xmlns="http://www.w3.org/2000/svg">
<path d="M14.3304 11.8399C14.3304 11.0509 14.3182 10.3959 14.3396 9.74084C14.3457 9.59461 14.4401 9.41182 14.5528 9.31433C15.3754 8.61972 15.6313 7.69966 15.3723 6.72781C14.9489 5.14665 13.712 4.11083 12.5634 3.05367C12.4294 2.93181 11.8932 3.03235 11.7134 3.206C11.0036 3.88538 10.3029 4.59218 9.70577 5.36905C8.6273 6.78265 8.74306 8.12008 9.9434 9.34784C10.0257 9.4301 10.114 9.55196 10.114 9.65859C10.1292 10.3806 10.1231 11.1027 10.1231 11.8826C8.62425 11.8826 7.23502 11.8704 5.84579 11.8856C4.72162 11.8978 3.70712 12.306 3.39332 13.415C3.08258 14.5087 3.03993 15.6908 3.00032 16.8393C2.98813 17.1653 3.3263 17.6862 3.62486 17.8051C4.38955 18.1067 4.34994 18.6642 4.32557 19.2735C4.31034 19.6513 4.31948 20.0321 4.32252 20.4099C4.33471 21.2385 4.53578 21.4579 5.34616 21.4579C9.93426 21.464 14.5193 21.464 19.1074 21.4579C19.9178 21.4579 20.1189 21.2385 20.128 20.4068C20.1341 19.6756 20.1311 18.9445 20.1311 18.2194C20.9262 17.9117 21.4898 17.4364 21.499 16.5682C21.505 15.9162 21.4868 15.2521 21.3801 14.6092C21.0267 12.5041 20.3474 11.91 18.2117 11.843C16.9505 11.8064 15.6861 11.8399 14.3304 11.8399Z" fill="white"/>
<path d="M14.3304 11.84C15.6861 11.84 16.9505 11.8065 18.2117 11.8461C20.3504 11.9161 21.0298 12.5102 21.3801 14.6123C21.4868 15.2552 21.5051 15.9163 21.499 16.5713C21.4898 17.4395 20.9262 17.9148 20.1311 18.2225C20.1311 18.9476 20.1372 19.6788 20.128 20.4099C20.1189 21.2416 19.9178 21.4579 19.1074 21.461C14.5193 21.4671 9.93426 21.4671 5.34616 21.461C4.53883 21.461 4.33471 21.2416 4.32253 20.413C4.31643 20.0352 4.31034 19.6544 4.32557 19.2766C4.3469 18.6643 4.3865 18.1098 3.62487 17.8082C3.32326 17.6894 2.98814 17.1684 3.00032 16.8424C3.03993 15.6939 3.08258 14.5118 3.39333 13.4181C3.70712 12.3092 4.72162 11.9009 5.8458 11.8887C7.23502 11.8735 8.62425 11.8857 10.1232 11.8857C10.1232 11.1058 10.1292 10.3837 10.114 9.6617C10.111 9.55507 10.0226 9.43321 9.94341 9.35095C8.74307 8.1232 8.6273 6.78576 9.70578 5.37216C10.2999 4.59225 11.0036 3.88849 11.7135 3.20911C11.8932 3.03546 12.4294 2.93492 12.5634 3.05679C13.712 4.11394 14.9519 5.14977 15.3724 6.73093C15.6313 7.70278 15.3754 8.62283 14.5528 9.31744C14.4401 9.41189 14.3457 9.59773 14.3396 9.74396C14.3152 10.3959 14.3304 11.0509 14.3304 11.84ZM12.2283 13.2353C12.2283 13.2383 12.2283 13.2384 12.2283 13.2414C10.1262 13.2414 8.02408 13.2292 5.92501 13.2475C5.00191 13.2566 4.62718 13.5674 4.46571 14.4509C4.36822 14.9932 4.33166 15.5507 4.31948 16.1051C4.3012 16.8424 4.64241 17.0496 5.30351 16.7053C5.49544 16.6048 5.65691 16.422 5.8001 16.2514C6.84811 15.0053 8.04845 15.0084 9.09342 16.2697C9.62047 16.9064 9.79413 16.9125 10.3151 16.294C11.5063 14.8926 12.9168 14.8835 14.0898 16.2636C14.6534 16.9247 14.8118 16.9247 15.3419 16.2544C16.2955 15.048 17.575 15.0389 18.6078 16.2209C18.754 16.3885 18.9216 16.5591 19.1166 16.6627C19.7533 17.0039 20.125 16.7845 20.1158 16.0686C20.1097 15.6664 20.0549 15.2674 20.0122 14.8652C19.8721 13.5735 19.5339 13.2505 18.23 13.2414C16.2284 13.2231 14.2299 13.2353 12.2283 13.2353ZM18.6748 20.0657C18.882 18.5576 18.8454 18.4449 17.9284 17.5644C17.8187 17.4609 17.7243 17.339 17.6298 17.2232C17.054 16.5195 16.8926 16.5225 16.3168 17.2507C15.3784 18.4358 13.9862 18.4144 13.0692 17.1989C12.4781 16.4159 11.9572 16.4007 11.3753 17.1471C10.3425 18.4723 9.04772 18.4601 7.99971 17.1197C7.59147 16.5987 7.29291 16.6048 6.84202 17.0983C6.57392 17.3908 6.25404 17.6345 5.97376 17.9178C5.86103 18.0306 5.72089 18.1829 5.7148 18.3261C5.68433 18.8958 5.70261 19.4685 5.70261 20.0657C10.0805 20.0657 14.3579 20.0657 18.6748 20.0657ZM12.2344 4.38204C11.8597 4.85425 11.616 5.11321 11.4271 5.40872C11.0645 5.97538 10.6502 6.52985 10.4217 7.1483C10.2389 7.64184 10.4309 8.09273 11.1407 8.05313C11.7988 8.01657 12.4568 8.04703 13.1179 8.04399C14.0532 8.03789 14.3548 7.66621 13.9222 6.82841C13.5109 6.03936 12.9107 5.34779 12.2344 4.38204ZM11.5124 11.9253C12.0455 11.8248 12.8072 11.7973 12.8315 11.6511C12.9473 10.9473 12.9199 10.204 12.7889 9.50024C12.7676 9.38142 11.9846 9.40275 11.5124 9.35705C11.5124 10.2436 11.5124 10.99 11.5124 11.9253Z" fill="black"/>
<path d="M12.2281 13.2353C14.2297 13.2353 16.2283 13.2231 18.2298 13.2383C19.5368 13.2475 19.8719 13.5704 20.0121 14.8621C20.0547 15.2612 20.1126 15.6634 20.1157 16.0655C20.1248 16.7814 19.7562 17.0008 19.1164 16.6596C18.9214 16.556 18.7538 16.3854 18.6076 16.2178C17.5748 15.0358 16.2983 15.0449 15.3417 16.2513C14.8116 16.9216 14.6501 16.9246 14.0896 16.2605C12.9167 14.8804 11.5031 14.8895 10.3149 16.291C9.7909 16.9064 9.62029 16.9033 9.09324 16.2666C8.04827 15.0053 6.84794 15.0023 5.79992 16.2483C5.65674 16.4189 5.49527 16.6017 5.30333 16.7022C4.64223 17.0465 4.30102 16.8424 4.3193 16.1021C4.33149 15.5506 4.36804 14.9901 4.46553 14.4478C4.627 13.5643 5.00173 13.2535 5.92483 13.2444C8.02695 13.2261 10.1291 13.2383 12.2281 13.2383V13.2353Z" fill="white"/>
<path d="M18.6745 20.0656C14.3545 20.0656 10.0802 20.0656 5.69928 20.0656C5.69928 19.4685 5.68101 18.8957 5.71147 18.326C5.71757 18.1859 5.8577 18.0336 5.97043 17.9178C6.25071 17.6345 6.5706 17.3907 6.8387 17.0983C7.28958 16.6017 7.58815 16.5956 7.99638 17.1196C9.0444 18.4601 10.3392 18.4692 11.372 17.147C11.9538 16.4006 12.4779 16.4158 13.0658 17.1988C13.9828 18.4113 15.3751 18.4357 16.3135 17.2506C16.8893 16.5225 17.0507 16.5194 17.6265 17.2232C17.721 17.3389 17.8154 17.4608 17.9251 17.5644C18.8482 18.4448 18.8847 18.5576 18.6745 20.0656Z" fill="white"/>
<path d="M12.2343 4.38196C12.9107 5.34771 13.5108 6.03928 13.9191 6.83138C14.3517 7.66919 14.0501 8.04086 13.1148 8.04695C12.4567 8.05 11.7956 8.01649 11.1376 8.05609C10.4247 8.0957 10.2358 7.64481 10.4186 7.15127C10.6471 6.53282 11.0645 5.97835 11.4239 5.41169C11.6128 5.11313 11.8596 4.85417 12.2343 4.38196Z" fill="white"/>
<path d="M11.5125 11.9252C11.5125 10.993 11.5125 10.2466 11.5125 9.35699C11.9877 9.40574 12.7676 9.38137 12.789 9.50018C12.92 10.2009 12.9443 10.9473 12.8316 11.651C12.8072 11.7973 12.0456 11.8216 11.5125 11.9252Z" fill="white"/>
</svg>
