<svg width="24" height="24" viewBox="0 0 24 24" fill="none" xmlns="http://www.w3.org/2000/svg">
<path d="M5.51306 12.5876C5.51306 14.1444 5.53494 15.698 5.50055 17.2548C5.48805 17.8238 5.68811 18.1551 6.19453 18.4146C8.03265 19.3618 9.8395 20.3684 11.6839 21.2968C11.9933 21.4531 12.5123 21.4687 12.8124 21.3156C14.613 20.3996 16.3636 19.3899 18.161 18.4708C18.7862 18.152 18.9801 17.755 18.9738 17.0735C18.9394 14.3507 18.8863 11.6248 18.9926 8.90827C19.0395 7.66098 18.7175 6.89197 17.4921 6.53248C17.1576 6.43244 16.8825 6.13547 16.5511 6.0073C16.0947 5.82912 15.929 5.5509 15.9666 5.06636C16.0353 4.16918 15.6102 3.50022 14.8162 3.12197C13.0718 2.28731 11.2962 2.26855 9.60192 3.21262C9.16428 3.45645 8.62972 4.08478 8.65786 4.50055C8.73601 5.61029 8.12956 5.99793 7.2949 6.35117C6.84475 6.54186 6.3946 6.77631 6.01947 7.08266C5.78189 7.27648 5.54119 7.62972 5.53181 7.92044C5.48805 9.47721 5.51306 11.0309 5.51306 12.5876Z" fill="white"/>
<path d="M5.5131 12.5876C5.5131 11.0309 5.48809 9.47721 5.53498 7.92044C5.54436 7.62972 5.78194 7.27648 6.02264 7.08266C6.40089 6.77631 6.84792 6.54186 7.29807 6.35117C8.1296 5.99793 8.73918 5.61029 8.66103 4.50055C8.63289 4.08478 9.16745 3.45645 9.60509 3.21262C11.2963 2.26855 13.075 2.28731 14.8193 3.12197C15.6134 3.50022 16.0385 4.16918 15.9697 5.06636C15.9322 5.55402 16.0979 5.82912 16.5543 6.0073C16.8857 6.13547 17.1607 6.43557 17.4952 6.53248C18.7175 6.89197 19.0426 7.66098 18.9957 8.90827C18.8894 11.6279 18.9426 14.3507 18.977 17.0735C18.9864 17.7519 18.7894 18.152 18.1642 18.4708C16.3667 19.3899 14.6161 20.4027 12.8155 21.3156C12.5123 21.4687 11.9965 21.45 11.687 21.2968C9.83955 20.3684 8.03269 19.3618 6.19771 18.4146C5.69129 18.152 5.49122 17.8238 5.50372 17.2548C5.53498 15.698 5.5131 14.1444 5.5131 12.5876ZM12.8749 19.9932C14.5317 19.0961 16.0541 18.2833 17.5546 17.4361C17.7016 17.3548 17.786 17.0454 17.786 16.8422C17.8016 14.3038 17.7953 11.7655 17.7922 9.23026C17.7922 9.08646 17.7547 8.94267 17.7203 8.69883C16.1479 9.53974 14.6443 10.3275 13.1625 11.1528C13.0094 11.2372 12.8906 11.5248 12.8874 11.7186C12.8687 14.4101 12.8749 17.0985 12.8749 19.9932ZM6.74476 8.6832C6.74476 9.04895 6.74476 9.29903 6.74476 9.54599C6.74476 11.4904 6.85105 13.441 6.71038 15.3761C6.60722 16.8172 6.94796 17.7268 8.38594 18.2645C9.48318 18.674 10.4773 19.3555 11.6401 19.9807C11.6401 17.0673 11.6464 14.3007 11.6276 11.5373C11.6276 11.381 11.4557 11.1621 11.3057 11.084C9.83017 10.29 8.34217 9.51785 6.74476 8.6832ZM15.9478 7.07641C14.538 9.28966 9.89269 9.199 8.54849 7.01702C8.18274 7.22021 7.817 7.4234 7.36372 7.67661C8.59538 8.33621 9.75515 8.86139 10.8086 9.54599C11.8621 10.2275 12.7624 10.1712 13.7909 9.51473C14.8225 8.85201 15.9385 8.3237 17.1232 7.67661C16.6324 7.4234 16.2886 7.25147 15.9478 7.07641ZM12.1685 5.90727C12.9406 5.66656 13.6596 5.48525 14.3379 5.21328C14.8193 5.0226 14.8256 4.64122 14.4473 4.30048C13.5908 3.52522 11.0024 3.5221 10.1146 4.27235C9.71138 4.61309 9.69262 4.97258 10.1459 5.18515C10.7899 5.48525 11.4807 5.66656 12.1685 5.90727ZM9.86143 6.51372C10.3178 7.32962 11.1087 7.48592 11.9184 7.52344C12.9718 7.57658 14.0191 7.52031 14.7037 6.49497C13.0844 7.09517 11.4838 7.05765 9.86143 6.51372Z" fill="black"/>
<path d="M12.875 19.9932C12.875 17.0985 12.8688 14.407 12.8875 11.7154C12.8875 11.5216 13.0094 11.234 13.1626 11.1496C14.6444 10.3275 16.148 9.53659 17.7204 8.69568C17.7548 8.93638 17.7923 9.08331 17.7923 9.22711C17.7954 11.7655 17.8017 14.3038 17.786 16.839C17.786 17.0422 17.7016 17.3517 17.5547 17.433C16.0542 18.2833 14.5318 19.096 12.875 19.9932Z" fill="white"/>
<path d="M6.74477 8.68317C8.34218 9.52095 9.83018 10.29 11.3025 11.084C11.4526 11.1652 11.6214 11.3841 11.6245 11.5372C11.6433 14.3007 11.637 17.0641 11.637 19.9807C10.4741 19.3524 9.48006 18.674 8.38281 18.2645C6.94483 17.7268 6.60409 16.8203 6.70725 15.376C6.84793 13.441 6.74164 11.4904 6.74164 9.54596C6.74477 9.29587 6.74477 9.04891 6.74477 8.68317Z" fill="white"/>
<path d="M15.9479 7.07638C16.2886 7.24831 16.6325 7.42337 17.1233 7.67346C15.9385 8.32055 14.8225 8.84884 13.7909 9.51156C12.7656 10.1712 11.8622 10.2274 10.8087 9.54283C9.75207 8.85822 8.59543 8.33305 7.36377 7.67346C7.81705 7.42025 8.18279 7.21705 8.54854 7.01385C9.88961 9.19896 14.538 9.28962 15.9479 7.07638Z" fill="white"/>
<path d="M12.1683 5.90725C11.4806 5.66967 10.7866 5.48523 10.1489 5.18513C9.69558 4.97256 9.71434 4.61307 10.1176 4.27233C11.0054 3.52521 13.5938 3.5252 14.4503 4.30046C14.8254 4.6412 14.8192 5.01945 14.3409 5.21326C13.6594 5.48523 12.9404 5.66654 12.1683 5.90725Z" fill="white"/>
<path d="M9.86157 6.51369C11.484 7.05762 13.0877 7.09513 14.7007 6.49493C14.0161 7.5234 12.9689 7.57655 11.9154 7.52341C11.1089 7.48277 10.318 7.32646 9.86157 6.51369Z" fill="white"/>
</svg>
