<svg width="147" height="169" viewBox="0 0 147 169" fill="none" xmlns="http://www.w3.org/2000/svg">
<path d="M133.33 43.845C133.81 44.415 134.27 45.005 134.69 45.615C134.26 45.005 133.81 44.415 133.33 43.845Z" fill="#EBCB20"/>
<path d="M130.13 40.745C130.71 41.205 131.27 41.705 131.81 42.215C131.27 41.705 130.71 41.215 130.13 40.745Z" fill="#EBCB20"/>
<path d="M118.7 35.835C119.57 35.965 120.41 36.135 121.24 36.345C120.41 36.135 119.57 35.955 118.7 35.835Z" fill="#EBCB20"/>
<path d="M115.11 35.575C115.93 35.575 116.73 35.615 117.52 35.695C116.73 35.615 115.92 35.575 115.11 35.575Z" fill="#EBCB20"/>
<path d="M136.39 48.515C136.72 49.185 137.02 49.885 137.29 50.595C137.02 49.885 136.72 49.195 136.39 48.515Z" fill="#EBCB20"/>
<path d="M138.72 58.655C138.72 58.655 134.84 58.465 126.87 58.255V125.995H19.87V58.255C11.89 58.465 8 58.655 8 58.655V122.375C8 128.895 10.64 134.665 14.92 138.805C15.45 139.325 16.01 139.815 16.6 140.275C20.68 143.525 25.92 145.445 31.62 145.445H115.11C115.93 145.445 116.73 145.405 117.52 145.325C117.92 145.285 118.31 145.235 118.7 145.185C123 144.555 126.92 142.825 130.13 140.265C130.71 139.805 131.27 139.305 131.81 138.795C132.34 138.275 132.85 137.735 133.33 137.165C133.81 136.595 134.27 136.005 134.69 135.395C135.33 134.475 135.9 133.505 136.39 132.495C137.88 129.455 138.72 126.025 138.72 122.365V58.655C138.72 55.805 138.21 53.095 137.29 50.605C138.22 53.085 138.72 55.795 138.72 58.655Z" fill="#EBCB20"/>
<path d="M137.37 36.475C131.44 30.735 123.54 27.575 115.11 27.575H112.16V13.875C112.16 10.695 110.92 7.70499 108.67 5.45499C106.56 3.34499 103.81 2.12499 100.85 1.98499C98.66 1.73499 87.72 0.554993 73.36 0.554993C59 0.554993 48.06 1.73499 45.87 1.98499C42.91 2.12499 40.16 3.34499 38.05 5.45499C35.8 7.70499 34.5601 10.695 34.5601 13.875V27.575H31.61C23.18 27.575 15.27 30.735 9.34998 36.475C3.31998 42.315 0 50.195 0 58.655V122.375C0 130.835 3.31998 138.715 9.34998 144.555C13.19 148.275 17.88 150.905 22.99 152.305V160.665V168.665H30.99H115.73H123.73V160.665V152.305C128.84 150.915 133.53 148.285 137.37 144.555C143.4 138.715 146.72 130.835 146.72 122.375V58.655C146.72 50.195 143.4 42.315 137.37 36.475ZM138.72 122.375C138.72 126.045 137.88 129.475 136.39 132.505C135.89 133.515 135.32 134.485 134.69 135.405C134.27 136.015 133.81 136.605 133.33 137.175C132.85 137.745 132.34 138.285 131.81 138.805C131.28 139.325 130.72 139.815 130.13 140.275C126.92 142.835 123 144.565 118.7 145.195C118.31 145.255 117.92 145.295 117.52 145.335C116.73 145.415 115.92 145.455 115.11 145.455H31.62C25.91 145.455 20.68 143.535 16.6 140.285C16.02 139.825 15.46 139.325 14.92 138.815C10.65 134.675 8 128.905 8 122.385V58.665C8 52.145 10.64 46.375 14.92 42.235C15.45 41.715 16.01 41.225 16.6 40.765C20.68 37.515 25.92 35.595 31.62 35.595C31.62 35.595 35.3201 35.335 42.5701 35.085V13.865C42.5701 12.785 43.01 11.815 43.71 11.105C44.42 10.395 45.39 9.965 46.47 9.965C46.47 9.965 49.7 9.565 55.05 9.185C55.99 9.115 57.0001 9.055 58.0701 8.995C58.7801 8.955 59.52 8.91499 60.29 8.87499C64.11 8.68499 68.54 8.545 73.37 8.545C88.81 8.545 100.26 9.965 100.26 9.965C101.34 9.965 102.31 10.405 103.02 11.105C103.73 11.815 104.16 12.785 104.16 13.865V35.055C111.41 35.305 115.11 35.565 115.11 35.565C115.93 35.565 116.73 35.605 117.52 35.685C117.92 35.725 118.31 35.775 118.7 35.825C119.57 35.955 120.41 36.125 121.24 36.335C124.54 37.185 127.56 38.695 130.12 40.735C130.7 41.195 131.26 41.695 131.8 42.205C132.33 42.725 132.84 43.265 133.32 43.835C133.8 44.405 134.26 44.995 134.68 45.605C135.32 46.525 135.89 47.495 136.38 48.505C136.71 49.175 137.01 49.875 137.28 50.585C138.21 53.075 138.71 55.785 138.71 58.635V122.375H138.72ZM115.73 160.655H30.99V151.095H115.73V160.655Z" fill="black"/>
<path d="M73.36 34.575C86.86 34.575 97.16 34.815 104.15 35.065V13.865C104.15 12.785 103.71 11.815 103.01 11.105C102.3 10.395 101.33 9.96498 100.25 9.96498C100.25 9.96498 88.8 8.54498 73.36 8.54498C68.53 8.54498 64.1 8.68498 60.28 8.87498C59.52 8.91498 58.7801 8.95498 58.0601 8.99498C56.9901 9.05498 55.98 9.12498 55.04 9.18498C49.7 9.56498 46.46 9.96498 46.46 9.96498C45.38 9.96498 44.4101 10.405 43.7001 11.105C42.9901 11.815 42.5601 12.785 42.5601 13.865V35.055C49.5601 34.815 59.86 34.575 73.36 34.575Z" fill="#EBCB20"/>
<path d="M115.73 151.095H30.9902V160.655H115.73V151.095Z" fill="#EBCB20"/>
<path d="M19.8701 58.255V125.995H126.87V58.255C116.34 57.975 98.6901 57.655 73.3601 57.655C48.0501 57.655 30.3901 57.975 19.8701 58.255Z" fill="#FFD203"/>
<path d="M73.36 57.655C98.68 57.655 116.34 57.975 126.87 58.255C134.84 58.465 138.72 58.655 138.72 58.655C138.72 55.805 138.21 53.095 137.29 50.605C137.03 49.895 136.73 49.195 136.39 48.525C135.89 47.515 135.32 46.545 134.69 45.625C134.27 45.015 133.81 44.425 133.33 43.855C132.85 43.285 132.34 42.745 131.81 42.225C131.28 41.705 130.72 41.215 130.13 40.755C127.57 38.715 124.55 37.205 121.25 36.355C120.42 36.145 119.57 35.965 118.71 35.845C118.32 35.785 117.93 35.745 117.53 35.705C116.74 35.625 115.93 35.585 115.12 35.585C115.12 35.585 111.42 35.325 104.17 35.075C97.18 34.825 86.88 34.585 73.38 34.585C59.88 34.585 49.58 34.825 42.59 35.075C35.34 35.325 31.64 35.585 31.64 35.585C25.93 35.585 20.7 37.505 16.62 40.755C16.04 41.215 15.4801 41.715 14.9401 42.225C10.6701 46.365 8.02002 52.135 8.02002 58.655C8.02002 58.655 11.91 58.465 19.89 58.255C30.39 57.975 48.05 57.655 73.36 57.655Z" fill="#FBE770"/>
</svg>
