<svg width="41" height="40" viewBox="0 0 41 40" fill="none" xmlns="http://www.w3.org/2000/svg">
<rect x="0.0771484" width="40" height="40" rx="20" fill="#121029"/>
<path d="M20.0768 14.5071C21.9748 14.5071 22.2008 14.5141 22.9508 14.5491C24.8778 14.6371 25.7778 15.5511 25.8658 17.4641C25.8998 18.2141 25.9058 18.4391 25.9058 20.3371C25.9058 22.2371 25.8998 22.4611 25.8658 23.2111C25.7778 25.1211 24.8798 26.0381 22.9508 26.1261C22.2008 26.1601 21.9768 26.1671 20.0768 26.1671C18.1778 26.1671 17.9528 26.1601 17.2028 26.1261C15.2708 26.0371 14.3758 25.1191 14.2878 23.2101C14.2538 22.4601 14.2468 22.2361 14.2468 20.3371C14.2468 18.4381 14.2548 18.2131 14.2878 17.4631C14.3768 15.5511 15.2738 14.6361 17.2028 14.5481C17.9528 14.5141 18.1778 14.5071 20.0768 14.5071ZM20.0768 13.2261C18.1458 13.2261 17.9038 13.2341 17.1448 13.2681C14.5628 13.3871 13.1268 14.8201 13.0088 17.4051C12.9738 18.1641 12.9658 18.4051 12.9658 20.3371C12.9658 22.2681 12.9738 22.5101 13.0078 23.2691C13.1268 25.8511 14.5598 27.2871 17.1448 27.4051C17.9038 27.4401 18.1448 27.4481 20.0768 27.4481C22.0078 27.4481 22.2498 27.4401 23.0088 27.4051C25.5888 27.2871 27.0278 25.8541 27.1448 23.2691C27.1798 22.5101 27.1878 22.2681 27.1878 20.3371C27.1878 18.4051 27.1798 18.1641 27.1448 17.4051C27.0288 14.8251 25.5948 13.3871 23.0088 13.2691C22.2498 13.2341 22.0078 13.2261 20.0768 13.2261ZM20.0768 16.6861C19.5922 16.6781 19.1109 16.7666 18.6608 16.9465C18.2108 17.1264 17.801 17.3941 17.4555 17.7339C17.11 18.0738 16.8355 18.4791 16.6482 18.9261C16.4609 19.3731 16.3644 19.8529 16.3644 20.3376C16.3644 20.8222 16.4609 21.3021 16.6482 21.7491C16.8355 22.1961 17.11 22.6013 17.4555 22.9412C17.801 23.2811 18.2108 23.5488 18.6608 23.7287C19.1109 23.9086 19.5922 23.9971 20.0768 23.9891C21.0454 23.9891 21.9743 23.6043 22.6592 22.9194C23.3441 22.2345 23.7288 21.3056 23.7288 20.3371C23.7288 19.3685 23.3441 18.4396 22.6592 17.7547C21.9743 17.0698 21.0454 16.6861 20.0768 16.6861ZM20.0768 22.7071C19.4483 22.7071 18.8454 22.4574 18.401 22.0129C17.9565 21.5685 17.7068 20.9656 17.7068 20.3371C17.7068 19.7085 17.9565 19.1057 18.401 18.6612C18.8454 18.2168 19.4483 17.9671 20.0768 17.9671C20.7054 17.9671 21.3082 18.2168 21.7527 18.6612C22.1971 19.1057 22.4468 19.7085 22.4468 20.3371C22.4468 20.9656 22.1971 21.5685 21.7527 22.0129C21.3082 22.4574 20.7054 22.7071 20.0768 22.7071ZM23.8728 15.6871C23.6463 15.6871 23.4291 15.777 23.269 15.9372C23.1088 16.0974 23.0188 16.3146 23.0188 16.5411C23.0188 16.7676 23.1088 16.9848 23.269 17.1449C23.4291 17.3051 23.6463 17.3951 23.8728 17.3951C24.0941 17.3875 24.3038 17.2943 24.4577 17.135C24.6116 16.9758 24.6976 16.763 24.6976 16.5416C24.6976 16.3201 24.6116 16.1074 24.4577 15.9481C24.3038 15.7889 24.0941 15.6957 23.8728 15.6881V15.6871Z" fill="white"/>
</svg>
