<svg width="148" height="169" viewBox="0 0 148 169" fill="none" xmlns="http://www.w3.org/2000/svg">
<path d="M119.43 35.725C120.3 35.855 121.14 36.025 121.97 36.235C121.14 36.025 120.29 35.845 119.43 35.725Z" fill="#EBCB20"/>
<path d="M115.83 35.465C116.65 35.465 117.45 35.505 118.24 35.585C117.45 35.505 116.64 35.465 115.83 35.465Z" fill="#EBCB20"/>
<path d="M139.44 58.535C139.44 58.535 135.56 58.345 127.59 58.135V125.875H85.2399C80.9799 127.795 72.74 129.275 64.23 125.875H20.58V58.145C12.6 58.355 8.70996 58.545 8.70996 58.545V122.265C8.70996 128.785 11.3499 134.555 15.6299 138.695C16.1599 139.215 16.7199 139.705 17.3099 140.165C21.3899 143.415 26.63 145.335 32.33 145.335H115.82C116.64 145.335 117.44 145.295 118.23 145.215C118.63 145.175 119.02 145.125 119.41 145.075C123.71 144.445 127.63 142.715 130.84 140.155C131.42 139.695 131.98 139.195 132.52 138.685C133.05 138.165 133.56 137.625 134.04 137.055C134.52 136.485 134.98 135.895 135.4 135.285C136.04 134.365 136.61 133.395 137.1 132.385C138.59 129.345 139.43 125.915 139.43 122.255L139.44 58.535C139.44 57.825 139.41 57.115 139.35 56.425C139.41 57.125 139.44 57.825 139.44 58.535Z" fill="#EBCB20"/>
<path d="M138.09 36.365C132.16 30.625 124.26 27.465 115.83 27.465H112.88V13.765C112.88 10.585 111.64 7.59501 109.39 5.34501C107.28 3.23501 104.53 2.01501 101.57 1.87501C99.3797 1.62501 88.4397 0.445007 74.0797 0.445007C59.7197 0.445007 48.7797 1.62501 46.5897 1.87501C43.6297 2.01501 40.8797 3.23501 38.7697 5.34501C36.5197 7.59501 35.2797 10.585 35.2797 13.765V27.465H32.3297C23.8997 27.465 15.9897 30.625 10.0697 36.365C4.0397 42.205 0.719727 50.085 0.719727 58.545V122.265C0.719727 130.725 4.0397 138.605 10.0697 144.445C13.9097 148.165 18.5997 150.795 23.7097 152.195V160.555V168.555H31.7097H116.45H124.45V160.555V152.195C129.56 150.805 134.25 148.175 138.09 144.445C144.12 138.605 147.44 130.725 147.44 122.265V58.545C147.45 50.075 144.12 42.205 138.09 36.365ZM116.45 160.545H31.7197V150.985H116.46V160.545H116.45ZM139.45 122.265C139.45 125.935 138.61 129.365 137.12 132.395C136.62 133.405 136.05 134.375 135.42 135.295C135 135.905 134.54 136.495 134.06 137.065C133.58 137.635 133.07 138.175 132.54 138.695C132.01 139.215 131.45 139.705 130.86 140.165C127.65 142.725 123.73 144.455 119.43 145.085C119.04 145.145 118.65 145.185 118.25 145.225C117.46 145.305 116.65 145.345 115.84 145.345H32.3497C26.6397 145.345 21.4097 143.425 17.3297 140.175C16.7497 139.715 16.1897 139.215 15.6497 138.705C11.3797 134.565 8.72974 128.795 8.72974 122.275V58.555C8.72974 52.035 11.3697 46.265 15.6497 42.125C16.1797 41.605 16.7397 41.115 17.3297 40.655C21.4097 37.405 26.6497 35.485 32.3497 35.485C32.3497 35.485 36.0497 35.225 43.2997 34.975V13.755C43.2997 12.675 43.7397 11.705 44.4397 10.995C45.1497 10.285 46.1197 9.85501 47.1997 9.85501C47.1997 9.85501 50.4297 9.455 55.7797 9.075C56.7197 9.005 57.7297 8.94501 58.7997 8.88501C59.5097 8.84501 60.2497 8.80501 61.0197 8.76501C64.8397 8.57501 69.2697 8.43501 74.0997 8.43501C89.5397 8.43501 100.99 9.85501 100.99 9.85501C102.07 9.85501 103.04 10.295 103.75 10.995C104.46 11.705 104.89 12.675 104.89 13.755V34.945C112.14 35.195 115.84 35.455 115.84 35.455C116.66 35.455 117.46 35.495 118.25 35.575C118.65 35.615 119.04 35.665 119.43 35.715C120.3 35.845 121.14 36.015 121.97 36.225C125.27 37.075 128.29 38.585 130.85 40.625C131.43 41.085 131.99 41.585 132.53 42.095C133.06 42.615 133.57 43.155 134.05 43.725C134.53 44.295 134.99 44.885 135.41 45.495C136.05 46.415 136.62 47.385 137.11 48.395C137.44 49.065 137.74 49.765 138.01 50.475C138.71 52.345 139.16 54.335 139.35 56.415C139.41 57.105 139.44 57.815 139.44 58.525V122.265H139.45Z" fill="black"/>
<path d="M104.88 34.945V13.755C104.88 12.675 104.44 11.705 103.74 10.995C103.03 10.285 102.06 9.855 100.98 9.855C100.98 9.855 89.5295 8.435 74.0895 8.435C69.2595 8.435 64.8295 8.575 61.0095 8.765C60.2495 8.805 59.5096 8.845 58.7896 8.885C57.7196 8.945 56.7095 9.015 55.7695 9.075C50.4295 9.455 47.1895 9.855 47.1895 9.855C46.1095 9.855 45.1395 10.295 44.4295 10.995C43.7195 11.705 43.2896 12.675 43.2896 13.755V34.945C50.2796 34.695 60.5795 34.455 74.0795 34.455C87.5795 34.455 97.8895 34.705 104.88 34.945Z" fill="#EBCB20"/>
<path d="M116.46 150.985H31.7197V160.545H116.46V150.985Z" fill="#EBCB20"/>
<path d="M20.5898 58.145V125.885H64.2398C63.5998 125.625 62.9498 125.345 62.3098 125.035C53.0598 120.515 50.5898 111.625 50.5898 111.625L75.0798 110.845L100.39 106.335C100.39 106.335 95.1498 121.315 85.3698 125.825C85.3298 125.845 85.2798 125.865 85.2398 125.885H127.59V58.145C117.06 57.865 99.4098 57.545 74.0798 57.545C48.7698 57.535 31.1198 57.865 20.5898 58.145ZM54.5898 95.885C49.6198 95.885 45.5898 91.855 45.5898 86.885C45.5898 81.915 49.6198 77.885 54.5898 77.885C59.5598 77.885 63.5898 81.915 63.5898 86.885C63.5898 91.855 59.5598 95.885 54.5898 95.885ZM67.3898 64.385C63.5598 64.385 62.2799 64.385 57.1699 64.385C50.7799 64.385 48.2298 66.385 44.3998 69.385C42.3798 70.965 43.1198 68.385 43.1198 68.385C44.3998 66.385 46.9498 61.385 55.8898 60.385C64.8298 59.385 68.6599 61.385 68.6599 61.385C68.6599 61.385 71.4298 64.385 67.3898 64.385ZM93.0898 96.885C87.8398 96.885 83.5898 92.635 83.5898 87.385C83.5898 82.135 87.8398 77.885 93.0898 77.885C98.3398 77.885 102.59 82.135 102.59 87.385C102.59 92.635 98.3398 96.885 93.0898 96.885ZM81.4898 60.885C81.4898 60.885 85.2398 58.885 93.9698 59.885C102.71 60.885 105.21 65.885 106.45 67.885C106.45 67.885 107.18 70.465 105.2 68.885C101.45 65.885 98.9598 63.885 92.7198 63.885C87.7298 63.885 86.4799 63.885 82.7299 63.885C78.7899 63.885 81.4898 60.885 81.4898 60.885Z" fill="#FFD203"/>
<path d="M74.0895 57.535C99.4095 57.535 117.07 57.855 127.6 58.135C135.57 58.345 139.45 58.535 139.45 58.535C139.45 57.825 139.42 57.115 139.36 56.425C139.17 54.345 138.72 52.355 138.02 50.485C137.76 49.775 137.46 49.075 137.12 48.405C136.62 47.395 136.05 46.425 135.42 45.505C135 44.895 134.54 44.305 134.06 43.735C133.58 43.165 133.07 42.625 132.54 42.105C132.01 41.585 131.45 41.095 130.86 40.635C128.3 38.595 125.28 37.085 121.98 36.235C121.15 36.025 120.3 35.845 119.44 35.725C119.05 35.665 118.66 35.625 118.26 35.585C117.47 35.505 116.66 35.465 115.85 35.465C115.85 35.465 112.15 35.205 104.9 34.955C97.9095 34.705 87.6096 34.465 74.1096 34.465C60.6096 34.465 50.3095 34.705 43.3195 34.955C36.0695 35.205 32.3695 35.465 32.3695 35.465C26.6595 35.465 21.4295 37.385 17.3495 40.635C16.7695 41.095 16.2096 41.595 15.6696 42.105C11.3996 46.245 8.74951 52.015 8.74951 58.535C8.74951 58.535 12.6395 58.345 20.6195 58.135C31.1195 57.865 48.7695 57.535 74.0895 57.535Z" fill="#FBE770"/>
<path d="M54.5898 77.885C49.6198 77.885 45.5898 81.915 45.5898 86.885C45.5898 91.855 49.6198 95.885 54.5898 95.885C59.5598 95.885 63.5898 91.855 63.5898 86.885C63.5898 81.915 59.5598 77.885 54.5898 77.885ZM54.0898 87.885C52.1598 87.885 50.5898 86.315 50.5898 84.385C50.5898 82.455 52.1598 80.885 54.0898 80.885C56.0198 80.885 57.5898 82.455 57.5898 84.385C57.5898 86.315 56.0198 87.885 54.0898 87.885Z" fill="black"/>
<path d="M93.0898 77.885C87.8398 77.885 83.5898 82.135 83.5898 87.385C83.5898 92.635 87.8398 96.885 93.0898 96.885C98.3398 96.885 102.59 92.635 102.59 87.385C102.59 82.135 98.3398 77.885 93.0898 77.885ZM93.0898 87.885C91.1598 87.885 89.5898 86.315 89.5898 84.385C89.5898 82.455 91.1598 80.885 93.0898 80.885C95.0198 80.885 96.5898 82.455 96.5898 84.385C96.5898 86.315 95.0198 87.885 93.0898 87.885Z" fill="black"/>
<path d="M54.0898 87.885C56.0228 87.885 57.5898 86.318 57.5898 84.385C57.5898 82.452 56.0228 80.885 54.0898 80.885C52.1568 80.885 50.5898 82.452 50.5898 84.385C50.5898 86.318 52.1568 87.885 54.0898 87.885Z" fill="white"/>
<path d="M93.0898 87.885C95.0228 87.885 96.5898 86.318 96.5898 84.385C96.5898 82.452 95.0228 80.885 93.0898 80.885C91.1568 80.885 89.5898 82.452 89.5898 84.385C89.5898 86.318 91.1568 87.885 93.0898 87.885Z" fill="white"/>
<path d="M55.8896 60.385C46.9496 61.385 44.3896 66.385 43.1196 68.385C43.1196 68.385 42.3796 70.965 44.3996 69.385C48.2296 66.385 50.7897 64.385 57.1697 64.385C62.2797 64.385 63.5596 64.385 67.3896 64.385C71.4296 64.385 68.6697 61.385 68.6697 61.385C68.6697 61.385 64.8396 59.385 55.8896 60.385Z" fill="black"/>
<path d="M82.7395 63.885C86.4895 63.885 87.7296 63.885 92.7296 63.885C98.9696 63.885 101.47 65.885 105.21 68.885C107.18 70.465 106.46 67.885 106.46 67.885C105.21 65.885 102.71 60.885 93.9796 59.885C85.2396 58.885 81.4995 60.885 81.4995 60.885C81.4995 60.885 78.7895 63.885 82.7395 63.885Z" fill="black"/>
<path d="M100.39 106.335L75.0798 110.845L50.5898 111.625C50.5898 111.625 53.0598 120.505 62.3098 125.035C62.9598 125.355 63.5998 125.625 64.2398 125.885C72.7398 129.285 80.9898 127.805 85.2498 125.885C85.2898 125.865 85.3398 125.845 85.3798 125.825C95.1498 121.305 100.39 106.335 100.39 106.335ZM59.9898 119.795C58.1298 118.985 54.7098 114.155 54.7098 114.155C54.7098 114.155 66.1298 115.435 74.2198 114.495C88.6398 112.825 96.6298 109.675 96.6298 109.675L93.2999 115.315C93.2999 115.315 91.6298 118.135 77.6898 120.235C72.2498 121.055 61.8498 120.605 59.9898 119.795Z" fill="black"/>
<path d="M77.6899 120.235C91.6299 118.135 93.3 115.315 93.3 115.315L96.6299 109.675C96.6299 109.675 88.64 112.825 74.22 114.495C66.13 115.425 54.71 114.155 54.71 114.155C54.71 114.155 58.1399 118.985 59.9899 119.795C61.8499 120.605 72.2499 121.055 77.6899 120.235Z" fill="white"/>
</svg>
