<svg width="148" height="169" viewBox="0 0 148 169" fill="none" xmlns="http://www.w3.org/2000/svg">
<path d="M119.14 35.725C120.01 35.855 120.85 36.025 121.68 36.235C120.85 36.025 120 35.855 119.14 35.725Z" fill="#EBCB20"/>
<path d="M139.16 58.545C139.16 58.545 135.28 58.355 127.31 58.145V125.885H96.5299C92.8299 131.265 85.7499 137.045 72.3099 137.885C59.0399 138.715 54.0299 131.295 50.9899 125.885H20.3099V58.145C12.3299 58.355 8.43994 58.545 8.43994 58.545V122.265C8.43994 128.785 11.0799 134.555 15.3599 138.695C15.8899 139.215 16.4499 139.705 17.0399 140.165C21.1199 143.415 26.3599 145.335 32.0599 145.335H115.55C116.37 145.335 117.17 145.295 117.96 145.215C118.36 145.175 118.75 145.125 119.14 145.075C123.44 144.445 127.36 142.715 130.57 140.155C131.15 139.695 131.71 139.195 132.25 138.685C132.78 138.165 133.29 137.625 133.77 137.055C134.25 136.485 134.71 135.895 135.13 135.285C135.77 134.365 136.34 133.395 136.83 132.385C138.32 129.345 139.16 125.915 139.16 122.255V58.545C139.16 57.835 139.13 57.125 139.07 56.435C139.13 57.125 139.16 57.825 139.16 58.545Z" fill="#EBCB20"/>
<path d="M137.81 36.365C131.88 30.625 123.98 27.465 115.55 27.465H112.6V13.765C112.6 10.585 111.36 7.595 109.11 5.345C107 3.235 104.25 2.01501 101.29 1.87501C99.0999 1.62501 88.1599 0.445007 73.7999 0.445007C59.4399 0.445007 48.4999 1.62501 46.3099 1.87501C43.3499 2.01501 40.5999 3.235 38.4899 5.345C36.2399 7.595 34.9999 10.585 34.9999 13.765V27.465H32.0499C23.6199 27.465 15.7099 30.625 9.78992 36.365C3.75992 42.205 0.439941 50.085 0.439941 58.545V122.265C0.439941 130.725 3.75992 138.605 9.78992 144.445C13.6299 148.165 18.3199 150.795 23.4299 152.195V160.555V168.555H31.4299H116.17H124.17V160.555V152.195C129.28 150.805 133.97 148.175 137.81 144.445C143.84 138.605 147.16 130.725 147.16 122.265V58.545C147.16 50.085 143.84 42.205 137.81 36.365ZM116.17 160.545H31.4299V150.985H116.17V160.545ZM139.16 122.265C139.16 125.935 138.32 129.365 136.83 132.395C136.33 133.405 135.76 134.375 135.13 135.295C134.71 135.905 134.25 136.495 133.77 137.065C133.29 137.635 132.78 138.175 132.25 138.695C131.72 139.215 131.16 139.705 130.57 140.165C127.36 142.725 123.44 144.455 119.14 145.085C118.75 145.145 118.36 145.185 117.96 145.225C117.17 145.305 116.36 145.345 115.55 145.345H32.0599C26.3499 145.345 21.1199 143.425 17.0399 140.175C16.4599 139.715 15.8999 139.215 15.3599 138.705C11.0899 134.565 8.43994 128.795 8.43994 122.275V58.555C8.43994 52.035 11.0799 46.265 15.3599 42.125C15.8899 41.605 16.4499 41.115 17.0399 40.655C21.1199 37.405 26.3599 35.485 32.0599 35.485C32.0599 35.485 35.7599 35.225 43.0099 34.975V13.765C43.0099 12.685 43.4499 11.715 44.1499 11.005C44.8599 10.295 45.8299 9.86501 46.9099 9.86501C46.9099 9.86501 50.1399 9.46501 55.4899 9.08501C56.4299 9.01501 57.4399 8.955 58.5099 8.895C59.2199 8.855 59.9599 8.815 60.7299 8.775C64.5499 8.585 68.9799 8.44501 73.8099 8.44501C89.2499 8.44501 100.7 9.86501 100.7 9.86501C101.78 9.86501 102.75 10.305 103.46 11.005C104.17 11.715 104.6 12.685 104.6 13.765V34.955C111.85 35.205 115.55 35.465 115.55 35.465C116.37 35.465 117.17 35.505 117.96 35.585C118.36 35.625 118.75 35.675 119.14 35.725C120.01 35.855 120.85 36.025 121.68 36.235C124.98 37.085 128 38.595 130.56 40.635C131.14 41.095 131.7 41.595 132.24 42.105C132.77 42.625 133.28 43.165 133.76 43.735C134.24 44.305 134.7 44.895 135.12 45.505C135.76 46.425 136.33 47.395 136.82 48.405C137.15 49.075 137.45 49.775 137.72 50.485C138.42 52.355 138.87 54.345 139.06 56.425C139.12 57.115 139.15 57.825 139.15 58.535V122.265H139.16Z" fill="black"/>
<path d="M104.59 34.955V13.765C104.59 12.685 104.15 11.715 103.45 11.005C102.74 10.295 101.77 9.86501 100.69 9.86501C100.69 9.86501 89.24 8.44501 73.8 8.44501C68.97 8.44501 64.54 8.585 60.72 8.775C59.96 8.815 59.22 8.855 58.5 8.895C57.43 8.955 56.42 9.02501 55.48 9.08501C50.14 9.46501 46.9 9.86501 46.9 9.86501C45.82 9.86501 44.85 10.305 44.14 11.005C43.43 11.715 43 12.685 43 13.765V34.955C49.99 34.705 60.29 34.465 73.79 34.465C87.29 34.465 97.6 34.705 104.59 34.955Z" fill="#EBCB20"/>
<path d="M116.17 150.985H31.4297V160.545H116.17V150.985Z" fill="#EBCB20"/>
<path d="M20.2998 58.145V125.885H50.9798C50.3498 124.775 49.8098 123.735 49.2998 122.885C46.3598 117.985 45.3398 105.405 45.2998 104.905C44.7898 105.395 44.1698 106.005 43.2998 106.885C41.2998 109.885 41.2998 105.885 42.2998 103.885C44.2998 99.885 49.2998 101.885 49.2998 101.885C47.1798 103.295 46.5598 103.715 45.3198 104.895C45.7098 105.055 62.4898 111.875 78.2998 110.885C87.6798 110.295 100.74 105.605 104.34 104.255C103.38 103.505 102.33 103.015 100.64 101.885C100.64 101.885 105.64 99.885 107.64 103.885C108.64 105.885 108.64 109.885 106.64 106.885C106.03 105.965 105.51 105.335 105 104.835C104.02 107.935 100.81 117.865 98.2998 122.885C97.8198 123.845 97.2198 124.855 96.5198 125.885H127.3V58.145C116.77 57.865 99.1198 57.545 73.7898 57.545C48.4898 57.545 30.8298 57.865 20.2998 58.145ZM31.8498 90.585C30.0798 91.525 28.4698 89.545 31.1198 88.145C33.4398 86.915 39.0798 87.835 40.4398 88.085C40.5098 88.095 40.5598 88.105 40.6198 88.115C40.6898 88.125 40.7398 88.135 40.7398 88.135C40.7098 88.125 40.6598 88.125 40.6198 88.115C40.5698 88.105 40.5198 88.095 40.4398 88.085C38.7698 87.905 34.3298 89.265 31.8498 90.585ZM43.0698 86.695C41.6798 85.765 37.1198 84.885 34.3098 84.885C32.3098 84.885 31.8098 82.385 34.8098 82.385C37.4298 82.385 41.9798 85.835 43.0698 86.695C43.1298 86.735 43.1698 86.775 43.2098 86.815C43.2698 86.855 43.2998 86.895 43.2998 86.895C43.2698 86.865 43.2398 86.845 43.2098 86.815C43.1698 86.775 43.1298 86.745 43.0698 86.695ZM54.2998 95.885C49.3298 95.885 45.2998 91.855 45.2998 86.885C45.2998 81.915 49.3298 77.885 54.2998 77.885C59.2698 77.885 63.2998 81.915 63.2998 86.885C63.2998 91.855 59.2798 95.885 54.2998 95.885ZM66.8198 63.465C62.6498 63.815 61.2698 63.935 55.7098 64.405C48.7698 64.995 46.1598 67.225 42.2498 70.565C40.1898 72.325 40.7798 69.685 40.7798 69.685C41.9998 67.575 44.3598 62.355 53.9898 60.535C63.6198 58.715 67.9598 60.355 67.9598 60.355C67.9598 60.355 71.2098 63.095 66.8198 63.465ZM92.7998 96.885C87.5498 96.885 83.2998 92.635 83.2998 87.385C83.2998 82.135 87.5498 77.885 92.7998 77.885C98.0498 77.885 102.3 82.135 102.3 87.385C102.3 92.635 98.0498 96.885 92.7998 96.885ZM116.18 88.585C113.7 87.265 109.26 85.905 107.59 86.085C107.51 86.095 107.45 86.115 107.41 86.115C107.37 86.125 107.33 86.125 107.29 86.135C107.29 86.135 107.34 86.125 107.41 86.115C107.47 86.105 107.53 86.085 107.59 86.085C108.95 85.835 114.58 84.915 116.91 86.145C119.56 87.545 117.94 89.525 116.18 88.585ZM113.72 82.885C110.91 82.885 106.35 83.765 104.96 84.695C104.9 84.745 104.85 84.775 104.82 84.815C104.79 84.845 104.75 84.865 104.73 84.895C104.73 84.895 104.77 84.865 104.82 84.815C104.87 84.775 104.91 84.735 104.96 84.695C106.05 83.835 110.59 80.385 113.22 80.385C116.22 80.385 115.72 82.885 113.72 82.885ZM81.6198 59.875C81.6198 59.875 85.7798 58.225 95.0098 60.015C104.24 61.805 106.47 67.015 107.63 69.125C107.63 69.125 108.18 71.765 106.21 70.005C102.47 66.675 99.9798 64.455 93.3298 63.885C88.0098 63.425 86.6798 63.315 82.6898 62.975C78.4898 62.615 81.6198 59.875 81.6198 59.875Z" fill="#FFD203"/>
<path d="M73.8 57.545C99.12 57.545 116.78 57.865 127.31 58.145C135.28 58.355 139.16 58.545 139.16 58.545C139.16 57.835 139.13 57.125 139.07 56.435C138.88 54.355 138.43 52.365 137.73 50.495C137.47 49.785 137.17 49.085 136.83 48.415C136.33 47.405 135.76 46.435 135.13 45.515C134.71 44.905 134.25 44.315 133.77 43.745C133.29 43.175 132.78 42.635 132.25 42.115C131.72 41.595 131.16 41.105 130.57 40.645C128.01 38.605 124.99 37.095 121.69 36.245C120.86 36.035 120.01 35.855 119.15 35.735C118.76 35.675 118.37 35.635 117.97 35.595C117.18 35.515 116.37 35.475 115.56 35.475C115.56 35.475 111.86 35.215 104.61 34.965C97.62 34.715 87.32 34.475 73.82 34.475C60.32 34.475 50.02 34.715 43.03 34.965C35.78 35.215 32.08 35.475 32.08 35.475C26.37 35.475 21.14 37.395 17.06 40.645C16.48 41.105 15.92 41.605 15.38 42.115C11.11 46.255 8.45996 52.025 8.45996 58.545C8.45996 58.545 12.35 58.355 20.33 58.145C30.83 57.865 48.49 57.545 73.8 57.545Z" fill="#FBE770"/>
<path d="M54.2998 77.885C49.3298 77.885 45.2998 81.915 45.2998 86.885C45.2998 91.855 49.3298 95.885 54.2998 95.885C59.2698 95.885 63.2998 91.855 63.2998 86.885C63.2998 81.915 59.2798 77.885 54.2998 77.885ZM53.7998 87.885C51.8698 87.885 50.2998 86.315 50.2998 84.385C50.2998 82.455 51.8698 80.885 53.7998 80.885C55.7298 80.885 57.2998 82.455 57.2998 84.385C57.2998 86.315 55.7398 87.885 53.7998 87.885Z" fill="black"/>
<path d="M92.7998 77.885C87.5498 77.885 83.2998 82.135 83.2998 87.385C83.2998 92.635 87.5498 96.885 92.7998 96.885C98.0498 96.885 102.3 92.635 102.3 87.385C102.3 82.135 98.0498 77.885 92.7998 77.885ZM92.7998 87.885C90.8698 87.885 89.2998 86.315 89.2998 84.385C89.2998 82.455 90.8698 80.885 92.7998 80.885C94.7298 80.885 96.2998 82.455 96.2998 84.385C96.2998 86.315 94.7398 87.885 92.7998 87.885Z" fill="black"/>
<path d="M53.7998 87.885C55.7328 87.885 57.2998 86.318 57.2998 84.385C57.2998 82.452 55.7328 80.885 53.7998 80.885C51.8668 80.885 50.2998 82.452 50.2998 84.385C50.2998 86.318 51.8668 87.885 53.7998 87.885Z" fill="white"/>
<path d="M92.7998 87.885C94.7328 87.885 96.2998 86.318 96.2998 84.385C96.2998 82.452 94.7328 80.885 92.7998 80.885C90.8668 80.885 89.2998 82.452 89.2998 84.385C89.2998 86.318 90.8668 87.885 92.7998 87.885Z" fill="white"/>
<path d="M67.9497 60.365C67.9497 60.365 63.6197 58.725 53.9797 60.545C44.3497 62.365 41.9897 67.585 40.7697 69.695C40.7697 69.695 40.1797 72.335 42.2397 70.575C46.1497 67.235 48.7597 65.005 55.6997 64.415C61.2497 63.945 62.6397 63.825 66.8097 63.475C71.2097 63.095 67.9497 60.365 67.9497 60.365Z" fill="black"/>
<path d="M82.6901 62.975C86.6801 63.315 88.01 63.435 93.33 63.885C99.98 64.455 102.47 66.675 106.21 70.005C108.18 71.765 107.63 69.125 107.63 69.125C106.47 67.015 104.24 61.805 95.0101 60.015C85.7801 58.225 81.6201 59.875 81.6201 59.875C81.6201 59.875 78.4901 62.615 82.6901 62.975Z" fill="black"/>
<path d="M34.2998 84.885C37.1098 84.885 41.6698 85.765 43.0598 86.695C41.9698 85.835 37.4298 82.385 34.7998 82.385C31.7998 82.385 32.2998 84.885 34.2998 84.885Z" fill="#998675"/>
<path d="M43.21 86.815C43.24 86.845 43.28 86.865 43.3 86.895C43.3 86.885 43.27 86.855 43.21 86.815Z" fill="#998675"/>
<path d="M43.2098 86.815C43.1598 86.775 43.1198 86.735 43.0698 86.695C43.1298 86.745 43.1698 86.775 43.2098 86.815Z" fill="#998675"/>
<path d="M40.4399 88.075C40.5199 88.085 40.5799 88.105 40.6199 88.105C40.5599 88.105 40.5099 88.085 40.4399 88.075Z" fill="#998675"/>
<path d="M31.1198 88.145C28.4698 89.555 30.0798 91.525 31.8498 90.585C34.3298 89.265 38.7698 87.905 40.4398 88.085C39.0798 87.835 33.4398 86.905 31.1198 88.145Z" fill="#998675"/>
<path d="M40.6201 88.115C40.6601 88.125 40.7001 88.125 40.7401 88.135C40.7401 88.135 40.6901 88.125 40.6201 88.115Z" fill="#998675"/>
<path d="M104.82 84.815C104.76 84.855 104.73 84.895 104.73 84.895C104.75 84.865 104.79 84.835 104.82 84.815Z" fill="#998675"/>
<path d="M104.96 84.695C104.9 84.735 104.86 84.775 104.82 84.815C104.85 84.775 104.9 84.745 104.96 84.695Z" fill="#998675"/>
<path d="M113.72 82.885C115.72 82.885 116.22 80.385 113.22 80.385C110.59 80.385 106.05 83.835 104.96 84.695C106.35 83.765 110.91 82.885 113.72 82.885Z" fill="#998675"/>
<path d="M107.59 86.075C109.26 85.905 113.7 87.265 116.18 88.575C117.95 89.515 119.56 87.535 116.91 86.135C114.58 84.905 108.95 85.835 107.59 86.075Z" fill="#998675"/>
<path d="M107.59 86.075C107.52 86.085 107.46 86.095 107.41 86.105C107.45 86.105 107.51 86.095 107.59 86.075Z" fill="#998675"/>
<path d="M107.4 86.115C107.33 86.125 107.28 86.135 107.28 86.135C107.32 86.125 107.37 86.125 107.4 86.115Z" fill="#998675"/>
<path d="M105.01 104.835C105.52 105.335 106.04 105.965 106.65 106.885C108.65 109.885 108.65 105.885 107.65 103.885C105.65 99.885 100.65 101.885 100.65 101.885C102.34 103.005 103.39 103.505 104.35 104.255C100.75 105.605 87.6902 110.305 78.3102 110.885C62.5002 111.875 45.7201 105.055 45.3301 104.895C46.5701 103.715 47.1902 103.295 49.3102 101.885C49.3102 101.885 44.3102 99.885 42.3102 103.885C41.3102 105.885 41.3102 109.885 43.3102 106.885C44.1802 106.015 44.8002 105.395 45.3102 104.905C45.3502 105.395 46.3702 117.975 49.3102 122.885C49.8202 123.735 50.3702 124.775 50.9902 125.885C54.0302 131.295 59.0402 138.715 72.3102 137.885C85.7502 137.045 92.8201 131.265 96.5301 125.885C97.2401 124.855 97.8302 123.845 98.3102 122.885C100.82 117.865 104.03 107.925 105.01 104.835ZM87.3502 130.595C87.3502 130.595 87.4802 130.895 82.1802 133.895C77.9202 136.305 69.8002 135.895 65.3802 134.895C60.9602 133.895 57.4202 129.895 57.4202 129.895C57.4202 129.895 62.7202 125.895 66.2602 125.895C69.8002 125.895 71.5602 126.895 71.5602 126.895C71.5602 126.895 74.2102 124.895 78.6302 125.895C83.0602 126.885 87.3502 130.595 87.3502 130.595ZM97.3002 117.885C97.3002 117.885 92.3002 121.885 79.3002 122.885C66.3002 123.885 53.3002 119.885 52.3002 116.885C51.5902 114.745 50.8701 112.575 50.5201 110.945C50.3801 110.295 50.3002 109.885 50.3002 109.885C50.3002 109.885 57.3002 113.885 79.3002 113.885C87.3002 113.885 100.3 109.885 100.3 109.885C100.3 115.885 97.3002 117.885 97.3002 117.885Z" fill="black"/>
<path d="M71.5697 126.885C71.5697 126.885 69.7997 125.885 66.2697 125.885C62.7397 125.885 57.4297 129.885 57.4297 129.885C57.4297 129.885 60.9697 133.885 65.3897 134.885C69.8097 135.885 77.9297 136.295 82.1897 133.885C87.4897 130.885 87.3597 130.585 87.3597 130.585C87.3597 130.585 83.0697 126.885 78.6497 125.885C74.2197 124.885 71.5697 126.885 71.5697 126.885Z" fill="#FF0000"/>
<path d="M79.2998 113.885C57.2998 113.885 50.2998 109.885 50.2998 109.885C50.2998 109.885 50.3798 110.295 50.5198 110.945C50.8698 112.575 51.5798 114.745 52.2998 116.885C53.2998 119.885 66.2998 123.885 79.2998 122.885C92.2998 121.885 97.2998 117.885 97.2998 117.885C97.2998 117.885 100.3 115.885 100.3 109.885C100.3 109.885 87.2998 113.885 79.2998 113.885Z" fill="white"/>
</svg>
