<svg width="147" height="169" viewBox="0 0 147 169" fill="none" xmlns="http://www.w3.org/2000/svg">
<path d="M115.1 35.355C115.92 35.355 116.72 35.395 117.51 35.475C116.72 35.385 115.92 35.355 115.1 35.355Z" fill="#EBCB20"/>
<path d="M138.72 58.4249C138.72 58.4249 134.84 58.2349 126.87 58.0249V125.765H19.87V58.0249C11.89 58.2349 8 58.4249 8 58.4249V122.145C8 128.665 10.64 134.435 14.92 138.575C15.45 139.095 16.01 139.585 16.6 140.045C20.68 143.295 25.92 145.215 31.62 145.215H115.11C115.93 145.215 116.73 145.175 117.52 145.095C117.92 145.055 118.31 145.005 118.7 144.955C123 144.325 126.92 142.595 130.13 140.035C130.71 139.575 131.27 139.075 131.81 138.565C132.34 138.045 132.85 137.505 133.33 136.935C133.81 136.365 134.27 135.775 134.69 135.165C135.33 134.245 135.9 133.275 136.39 132.265C137.88 129.225 138.72 125.795 138.72 122.135V58.4249C138.72 57.7149 138.69 57.0049 138.63 56.3149C138.69 57.0149 138.72 57.7149 138.72 58.4249Z" fill="#EBCB20"/>
<path d="M137.37 36.255C131.44 30.515 123.54 27.355 115.11 27.355H112.16V13.655C112.16 10.475 110.92 7.48496 108.67 5.23496C106.56 3.12496 103.81 1.90496 100.85 1.76496C98.66 1.51496 87.72 0.334961 73.36 0.334961C59 0.334961 48.06 1.51496 45.87 1.76496C42.91 1.90496 40.16 3.12496 38.05 5.23496C35.8 7.48496 34.56 10.475 34.56 13.655V27.355H31.61C23.18 27.355 15.27 30.515 9.35 36.255C3.32 42.095 0 49.975 0 58.435V122.155C0 130.615 3.32 138.495 9.35 144.335C13.19 148.055 17.88 150.685 22.99 152.085V160.445V168.445H30.99H115.73H123.73V160.445V152.085C128.84 150.695 133.53 148.065 137.37 144.335C143.4 138.495 146.72 130.615 146.72 122.155V58.435C146.72 49.965 143.4 42.095 137.37 36.255ZM115.73 160.435H30.99V150.875H115.73V160.435ZM138.72 122.145C138.72 125.815 137.88 129.245 136.39 132.275C135.89 133.285 135.32 134.255 134.69 135.175C134.27 135.785 133.81 136.375 133.33 136.945C132.85 137.515 132.34 138.055 131.81 138.575C131.28 139.095 130.72 139.585 130.13 140.045C126.92 142.605 123 144.335 118.7 144.965C118.31 145.025 117.92 145.065 117.52 145.105C116.73 145.185 115.92 145.225 115.11 145.225H31.62C25.91 145.225 20.68 143.305 16.6 140.055C16.02 139.595 15.46 139.095 14.92 138.585C10.65 134.445 8 128.675 8 122.155V58.435C8 51.915 10.64 46.145 14.92 42.005C15.45 41.485 16.01 40.995 16.6 40.535C20.68 37.285 25.92 35.365 31.62 35.365C31.62 35.365 35.32 35.105 42.57 34.855V13.645C42.57 12.565 43.01 11.595 43.71 10.885C44.42 10.175 45.39 9.74496 46.47 9.74496C46.47 9.74496 49.7 9.34496 55.05 8.96496C55.99 8.89496 57 8.83496 58.07 8.77496C58.78 8.73496 59.52 8.69496 60.29 8.65496C64.11 8.46496 68.54 8.32496 73.37 8.32496C88.81 8.32496 100.26 9.74496 100.26 9.74496C101.34 9.74496 102.31 10.185 103.02 10.885C103.73 11.595 104.16 12.565 104.16 13.645V34.835C111.41 35.085 115.11 35.345 115.11 35.345C115.93 35.345 116.73 35.385 117.52 35.465C117.92 35.505 118.31 35.555 118.7 35.605C119.57 35.735 120.41 35.905 121.24 36.115C124.54 36.965 127.56 38.475 130.12 40.515C130.7 40.975 131.26 41.475 131.8 41.985C132.33 42.505 132.84 43.045 133.32 43.615C133.8 44.185 134.26 44.775 134.68 45.385C135.32 46.305 135.89 47.275 136.38 48.285C136.71 48.955 137.01 49.655 137.28 50.365C137.98 52.235 138.43 54.225 138.62 56.305C138.68 56.995 138.71 57.705 138.71 58.415V122.145H138.72Z" fill="black"/>
<path d="M104.15 34.835V13.645C104.15 12.565 103.71 11.595 103.01 10.885C102.3 10.175 101.33 9.74496 100.25 9.74496C100.25 9.74496 88.8001 8.32495 73.3601 8.32495C68.5301 8.32495 64.1001 8.46495 60.2801 8.65495C59.5201 8.69495 58.7801 8.73496 58.0601 8.77496C56.9901 8.83496 55.9801 8.90495 55.0401 8.96495C49.7001 9.34495 46.4601 9.74496 46.4601 9.74496C45.3801 9.74496 44.4101 10.185 43.7001 10.885C42.9901 11.595 42.5601 12.565 42.5601 13.645V34.835C49.5501 34.585 59.8501 34.345 73.3501 34.345C86.8501 34.345 97.1601 34.595 104.15 34.835Z" fill="#EBCB20"/>
<path d="M115.73 150.875H30.9902V160.435H115.73V150.875Z" fill="#EBCB20"/>
<path d="M19.8701 58.035V125.775H126.87V58.035C116.34 57.755 98.6901 57.435 73.3601 57.435C48.0501 57.425 30.3901 57.755 19.8701 58.035ZM24.3701 96.775C23.5401 96.775 22.8701 96.105 22.8701 95.275C22.8701 94.445 23.5401 93.775 24.3701 93.775C25.2001 93.775 25.8701 94.445 25.8701 95.275C25.8701 96.105 25.1901 96.775 24.3701 96.775ZM30.3701 108.775C29.5401 108.775 28.8701 108.105 28.8701 107.275C28.8701 106.445 29.5401 105.775 30.3701 105.775C31.2001 105.775 31.8701 106.445 31.8701 107.275C31.8701 108.105 31.1901 108.775 30.3701 108.775ZM40.3701 69.275C41.3701 67.275 43.3701 62.275 50.3701 61.275C57.3701 60.275 60.3701 62.275 60.3701 62.275C60.3701 62.275 62.5301 65.275 59.3701 65.275C56.3701 65.275 55.3701 65.275 51.3701 65.275C46.3701 65.275 44.3701 67.275 41.3701 70.275C39.7801 71.855 40.3701 69.275 40.3701 69.275ZM42.3701 102.775C41.5401 102.775 40.8701 102.105 40.8701 101.275C40.8701 100.445 41.5401 99.775 42.3701 99.775C43.2001 99.775 43.8701 100.445 43.8701 101.275C43.8701 102.105 43.1901 102.775 42.3701 102.775ZM44.8701 85.775C44.8701 80.805 48.9001 76.775 53.8701 76.775C58.8401 76.775 62.8701 80.805 62.8701 85.775C62.8701 90.745 58.8401 94.775 53.8701 94.775C48.9001 94.775 44.8701 90.745 44.8701 85.775ZM104.37 101.775C103.54 101.775 102.87 101.105 102.87 100.275C102.87 99.445 103.54 98.775 104.37 98.775C105.2 98.775 105.87 99.445 105.87 100.275C105.87 101.105 105.19 101.775 104.37 101.775ZM122.37 92.775C123.2 92.775 123.87 93.445 123.87 94.275C123.87 95.105 123.2 95.775 122.37 95.775C121.54 95.775 120.87 95.105 120.87 94.275C120.87 93.445 121.54 92.775 122.37 92.775ZM116.37 104.775C117.2 104.775 117.87 105.445 117.87 106.275C117.87 107.105 117.2 107.775 116.37 107.775C115.54 107.775 114.87 107.105 114.87 106.275C114.87 105.445 115.54 104.775 116.37 104.775ZM86.9801 61.775C86.9801 61.775 89.9801 59.775 96.9801 60.775C103.98 61.775 105.98 66.775 106.98 68.775C106.98 68.775 107.56 71.355 105.98 69.775C102.98 66.775 100.98 64.775 95.9801 64.775C91.9801 64.775 90.9801 64.775 87.9801 64.775C84.8201 64.775 86.9801 61.775 86.9801 61.775ZM93.3701 77.775C98.6201 77.775 102.87 82.025 102.87 87.275C102.87 92.525 98.6201 96.775 93.3701 96.775C88.1201 96.775 83.8701 92.525 83.8701 87.275C83.8701 82.025 88.1201 77.775 93.3701 77.775ZM90.3601 110.775C88.6801 115.425 84.7501 119.115 80.0201 120.615C73.8601 122.715 65.9401 122.985 61.3101 117.685C60.2201 116.475 59.2701 115.225 58.4901 113.825C61.2901 115.355 63.8501 117.035 66.4701 117.685C70.3701 118.695 74.9501 117.865 78.9601 117.035C83.3701 116.105 86.9601 113.715 90.3601 110.775Z" fill="#FFD203"/>
<path d="M73.36 57.425C98.68 57.425 116.34 57.745 126.87 58.025C134.84 58.235 138.72 58.425 138.72 58.425C138.72 57.715 138.69 57.005 138.63 56.315C138.44 54.235 137.99 52.245 137.29 50.375C137.03 49.665 136.73 48.965 136.39 48.295C135.89 47.285 135.32 46.315 134.69 45.395C134.27 44.785 133.81 44.195 133.33 43.625C132.85 43.055 132.34 42.515 131.81 41.995C131.28 41.475 130.72 40.985 130.13 40.525C127.57 38.485 124.55 36.975 121.25 36.125C120.42 35.915 119.57 35.735 118.71 35.615C118.32 35.555 117.93 35.515 117.53 35.475C116.74 35.395 115.93 35.355 115.12 35.355C115.12 35.355 111.42 35.095 104.17 34.845C97.18 34.595 86.88 34.355 73.38 34.355C59.88 34.355 49.58 34.595 42.59 34.845C35.34 35.095 31.64 35.355 31.64 35.355C25.93 35.355 20.7 37.275 16.62 40.525C16.04 40.985 15.48 41.485 14.94 41.995C10.67 46.135 8.02002 51.905 8.02002 58.425C8.02002 58.425 11.91 58.235 19.89 58.025C30.39 57.755 48.05 57.425 73.36 57.425Z" fill="#FBE770"/>
<path d="M24.3701 96.775C25.1985 96.775 25.8701 96.1034 25.8701 95.275C25.8701 94.4465 25.1985 93.775 24.3701 93.775C23.5417 93.775 22.8701 94.4465 22.8701 95.275C22.8701 96.1034 23.5417 96.775 24.3701 96.775Z" fill="#C69C6D"/>
<path d="M30.3701 108.775C31.1985 108.775 31.8701 108.103 31.8701 107.275C31.8701 106.447 31.1985 105.775 30.3701 105.775C29.5417 105.775 28.8701 106.447 28.8701 107.275C28.8701 108.103 29.5417 108.775 30.3701 108.775Z" fill="#C69C6D"/>
<path d="M42.3701 102.775C43.1985 102.775 43.8701 102.103 43.8701 101.275C43.8701 100.447 43.1985 99.775 42.3701 99.775C41.5417 99.775 40.8701 100.447 40.8701 101.275C40.8701 102.103 41.5417 102.775 42.3701 102.775Z" fill="#C69C6D"/>
<path d="M122.37 95.775C123.199 95.775 123.87 95.1034 123.87 94.275C123.87 93.4465 123.199 92.775 122.37 92.775C121.542 92.775 120.87 93.4465 120.87 94.275C120.87 95.1034 121.542 95.775 122.37 95.775Z" fill="#C69C6D"/>
<path d="M116.37 107.775C117.199 107.775 117.87 107.103 117.87 106.275C117.87 105.447 117.199 104.775 116.37 104.775C115.542 104.775 114.87 105.447 114.87 106.275C114.87 107.103 115.542 107.775 116.37 107.775Z" fill="#C69C6D"/>
<path d="M104.37 101.775C105.199 101.775 105.87 101.103 105.87 100.275C105.87 99.4465 105.199 98.775 104.37 98.775C103.542 98.775 102.87 99.4465 102.87 100.275C102.87 101.103 103.542 101.775 104.37 101.775Z" fill="#C69C6D"/>
<path d="M62.8701 85.775C62.8701 80.805 58.8401 76.775 53.8701 76.775C48.9001 76.775 44.8701 80.805 44.8701 85.775C44.8701 90.745 48.9001 94.775 53.8701 94.775C58.8401 94.775 62.8701 90.745 62.8701 85.775ZM54.3701 87.775C52.4401 87.775 50.8701 86.205 50.8701 84.275C50.8701 82.345 52.4401 80.775 54.3701 80.775C56.3001 80.775 57.8701 82.345 57.8701 84.275C57.8701 86.205 56.3001 87.775 54.3701 87.775Z" fill="black"/>
<path d="M93.3701 96.775C98.6201 96.775 102.87 92.525 102.87 87.275C102.87 82.025 98.6201 77.775 93.3701 77.775C88.1201 77.775 83.8701 82.025 83.8701 87.275C83.8701 92.525 88.1201 96.775 93.3701 96.775ZM93.3701 81.775C95.3001 81.775 96.8701 83.345 96.8701 85.275C96.8701 87.205 95.3001 88.775 93.3701 88.775C91.4401 88.775 89.8701 87.205 89.8701 85.275C89.8701 83.335 91.4301 81.775 93.3701 81.775Z" fill="black"/>
<path d="M51.3701 65.2749C55.3701 65.2749 56.3701 65.2749 59.3701 65.2749C62.5301 65.2749 60.3701 62.2749 60.3701 62.2749C60.3701 62.2749 57.3701 60.2749 50.3701 61.2749C43.3701 62.2749 41.3701 67.2749 40.3701 69.2749C40.3701 69.2749 39.7901 71.8549 41.3701 70.2749C44.3701 67.2749 46.3701 65.2749 51.3701 65.2749Z" fill="black"/>
<path d="M87.9802 64.7749C90.9802 64.7749 91.9802 64.7749 95.9802 64.7749C100.98 64.7749 102.98 66.7749 105.98 69.7749C107.56 71.3549 106.98 68.7749 106.98 68.7749C105.98 66.7749 103.98 61.7749 96.9802 60.7749C89.9802 59.7749 86.9802 61.7749 86.9802 61.7749C86.9802 61.7749 84.8202 64.7749 87.9802 64.7749Z" fill="black"/>
<path d="M66.4702 117.685C63.8502 117.045 61.2902 115.355 58.4902 113.825C59.2702 115.225 60.2202 116.475 61.3102 117.685C65.9402 122.985 73.8702 122.715 80.0202 120.615C84.7502 119.115 88.6802 115.425 90.3602 110.775C86.9602 113.715 83.3702 116.105 78.9602 117.035C74.9502 117.865 70.3602 118.695 66.4702 117.685Z" fill="black"/>
<path d="M54.3701 87.775C56.3031 87.775 57.8701 86.208 57.8701 84.275C57.8701 82.342 56.3031 80.775 54.3701 80.775C52.4371 80.775 50.8701 82.342 50.8701 84.275C50.8701 86.208 52.4371 87.775 54.3701 87.775Z" fill="white"/>
<path d="M93.3701 88.775C95.3031 88.775 96.8701 87.208 96.8701 85.275C96.8701 83.342 95.3031 81.775 93.3701 81.775C91.4371 81.775 89.8701 83.342 89.8701 85.275C89.8701 87.208 91.4371 88.775 93.3701 88.775Z" fill="white"/>
</svg>
