<svg width="148" height="169" viewBox="0 0 148 169" fill="none" xmlns="http://www.w3.org/2000/svg">
<path d="M119.15 35.615C120.02 35.745 120.86 35.915 121.69 36.125C120.86 35.915 120.01 35.735 119.15 35.615Z" fill="#EBCB20"/>
<path d="M139.17 58.425C139.17 58.425 135.29 58.235 127.32 58.025V125.765H119.44C119.4 125.915 119.37 126.075 119.32 126.225C118.13 130.175 114.4 135.345 107.48 138.025C106.35 138.465 105.29 138.655 104.29 138.655C98.2099 138.655 94.48 131.475 92.74 128.145C92.31 127.315 91.8599 126.525 91.4099 125.765H20.31V58.035C12.33 58.245 8.43994 58.435 8.43994 58.435V122.155C8.43994 128.675 11.08 134.445 15.36 138.585C15.89 139.105 16.4499 139.595 17.0399 140.055C21.1199 143.305 26.36 145.225 32.06 145.225H115.55C116.37 145.225 117.17 145.185 117.96 145.105C118.36 145.065 118.75 145.015 119.14 144.965C123.44 144.335 127.36 142.605 130.57 140.045C131.15 139.585 131.71 139.085 132.25 138.575C132.78 138.055 133.29 137.515 133.77 136.945C134.25 136.375 134.71 135.785 135.13 135.175C135.77 134.255 136.34 133.285 136.83 132.275C138.32 129.235 139.16 125.805 139.16 122.145L139.17 58.425C139.17 57.715 139.14 57.005 139.08 56.315C139.13 57.015 139.17 57.715 139.17 58.425Z" fill="#EBCB20"/>
<path d="M137.81 36.255C131.88 30.515 123.98 27.355 115.55 27.355H112.6V13.655C112.6 10.475 111.36 7.48502 109.11 5.23502C107 3.12502 104.25 1.90502 101.29 1.76502C99.0999 1.51502 88.16 0.335022 73.8 0.335022C59.44 0.335022 48.5 1.51502 46.31 1.76502C43.35 1.90502 40.6 3.12502 38.49 5.23502C36.24 7.48502 34.9999 10.475 34.9999 13.655V27.355H32.05C23.62 27.355 15.7099 30.515 9.78995 36.255C3.75995 42.095 0.439941 49.975 0.439941 58.435V122.155C0.439941 130.615 3.75995 138.495 9.78995 144.335C13.6299 148.055 18.32 150.685 23.43 152.085V160.445V168.445H31.43H116.17H124.17V160.445V152.085C129.28 150.695 133.97 148.065 137.81 144.335C143.84 138.495 147.16 130.615 147.16 122.155V58.435C147.17 49.965 143.84 42.095 137.81 36.255ZM116.17 160.435H31.43V150.875H116.17V160.435ZM139.17 122.155C139.17 125.825 138.33 129.255 136.84 132.285C136.34 133.295 135.77 134.265 135.14 135.185C134.72 135.795 134.26 136.385 133.78 136.955C133.3 137.525 132.79 138.065 132.26 138.585C131.73 139.105 131.17 139.595 130.58 140.055C127.37 142.615 123.45 144.345 119.15 144.975C118.76 145.035 118.37 145.075 117.97 145.115C117.18 145.195 116.37 145.235 115.56 145.235H32.0699C26.3599 145.235 21.13 143.315 17.05 140.065C16.47 139.605 15.91 139.105 15.37 138.595C11.1 134.455 8.44995 128.685 8.44995 122.165V58.445C8.44995 51.925 11.09 46.155 15.37 42.015C15.9 41.495 16.46 41.005 17.05 40.545C21.13 37.295 26.3699 35.375 32.0699 35.375C32.0699 35.375 35.77 35.115 43.02 34.865V13.645C43.02 12.565 43.4599 11.595 44.1599 10.885C44.8699 10.175 45.84 9.74503 46.92 9.74503C46.92 9.74503 50.1499 9.34502 55.4999 8.96502C56.4399 8.89502 57.45 8.83502 58.52 8.77502C59.23 8.73502 59.97 8.69502 60.74 8.65502C64.56 8.46502 68.9899 8.32502 73.8199 8.32502C89.2599 8.32502 100.71 9.74503 100.71 9.74503C101.79 9.74503 102.76 10.185 103.47 10.885C104.18 11.595 104.61 12.565 104.61 13.645V34.835C111.86 35.085 115.56 35.345 115.56 35.345C116.38 35.345 117.18 35.385 117.97 35.465C118.37 35.505 118.76 35.555 119.15 35.605C120.02 35.735 120.86 35.905 121.69 36.115C124.99 36.965 128.01 38.475 130.57 40.515C131.15 40.975 131.71 41.475 132.25 41.985C132.78 42.505 133.29 43.045 133.77 43.615C134.25 44.185 134.71 44.775 135.13 45.385C135.77 46.305 136.34 47.275 136.83 48.285C137.16 48.955 137.46 49.655 137.73 50.365C138.43 52.235 138.88 54.225 139.07 56.305C139.13 56.995 139.16 57.705 139.16 58.415V122.155H139.17Z" fill="black"/>
<path d="M104.6 34.835V13.645C104.6 12.565 104.16 11.595 103.46 10.885C102.75 10.175 101.78 9.74502 100.7 9.74502C100.7 9.74502 89.2498 8.32501 73.8098 8.32501C68.9798 8.32501 64.5498 8.46501 60.7298 8.65501C59.9698 8.69501 59.2298 8.73502 58.5098 8.77502C57.4398 8.83502 56.4298 8.90501 55.4898 8.96501C50.1498 9.34501 46.9098 9.74502 46.9098 9.74502C45.8298 9.74502 44.8598 10.185 44.1498 10.885C43.4398 11.595 43.0098 12.565 43.0098 13.645V34.835C49.9998 34.585 60.2998 34.345 73.7998 34.345C87.2998 34.345 97.6098 34.595 104.6 34.835Z" fill="#EBCB20"/>
<path d="M116.18 150.875H31.4399V160.435H116.18V150.875Z" fill="#EBCB20"/>
<path d="M105.47 100.275L105.5 99.955L105.47 100.275Z" fill="#FFD203"/>
<path d="M97.4298 57.7751C104.43 58.7751 106.43 63.7751 107.43 65.7751C107.43 65.7751 108.01 68.3551 106.43 66.7751C103.43 63.7751 101.43 61.7751 96.4298 61.7751C92.4298 61.7751 91.4298 61.7751 88.4298 61.7751C85.2698 61.7751 87.4298 58.7751 87.4298 58.7751C87.4298 58.7751 89.2798 57.5551 93.4498 57.5051C87.4998 57.4651 80.9698 57.4351 73.8098 57.4351C48.4998 57.4351 30.8398 57.755 20.3198 58.035V125.775H91.4198C90.0298 123.435 88.6398 121.525 87.6898 120.435C79.6998 123.405 70.6298 122.565 63.0198 119.115C71.6698 119.765 80.7298 119.675 88.4498 115.785C95.4398 112.165 101.98 107.985 108.4 103.395C108.25 103.235 108.11 103.085 107.97 102.925C107.12 101.995 106.24 101.045 105.41 100.965C104.94 100.925 104.85 100.595 104.84 100.495C104.81 100.335 104.83 100.025 105.28 99.8251C106.24 99.3851 108.96 99.205 110.85 101.485C112.12 103.015 112.47 104.115 111.92 104.755C111.71 104.995 111.4 105.115 111.05 105.115C110.71 105.115 110.33 105.005 109.96 104.775C109.67 104.595 109.39 104.355 109.12 104.105C108.05 105.505 106.89 106.845 105.67 108.115C107.78 109.035 111.36 110.685 113.96 112.315C118.41 115.095 120.71 120.815 119.44 125.795H127.32V58.035C119.91 57.835 108.96 57.6251 94.2998 57.5051C95.2298 57.5251 96.2698 57.6051 97.4298 57.7751ZM40.8098 69.2751C41.8098 67.2751 43.8098 62.2751 50.8098 61.2751C57.8098 60.2751 60.8098 62.2751 60.8098 62.2751C60.8098 62.2751 62.9698 65.2751 59.8098 65.2751C56.8098 65.2751 55.8098 65.2751 51.8098 65.2751C46.8098 65.2751 44.8098 67.2751 41.8098 70.2751C40.2298 71.8551 40.8098 69.2751 40.8098 69.2751ZM54.3098 94.7751C49.3398 94.7751 45.3098 90.7451 45.3098 85.7751C45.3098 80.8051 49.3398 76.7751 54.3098 76.7751C59.2798 76.7751 63.3098 80.8051 63.3098 85.7751C63.3098 90.7451 59.2798 94.7751 54.3098 94.7751ZM93.8098 96.7751C88.5598 96.7751 84.3098 92.5251 84.3098 87.2751C84.3098 82.0251 88.5598 77.7751 93.8098 77.7751C99.0598 77.7751 103.31 82.0251 103.31 87.2751C103.31 92.5251 99.0598 96.7751 93.8098 96.7751Z" fill="#FFD203"/>
<path d="M73.81 57.425C80.97 57.425 87.5 57.455 93.45 57.495C93.72 57.495 93.9999 57.495 94.2899 57.505C108.95 57.615 119.91 57.835 127.31 58.035C135.28 58.245 139.16 58.435 139.16 58.435C139.16 57.725 139.13 57.015 139.07 56.325C138.88 54.245 138.43 52.255 137.73 50.385C137.47 49.675 137.17 48.975 136.83 48.305C136.33 47.295 135.76 46.325 135.13 45.405C134.71 44.795 134.25 44.205 133.77 43.635C133.29 43.065 132.78 42.525 132.25 42.005C131.72 41.485 131.16 40.995 130.57 40.535C128.01 38.495 124.99 36.985 121.69 36.135C120.86 35.925 120.01 35.745 119.15 35.625C118.76 35.565 118.37 35.525 117.97 35.485C117.18 35.405 116.37 35.365 115.56 35.365C115.56 35.365 111.86 35.105 104.61 34.855C97.62 34.605 87.3199 34.365 73.8199 34.365C60.3199 34.365 50.0199 34.605 43.0299 34.855C35.7799 35.105 32.08 35.365 32.08 35.365C26.37 35.365 21.14 37.285 17.06 40.535C16.48 40.995 15.9199 41.495 15.3799 42.005C11.1099 46.145 8.45996 51.915 8.45996 58.435C8.45996 58.435 12.35 58.245 20.33 58.035C30.84 57.755 48.49 57.425 73.81 57.425Z" fill="#FBE770"/>
<path d="M54.3101 76.775C49.3401 76.775 45.3101 80.805 45.3101 85.775C45.3101 90.745 49.3401 94.775 54.3101 94.775C59.2801 94.775 63.3101 90.745 63.3101 85.775C63.3101 80.805 59.2801 76.775 54.3101 76.775ZM54.8101 87.775C52.8801 87.775 51.3101 86.205 51.3101 84.275C51.3101 82.345 52.8801 80.775 54.8101 80.775C56.7401 80.775 58.3101 82.345 58.3101 84.275C58.3101 86.205 56.7401 87.775 54.8101 87.775Z" fill="black"/>
<path d="M93.8101 77.775C88.5601 77.775 84.3101 82.025 84.3101 87.275C84.3101 92.525 88.5601 96.775 93.8101 96.775C99.0601 96.775 103.31 92.525 103.31 87.275C103.31 82.025 99.0601 77.775 93.8101 77.775ZM93.8101 88.775C91.8801 88.775 90.3101 87.205 90.3101 85.275C90.3101 83.345 91.8801 81.775 93.8101 81.775C95.7401 81.775 97.3101 83.345 97.3101 85.275C97.3101 87.205 95.7401 88.775 93.8101 88.775Z" fill="black"/>
<path d="M59.81 65.275C62.97 65.275 60.81 62.275 60.81 62.275C60.81 62.275 57.81 60.275 50.81 61.275C43.81 62.275 41.81 67.275 40.81 69.275C40.81 69.275 40.23 71.855 41.81 70.275C44.81 67.275 46.81 65.275 51.81 65.275C55.81 65.275 56.81 65.275 59.81 65.275Z" fill="black"/>
<path d="M88.4299 61.775C91.4299 61.775 92.4299 61.775 96.4299 61.775C101.43 61.775 103.43 63.775 106.43 66.775C108.01 68.355 107.43 65.775 107.43 65.775C106.43 63.775 104.43 58.775 97.4299 57.775C96.2699 57.605 95.2299 57.535 94.2899 57.505C93.9999 57.495 93.7199 57.495 93.4499 57.495C89.2899 57.545 87.4299 58.765 87.4299 58.765C87.4299 58.765 85.2699 61.775 88.4299 61.775Z" fill="black"/>
<path d="M54.8101 87.775C56.7431 87.775 58.3101 86.208 58.3101 84.275C58.3101 82.342 56.7431 80.775 54.8101 80.775C52.8771 80.775 51.3101 82.342 51.3101 84.275C51.3101 86.208 52.8771 87.775 54.8101 87.775Z" fill="white"/>
<path d="M93.8101 88.775C95.7431 88.775 97.3101 87.208 97.3101 85.275C97.3101 83.342 95.7431 81.775 93.8101 81.775C91.8771 81.775 90.3101 83.342 90.3101 85.275C90.3101 87.208 91.8771 88.775 93.8101 88.775Z" fill="white"/>
<path d="M116.92 125.515C118.3 120.915 115.74 116.365 112.62 114.415C109.74 112.615 105.45 110.725 103.72 109.985C102.13 111.465 100.44 112.845 98.6798 114.135C99.8898 114.645 102.97 115.975 104.4 117.035C106.75 118.765 107.91 122.395 106.82 123.295C105.73 124.195 105.92 122.205 104.12 120.025C102.74 118.355 98.1098 116.665 96.0298 115.975C94.1598 117.195 92.2298 118.315 90.2598 119.345C90.2098 119.375 90.1498 119.395 90.0898 119.425C90.2998 119.685 90.5198 119.965 90.7498 120.275C92.2098 122.225 93.7398 124.675 94.9498 127.005C99.0098 134.805 102.38 137.335 106.57 135.705C112.65 133.345 115.95 128.735 116.92 125.515Z" fill="#ED1C24"/>
<path d="M113.95 112.295C111.35 110.665 107.77 109.025 105.66 108.095C106.89 106.825 108.04 105.495 109.11 104.085C109.38 104.335 109.66 104.575 109.95 104.755C110.32 104.985 110.7 105.095 111.04 105.095C111.39 105.095 111.7 104.975 111.91 104.735C112.47 104.095 112.11 102.995 110.84 101.465C108.95 99.185 106.23 99.375 105.27 99.805C104.82 100.015 104.8 100.315 104.83 100.475C104.85 100.575 104.94 100.905 105.4 100.945C106.23 101.025 107.11 101.985 107.96 102.905C108.1 103.065 108.25 103.215 108.39 103.375C101.97 107.965 95.4198 112.145 88.4398 115.765C80.7198 119.655 71.6598 119.745 63.0098 119.095C70.6198 122.545 79.6998 123.385 87.6798 120.415C88.6298 121.515 90.0198 123.425 91.4098 125.755C91.8598 126.505 92.3098 127.305 92.7398 128.135C94.4798 131.465 98.2098 138.645 104.29 138.645C105.29 138.645 106.35 138.455 107.48 138.015C114.4 135.335 118.13 130.165 119.32 126.215C119.37 126.065 119.4 125.905 119.44 125.755C120.69 120.795 118.4 115.075 113.95 112.295ZM106.57 135.705C102.38 137.325 99.0098 134.805 94.9498 127.005C93.7398 124.675 92.1998 122.215 90.7498 120.275C90.5198 119.965 90.2998 119.685 90.0898 119.425C90.1398 119.395 90.1998 119.375 90.2598 119.345C92.2298 118.315 94.1598 117.195 96.0298 115.975C98.1098 116.665 102.73 118.355 104.12 120.025C105.92 122.205 105.73 124.195 106.82 123.295C107.91 122.395 106.75 118.765 104.4 117.035C102.97 115.985 99.8898 114.645 98.6798 114.135C100.44 112.845 102.13 111.465 103.72 109.985C105.45 110.725 109.75 112.615 112.62 114.415C115.74 116.365 118.3 120.915 116.92 125.515C115.95 128.735 112.65 133.345 106.57 135.705Z" fill="black"/>
</svg>
