<svg width="147" height="169" viewBox="0 0 147 169" fill="none" xmlns="http://www.w3.org/2000/svg">
<path d="M118.7 35.725C119.57 35.855 120.41 36.025 121.24 36.235C120.41 36.025 119.56 35.845 118.7 35.725Z" fill="#EBCB20"/>
<path d="M138.72 58.545C138.72 58.545 134.84 58.355 126.87 58.145V125.885H19.87V58.145C11.89 58.355 8 58.545 8 58.545V122.265C8 128.785 10.64 134.555 14.92 138.695C15.45 139.215 16.01 139.705 16.6 140.165C20.68 143.415 25.92 145.335 31.62 145.335H115.11C115.93 145.335 116.73 145.295 117.52 145.215C117.92 145.175 118.31 145.125 118.7 145.075C123 144.445 126.92 142.715 130.13 140.155C130.71 139.695 131.27 139.195 131.81 138.685C132.34 138.165 132.85 137.625 133.33 137.055C133.81 136.485 134.27 135.895 134.69 135.285C135.33 134.365 135.9 133.395 136.39 132.385C137.88 129.345 138.72 125.915 138.72 122.255V58.545C138.72 57.835 138.69 57.125 138.63 56.435C138.69 57.125 138.72 57.825 138.72 58.545Z" fill="#EBCB20"/>
<path d="M137.37 36.365C131.44 30.625 123.54 27.465 115.11 27.465H112.16V13.765C112.16 10.585 110.92 7.59501 108.67 5.34501C106.56 3.23501 103.81 2.01501 100.85 1.87501C98.66 1.62501 87.72 0.445007 73.36 0.445007C59 0.445007 48.06 1.62501 45.87 1.87501C42.91 2.01501 40.16 3.23501 38.05 5.34501C35.8 7.59501 34.56 10.585 34.56 13.765V27.465H31.61C23.18 27.465 15.27 30.625 9.34998 36.365C3.31998 42.205 0 50.085 0 58.545V122.265C0 130.725 3.31998 138.605 9.34998 144.445C13.19 148.165 17.88 150.795 22.99 152.195V160.555V168.555H30.99H115.73H123.73V160.555V152.195C128.84 150.805 133.53 148.175 137.37 144.445C143.4 138.605 146.72 130.725 146.72 122.265V58.545C146.72 50.075 143.4 42.205 137.37 36.365ZM115.73 160.545H30.99V150.985H115.73V160.545ZM138.72 122.265C138.72 125.935 137.88 129.365 136.39 132.395C135.89 133.405 135.32 134.375 134.69 135.295C134.27 135.905 133.81 136.495 133.33 137.065C132.85 137.635 132.34 138.175 131.81 138.695C131.28 139.215 130.72 139.705 130.13 140.165C126.92 142.725 123 144.455 118.7 145.085C118.31 145.145 117.92 145.185 117.52 145.225C116.73 145.305 115.92 145.345 115.11 145.345H31.62C25.91 145.345 20.68 143.425 16.6 140.175C16.02 139.715 15.46 139.215 14.92 138.705C10.65 134.565 8 128.795 8 122.275V58.555C8 52.035 10.64 46.265 14.92 42.125C15.45 41.605 16.01 41.115 16.6 40.655C20.68 37.405 25.92 35.485 31.62 35.485C31.62 35.485 35.32 35.225 42.57 34.975V13.755C42.57 12.675 43.01 11.705 43.71 10.995C44.42 10.285 45.39 9.855 46.47 9.855C46.47 9.855 49.7 9.455 55.05 9.075C55.99 9.005 57 8.94501 58.07 8.88501C58.78 8.84501 59.52 8.80501 60.29 8.76501C64.11 8.57501 68.54 8.43501 73.37 8.43501C88.81 8.43501 100.26 9.855 100.26 9.855C101.34 9.855 102.31 10.295 103.02 10.995C103.73 11.705 104.16 12.675 104.16 13.755V34.945C111.41 35.195 115.11 35.455 115.11 35.455C115.93 35.455 116.73 35.495 117.52 35.575C117.92 35.615 118.31 35.665 118.7 35.715C119.57 35.845 120.41 36.015 121.24 36.225C124.54 37.075 127.56 38.585 130.12 40.625C130.7 41.085 131.26 41.585 131.8 42.095C132.33 42.615 132.84 43.155 133.32 43.725C133.8 44.295 134.26 44.885 134.68 45.495C135.32 46.415 135.89 47.385 136.38 48.395C136.71 49.065 137.01 49.765 137.28 50.475C137.98 52.345 138.43 54.335 138.62 56.415C138.68 57.105 138.71 57.815 138.71 58.525V122.265H138.72Z" fill="black"/>
<path d="M104.15 34.945V13.755C104.15 12.675 103.71 11.705 103.01 10.995C102.3 10.285 101.33 9.855 100.25 9.855C100.25 9.855 88.8 8.435 73.36 8.435C68.53 8.435 64.1 8.575 60.28 8.765C59.52 8.805 58.7801 8.845 58.0601 8.885C56.9901 8.945 55.98 9.015 55.04 9.075C49.7 9.455 46.4601 9.855 46.4601 9.855C45.3801 9.855 44.4101 10.295 43.7001 10.995C42.9901 11.705 42.5601 12.675 42.5601 13.755V34.945C49.5501 34.695 59.85 34.455 73.35 34.455C86.85 34.455 97.16 34.705 104.15 34.945Z" fill="#EBCB20"/>
<path d="M115.73 150.985H30.9902V160.545H115.73V150.985Z" fill="#EBCB20"/>
<path d="M19.8599 58.145V125.885H126.86V58.145C116.33 57.865 98.6799 57.545 73.3499 57.545C48.0399 57.545 30.3899 57.865 19.8599 58.145ZM41.3899 69.385C42.6699 67.385 45.2199 62.385 54.1599 61.385C63.0999 60.385 66.9299 62.385 66.9299 62.385C66.9299 62.385 69.6898 65.385 65.6498 65.385C61.8198 65.385 60.5399 65.385 55.4299 65.385C49.0399 65.385 46.4899 67.385 42.6599 70.385C40.6499 71.965 41.3899 69.385 41.3899 69.385ZM44.8599 84.885C44.8599 79.915 49.8899 76.885 54.8599 76.885C59.8299 76.885 64.8599 78.915 64.8599 83.885C64.8599 88.855 61.8999 81.185 54.8599 81.885C44.8599 82.885 44.8599 89.855 44.8599 84.885ZM91.2599 81.385C84.2199 80.685 81.2599 88.355 81.2599 83.385C81.2599 78.415 86.2899 76.385 91.2599 76.385C96.2299 76.385 101.26 79.415 101.26 84.385C101.26 89.355 101.26 82.385 91.2599 81.385ZM79.7599 61.885C79.7599 61.885 83.5099 59.885 92.2399 60.885C100.98 61.885 103.48 66.885 104.72 68.885C104.72 68.885 105.45 71.465 103.47 69.885C99.7198 66.885 97.2299 64.885 90.9899 64.885C85.9999 64.885 84.7499 64.885 80.9999 64.885C77.0599 64.885 79.7599 61.885 79.7599 61.885ZM91.8599 111.885C89.7199 116.925 84.1799 119.865 79.0399 121.125C70.0199 123.815 60.0499 120.855 54.8599 112.885C62.2399 117.485 69.8098 119.325 78.2198 117.375C83.1898 116.505 87.7199 115.185 91.8599 111.885Z" fill="#FFD203"/>
<path d="M73.36 57.545C98.68 57.545 116.34 57.865 126.87 58.145C134.84 58.355 138.72 58.545 138.72 58.545C138.72 57.835 138.69 57.125 138.63 56.435C138.44 54.355 137.99 52.365 137.29 50.495C137.03 49.785 136.73 49.085 136.39 48.415C135.89 47.405 135.32 46.435 134.69 45.515C134.27 44.905 133.81 44.315 133.33 43.745C132.85 43.175 132.34 42.635 131.81 42.115C131.28 41.595 130.72 41.105 130.13 40.645C127.57 38.605 124.55 37.095 121.25 36.245C120.42 36.035 119.57 35.855 118.71 35.735C118.32 35.675 117.93 35.635 117.53 35.595C116.74 35.515 115.93 35.475 115.12 35.475C115.12 35.475 111.42 35.215 104.17 34.965C97.18 34.715 86.88 34.475 73.38 34.475C59.88 34.475 49.58 34.715 42.59 34.965C35.34 35.215 31.64 35.475 31.64 35.475C25.93 35.475 20.7 37.395 16.62 40.645C16.04 41.105 15.48 41.605 14.94 42.115C10.67 46.255 8.02002 52.025 8.02002 58.545C8.02002 58.545 11.91 58.355 19.89 58.145C30.39 57.865 48.04 57.545 73.36 57.545Z" fill="#FBE770"/>
<path d="M54.8599 112.885C60.0399 120.855 70.0099 123.815 79.0399 121.125C84.1799 119.865 89.7199 116.925 91.8599 111.885C87.7199 115.185 83.1798 116.505 78.2198 117.375C69.8098 119.325 62.2399 117.485 54.8599 112.885Z" fill="black"/>
<path d="M64.8599 83.885C64.8599 78.915 59.8299 76.885 54.8599 76.885C49.8899 76.885 44.8599 79.915 44.8599 84.885C44.8599 89.855 44.8599 82.885 54.8599 81.885C61.8999 81.175 64.8599 88.855 64.8599 83.885Z" fill="black"/>
<path d="M65.6599 65.385C69.6999 65.385 66.9399 62.385 66.9399 62.385C66.9399 62.385 63.1099 60.385 54.1699 61.385C45.2299 62.385 42.6699 67.385 41.3999 69.385C41.3999 69.385 40.6599 71.965 42.6799 70.385C46.5099 67.385 49.0699 65.385 55.4499 65.385C60.5499 65.385 61.8299 65.385 65.6599 65.385Z" fill="black"/>
<path d="M91.2598 76.385C86.2898 76.385 81.2598 78.415 81.2598 83.385C81.2598 88.355 84.2198 80.685 91.2598 81.385C101.26 82.385 101.26 89.355 101.26 84.385C101.26 79.415 96.2298 76.385 91.2598 76.385Z" fill="black"/>
<path d="M81.01 64.885C84.76 64.885 86 64.885 91 64.885C97.24 64.885 99.74 66.885 103.48 69.885C105.45 71.465 104.73 68.885 104.73 68.885C103.48 66.885 100.98 61.885 92.25 60.885C83.51 59.885 79.77 61.885 79.77 61.885C79.77 61.885 77.06 64.885 81.01 64.885Z" fill="black"/>
</svg>
