<svg width="148" height="169" viewBox="0 0 148 169" fill="none" xmlns="http://www.w3.org/2000/svg">
<path d="M119.42 35.615C120.29 35.745 121.13 35.915 121.96 36.125C121.14 35.915 120.29 35.735 119.42 35.615Z" fill="#EBCB20"/>
<path d="M115.83 35.355C116.65 35.355 117.45 35.395 118.24 35.475C117.45 35.395 116.64 35.355 115.83 35.355Z" fill="#EBCB20"/>
<path d="M139.44 58.435C139.44 58.435 135.72 58.255 128.13 58.055C127.98 58.265 127.8 58.4449 127.59 58.6049V60.725C128.56 60.605 129.58 61.035 130.18 61.935C131.02 63.185 130.74 64.855 129.54 65.665C129.11 65.955 128.62 66.085 128.13 66.085C127.98 66.285 127.8 66.465 127.59 66.615V74.125C128.45 74.645 129.14 75.715 129.44 77.065C129.72 76.915 130.01 76.795 130.33 76.785C131.98 76.685 133.44 78.6249 133.59 81.1049C133.74 83.5849 132.51 85.675 130.86 85.775C130.66 85.785 130.47 85.765 130.28 85.725C130.22 87.465 129.32 88.865 128.13 88.935C127.95 88.945 127.78 88.925 127.6 88.875V94.295V119.005C127.71 118.935 127.82 118.865 127.94 118.825C128.96 118.435 130.2 119.165 130.69 120.455C131.19 121.745 130.76 123.115 129.74 123.515C129.02 123.795 128.19 123.505 127.59 122.855V125.805H125.07C125.22 126.005 125.36 126.225 125.46 126.475C126 127.885 125.35 129.445 124 129.965C122.65 130.485 121.12 129.765 120.58 128.355C120.24 127.465 120.37 126.515 120.86 125.805H39.7402C40.0102 127.135 39.5002 128.375 38.5302 128.635C37.5102 128.915 36.3702 127.995 35.9902 126.585C35.9202 126.325 35.8902 126.055 35.8802 125.805H34.3302C34.2202 125.865 34.1202 125.925 34.0102 125.975C33.2902 126.255 32.5202 126.165 31.8702 125.805H30.6802C29.9502 127.025 28.8502 127.805 27.6102 127.805C27.5702 127.805 27.5202 127.795 27.4802 127.795C28.0302 128.145 28.4902 128.785 28.7102 129.585C29.0902 130.995 28.5702 132.355 27.5402 132.635C26.5202 132.915 25.3802 131.995 25.0002 130.585C24.6202 129.175 25.1402 127.815 26.1702 127.535C26.2302 127.515 26.2802 127.525 26.3402 127.515C25.6302 127.185 25.0102 126.585 24.5402 125.805H20.6102V122.625C18.8902 122.015 17.6102 119.865 17.6102 117.305C17.6102 114.745 18.8902 112.595 20.6102 111.985V104.565C20.1902 105.065 19.6702 105.445 19.0402 105.615C16.9102 106.195 14.5402 104.275 13.7502 101.345C12.9602 98.415 14.0502 95.5649 16.1802 94.9949C17.7802 94.5649 19.5102 95.525 20.6102 97.275V58.065C12.6302 58.275 8.74023 58.465 8.74023 58.465V122.185C8.74023 128.705 11.3802 134.475 15.6602 138.615C16.1902 139.135 16.7502 139.625 17.3402 140.085C21.4202 143.335 26.6602 145.255 32.3602 145.255H115.85C116.67 145.255 117.47 145.215 118.26 145.135C118.66 145.095 119.05 145.045 119.44 144.995C123.74 144.365 127.66 142.635 130.87 140.075C131.45 139.615 132.01 139.115 132.55 138.605C133.08 138.085 133.59 137.545 134.07 136.975C134.55 136.405 135.01 135.815 135.43 135.205C136.07 134.285 136.64 133.315 137.13 132.305C138.62 129.265 139.46 125.835 139.46 122.175L139.44 58.435C139.44 57.725 139.41 57.015 139.35 56.325C139.41 57.015 139.44 57.715 139.44 58.435ZM15.5202 113.605C14.5002 113.885 13.3602 112.965 12.9802 111.555C12.6002 110.145 13.1202 108.785 14.1502 108.505C15.1702 108.225 16.3102 109.145 16.6902 110.555C17.0702 111.965 16.5502 113.325 15.5202 113.605ZM129 132.945C128.54 133.125 128.07 133.145 127.61 133.055C127.79 134.285 127.16 135.495 126 135.945C124.65 136.465 123.12 135.745 122.58 134.335C122.04 132.925 122.69 131.365 124.04 130.845C124.5 130.665 124.97 130.645 125.43 130.735C125.25 129.505 125.88 128.295 127.04 127.845C128.39 127.325 129.92 128.045 130.46 129.455C131 130.865 130.34 132.425 129 132.945Z" fill="#EBCB20"/>
<path d="M138.09 36.255C132.16 30.515 124.26 27.355 115.83 27.355H112.88V13.655C112.88 10.475 111.64 7.48496 109.39 5.23496C107.28 3.12496 104.53 1.90496 101.57 1.76496C99.3802 1.51496 88.4402 0.334961 74.0802 0.334961C59.7202 0.334961 48.7802 1.51496 46.5902 1.76496C43.6302 1.90496 40.8802 3.12496 38.7702 5.23496C36.5202 7.48496 35.2802 10.475 35.2802 13.655V27.355H32.3302C23.9002 27.355 15.9902 30.515 10.0702 36.255C4.04022 42.095 0.720215 49.975 0.720215 58.435V122.155C0.720215 130.615 4.04022 138.495 10.0702 144.335C13.9102 148.055 18.6002 150.685 23.7102 152.085V160.445V168.445H31.7102H116.45H124.45V160.445V152.085C129.56 150.695 134.25 148.065 138.09 144.335C144.12 138.495 147.44 130.615 147.44 122.155V58.435C147.44 49.975 144.12 42.095 138.09 36.255ZM116.45 160.435H31.7102V150.875H116.45V160.435ZM139.44 122.155C139.44 125.825 138.6 129.255 137.11 132.285C136.61 133.295 136.04 134.265 135.41 135.185C134.99 135.795 134.53 136.385 134.05 136.955C133.57 137.525 133.06 138.065 132.53 138.585C132 139.105 131.44 139.595 130.85 140.055C127.64 142.615 123.72 144.345 119.42 144.975C119.03 145.035 118.64 145.075 118.24 145.115C117.45 145.195 116.64 145.235 115.83 145.235H32.3402C26.6302 145.235 21.4002 143.315 17.3202 140.065C16.7402 139.605 16.1802 139.105 15.6402 138.595C11.3702 134.455 8.72021 128.685 8.72021 122.165V58.445C8.72021 51.925 11.3602 46.155 15.6402 42.015C16.1702 41.495 16.7302 41.005 17.3202 40.545C21.4002 37.295 26.6402 35.375 32.3402 35.375C32.3402 35.375 36.0402 35.115 43.2902 34.865V13.655C43.2902 12.575 43.7302 11.605 44.4302 10.895C45.1402 10.185 46.1102 9.75497 47.1902 9.75497C47.1902 9.75497 50.4202 9.35497 55.7702 8.97497C56.7102 8.90497 57.7202 8.84497 58.7902 8.78497C59.5002 8.74497 60.2402 8.70496 61.0102 8.66496C64.8302 8.47496 69.2602 8.33496 74.0902 8.33496C89.5302 8.33496 100.98 9.75497 100.98 9.75497C102.06 9.75497 103.03 10.195 103.74 10.895C104.45 11.605 104.88 12.575 104.88 13.655V34.845C112.13 35.095 115.83 35.355 115.83 35.355C116.65 35.355 117.45 35.395 118.24 35.475C118.64 35.515 119.03 35.565 119.42 35.615C120.29 35.745 121.13 35.915 121.96 36.125C125.26 36.975 128.28 38.485 130.84 40.525C131.42 40.985 131.98 41.485 132.52 41.995C133.05 42.515 133.56 43.055 134.04 43.625C134.52 44.195 134.98 44.785 135.4 45.395C136.04 46.315 136.61 47.285 137.1 48.295C137.43 48.965 137.73 49.665 138 50.375C138.7 52.245 139.15 54.235 139.34 56.315C139.4 57.005 139.43 57.715 139.43 58.425V122.155H139.44Z" fill="black"/>
<path d="M104.88 34.845V13.655C104.88 12.575 104.44 11.605 103.74 10.895C103.03 10.185 102.06 9.75497 100.98 9.75497C100.98 9.75497 89.53 8.33496 74.09 8.33496C69.26 8.33496 64.83 8.47496 61.01 8.66496C60.25 8.70496 59.51 8.74497 58.79 8.78497C57.72 8.84497 56.71 8.91497 55.77 8.97497C50.43 9.35497 47.19 9.75497 47.19 9.75497C46.11 9.75497 45.14 10.195 44.43 10.895C43.72 11.605 43.29 12.575 43.29 13.655V34.845C50.28 34.595 60.58 34.355 74.08 34.355C87.58 34.355 97.89 34.595 104.88 34.845Z" fill="#EBCB20"/>
<path d="M116.46 150.875H31.7202V160.435H116.46V150.875Z" fill="#EBCB20"/>
<path d="M23.6003 122.025C23.0103 122.495 22.3203 122.775 21.5903 122.775C21.2403 122.775 20.9103 122.705 20.5903 122.595V125.775H24.5203C23.9403 124.825 23.5903 123.615 23.5903 122.275C23.5903 122.195 23.6003 122.105 23.6003 122.025Z" fill="#FFD203"/>
<path d="M31.0202 125.085C30.9102 125.325 30.7902 125.555 30.6602 125.775H31.8502C31.5402 125.605 31.2602 125.375 31.0202 125.085Z" fill="#FFD203"/>
<path d="M126.27 59.095C126.33 59.215 126.4 59.325 126.45 59.455C126.66 59.995 126.69 60.555 126.57 61.075C126.89 60.875 127.23 60.765 127.59 60.725V58.605C127.41 58.745 127.22 58.865 127 58.945C126.76 59.035 126.52 59.075 126.27 59.095Z" fill="#FFD203"/>
<path d="M123.85 65.8549C123.26 64.9849 123.23 63.9149 123.67 63.0649C122.76 62.9049 121.95 62.2849 121.58 61.3349C121.06 59.9849 121.64 58.5049 122.87 57.9249C121.52 57.8949 120.08 57.8649 118.56 57.8349C118.87 59.1349 118.23 60.4749 117 60.9449C115.65 61.4649 114.12 60.7449 113.58 59.3349C113.38 58.8049 113.34 58.2549 113.45 57.7449C103.38 57.5749 90.3201 57.4449 74.0901 57.4449C53.8401 57.4449 38.5101 57.6549 27.7901 57.8749C27.5201 59.5549 26.2201 60.7949 24.7101 60.7349C23.3101 60.6749 22.1901 59.5149 21.9301 58.0149C21.4801 58.0249 21.0301 58.0349 20.6001 58.0449V97.2549C20.9701 97.8349 21.2601 98.5049 21.4601 99.2449C22.0201 101.325 21.6301 103.335 20.6001 104.545V111.965C20.9201 111.855 21.2501 111.785 21.6001 111.785C21.9901 111.785 22.3601 111.865 22.7101 112.005C23.1301 109.585 24.7101 107.785 26.6001 107.785C28.8101 107.785 30.6001 110.245 30.6001 113.285C30.6001 114.885 30.1001 116.315 29.3101 117.315C30.4201 118.035 31.2501 119.435 31.5101 121.125C31.6701 121.015 31.8501 120.915 32.0401 120.835C33.3901 120.315 34.9201 121.035 35.4601 122.445C35.9601 123.735 35.4501 125.145 34.3301 125.775H35.8801C35.8401 124.675 36.3301 123.735 37.1601 123.505C38.1801 123.225 39.3201 124.145 39.7001 125.555C39.7201 125.625 39.7301 125.705 39.7401 125.775H120.86C121.14 125.365 121.54 125.025 122.04 124.835C123.15 124.405 124.37 124.835 125.08 125.775H127.6V122.825C127.35 122.555 127.14 122.235 126.99 121.855C126.55 120.715 126.83 119.525 127.6 118.985V94.2749C127.6 96.7649 126.26 98.7749 124.6 98.7749C123.83 98.7749 123.13 98.3249 122.6 97.6049C122.07 98.3249 121.37 98.7749 120.6 98.7749C119.88 98.7749 119.22 98.3749 118.71 97.7349C117.98 98.9749 116.86 99.7749 115.6 99.7749C114.32 99.7749 113.18 98.9349 112.44 97.6449C112.05 99.4549 110.93 100.775 109.6 100.775C109.59 100.775 109.58 100.775 109.57 100.765C109.58 100.935 109.6 101.095 109.6 101.275C109.6 103.765 108.26 105.775 106.6 105.775C104.94 105.775 103.6 103.765 103.6 101.275C103.6 98.7849 104.94 96.7749 106.6 96.7749C106.61 96.7749 106.62 96.7749 106.63 96.7849C106.62 96.6149 106.6 96.4549 106.6 96.2749C106.6 93.7849 107.94 91.7749 109.6 91.7749C110.42 91.7749 111.16 92.2649 111.7 93.0649C112.1 90.6049 113.69 88.7749 115.6 88.7749C116.85 88.7749 117.97 89.5649 118.71 90.8149C119.23 90.1749 119.88 89.7749 120.6 89.7749C121.37 89.7749 122.07 90.2249 122.6 90.9449C123.13 90.2249 123.83 89.7749 124.6 89.7749C126.26 89.7749 127.6 91.7849 127.6 94.2749V88.8549C126.52 88.5649 125.65 87.1949 125.55 85.5049C125.48 84.3949 125.78 83.3949 126.27 82.7049C124.87 82.3749 123.73 80.6249 123.6 78.4449C123.45 75.9649 124.68 73.8749 126.33 73.7749C126.77 73.7449 127.2 73.8849 127.59 74.1249V66.6149C127.57 66.6249 127.56 66.6449 127.54 66.6549C126.34 67.4649 124.69 67.1049 123.85 65.8549ZM29.2101 71.4749C27.6601 72.0749 25.6901 70.6749 24.7901 68.3549C23.9001 66.0349 24.4301 63.6749 25.9701 63.0749C26.2801 62.9549 26.6101 62.9349 26.9401 62.9649C27.4001 61.7049 28.2701 60.8449 29.3201 60.7749C30.1801 60.7249 30.9901 61.2349 31.5801 62.0749C31.7301 61.9249 31.8901 61.8049 32.0901 61.7249C33.2001 61.2949 34.6201 62.3049 35.2701 63.9749C35.9201 65.6449 35.5301 67.3449 34.4201 67.7749C33.7601 68.0249 33.0001 67.7749 32.3501 67.1849C32.0401 68.2649 31.4501 69.1049 30.7001 69.5049C30.4901 70.4449 29.9701 71.1749 29.2101 71.4749ZM34.5901 119.775C32.3801 119.775 30.5901 117.315 30.5901 114.275C30.5901 111.235 32.3801 108.775 34.5901 108.775C36.8001 108.775 38.5901 111.235 38.5901 114.275C38.5901 117.315 36.8001 119.775 34.5901 119.775ZM118.03 99.8349C119.38 99.3149 120.91 100.035 121.45 101.445C121.99 102.855 121.34 104.415 119.99 104.935C118.64 105.455 117.11 104.735 116.57 103.325C116.03 101.915 116.68 100.355 118.03 99.8349ZM41.0901 69.2749C42.0901 67.2749 44.0901 62.2749 51.0901 61.2749C58.0901 60.2749 61.0901 62.2749 61.0901 62.2749C61.0901 62.2749 63.2501 65.2749 60.0901 65.2749C57.0901 65.2749 56.0901 65.2749 52.0901 65.2749C47.0901 65.2749 45.0901 67.2749 42.0901 70.2749C40.5101 71.8549 41.0901 69.2749 41.0901 69.2749ZM45.5901 85.7749C45.5901 80.8049 49.6201 76.7749 54.5901 76.7749C59.5601 76.7749 63.5901 80.8049 63.5901 85.7749C63.5901 90.7449 59.5601 94.7749 54.5901 94.7749C49.6201 94.7749 45.5901 90.7449 45.5901 85.7749ZM80.7501 120.625C74.5901 122.725 66.6701 122.995 62.0401 117.695C60.9501 116.485 60.0001 115.235 59.2201 113.835C62.0201 115.365 64.5801 117.045 67.2001 117.695C71.1001 118.705 75.6801 117.875 79.6901 117.045C84.1001 116.115 87.6901 113.725 91.0901 110.785C89.4001 115.435 85.4701 119.115 80.7501 120.625ZM94.0901 96.7749C88.8401 96.7749 84.5901 92.5249 84.5901 87.2749C84.5901 82.0249 88.8401 77.7749 94.0901 77.7749C99.3401 77.7749 103.59 82.0249 103.59 87.2749C103.59 92.5249 99.3401 96.7749 94.0901 96.7749ZM106.71 69.7749C103.71 66.7749 101.71 64.7749 96.7101 64.7749C92.7101 64.7749 91.7101 64.7749 88.7101 64.7749C85.5501 64.7749 87.7101 61.7749 87.7101 61.7749C87.7101 61.7749 90.7101 59.7749 97.7101 60.7749C104.71 61.7749 106.71 66.7749 107.71 68.7749C107.71 68.7749 108.29 71.3549 106.71 69.7749Z" fill="#FFD203"/>
<path d="M21.9202 58.005C21.8702 57.725 21.8402 57.445 21.8502 57.145C21.9302 55.235 23.3402 53.745 24.9902 53.815C26.6502 53.885 27.9202 55.485 27.8402 57.395C27.8302 57.555 27.8002 57.715 27.7802 57.865C38.5002 57.635 53.8302 57.435 74.0802 57.435C90.3002 57.435 103.37 57.565 113.44 57.735C113.62 56.885 114.19 56.155 115.03 55.835C115.27 55.745 115.51 55.705 115.75 55.685C115.69 55.565 115.62 55.455 115.57 55.325C115.03 53.915 115.68 52.355 117.03 51.835C118.38 51.315 119.91 52.035 120.45 53.445C120.99 54.855 120.34 56.415 118.99 56.935C118.75 57.025 118.51 57.065 118.27 57.085C118.33 57.205 118.4 57.315 118.45 57.445C118.5 57.565 118.53 57.695 118.56 57.825C120.08 57.855 121.52 57.885 122.87 57.915C122.93 57.885 122.98 57.855 123.03 57.835C123.27 57.745 123.51 57.705 123.75 57.685C123.69 57.565 123.62 57.455 123.57 57.325C123.03 55.915 123.68 54.355 125.03 53.835C126.38 53.315 127.91 54.035 128.45 55.445C128.8 56.355 128.65 57.325 128.13 58.045C135.72 58.255 139.44 58.425 139.44 58.425C139.44 57.715 139.41 57.005 139.35 56.315C139.16 54.235 138.71 52.245 138.01 50.375C137.75 49.665 137.45 48.965 137.11 48.295C136.61 47.285 136.04 46.315 135.41 45.395C134.99 44.785 134.53 44.195 134.05 43.625C133.57 43.055 133.06 42.515 132.53 41.995C132 41.475 131.44 40.985 130.85 40.525C128.29 38.485 125.27 36.975 121.97 36.125C121.14 35.915 120.29 35.735 119.43 35.615C119.04 35.555 118.65 35.515 118.25 35.475C117.46 35.395 116.65 35.355 115.84 35.355C115.84 35.355 112.14 35.095 104.89 34.845C97.9002 34.595 87.6002 34.355 74.1002 34.355C60.6002 34.355 50.3002 34.595 43.3102 34.845C36.0602 35.095 32.3602 35.355 32.3602 35.355C26.6502 35.355 21.4202 37.275 17.3402 40.525C16.7602 40.985 16.2002 41.485 15.6602 41.995C11.3902 46.135 8.74023 51.905 8.74023 58.425C8.74023 58.425 12.6302 58.235 20.6102 58.025C21.0202 58.025 21.4702 58.015 21.9202 58.005ZM31.9702 53.435C32.5002 51.595 34.2202 50.485 35.8102 50.945C37.4002 51.405 38.2602 53.265 37.7302 55.105C37.2002 56.945 35.4802 58.055 33.8902 57.595C32.3002 57.135 31.4402 55.275 31.9702 53.435Z" fill="#FBE770"/>
<path d="M63.5903 85.775C63.5903 80.805 59.5603 76.775 54.5903 76.775C49.6203 76.775 45.5903 80.805 45.5903 85.775C45.5903 90.745 49.6203 94.775 54.5903 94.775C59.5603 94.775 63.5903 90.745 63.5903 85.775ZM55.0903 87.775C53.1603 87.775 51.5903 86.205 51.5903 84.275C51.5903 82.345 53.1603 80.775 55.0903 80.775C57.0203 80.775 58.5903 82.345 58.5903 84.275C58.5903 86.205 57.0203 87.775 55.0903 87.775Z" fill="black"/>
<path d="M94.0903 77.775C88.8403 77.775 84.5903 82.025 84.5903 87.275C84.5903 92.525 88.8403 96.775 94.0903 96.775C99.3403 96.775 103.59 92.525 103.59 87.275C103.59 82.025 99.3403 77.775 94.0903 77.775ZM94.0903 88.775C92.1603 88.775 90.5903 87.205 90.5903 85.275C90.5903 83.345 92.1603 81.775 94.0903 81.775C96.0203 81.775 97.5903 83.345 97.5903 85.275C97.5903 87.205 96.0203 88.775 94.0903 88.775Z" fill="black"/>
<path d="M60.0903 65.275C63.2503 65.275 61.0903 62.275 61.0903 62.275C61.0903 62.275 58.0903 60.275 51.0903 61.275C44.0903 62.275 42.0903 67.275 41.0903 69.275C41.0903 69.275 40.5103 71.855 42.0903 70.275C45.0903 67.275 47.0903 65.275 52.0903 65.275C56.0903 65.275 57.0903 65.275 60.0903 65.275Z" fill="black"/>
<path d="M97.7102 60.775C90.7102 59.775 87.7102 61.775 87.7102 61.775C87.7102 61.775 85.5502 64.775 88.7102 64.775C91.7102 64.775 92.7102 64.775 96.7102 64.775C101.71 64.775 103.71 66.775 106.71 69.775C108.29 71.355 107.71 68.775 107.71 68.775C106.71 66.775 104.71 61.775 97.7102 60.775Z" fill="black"/>
<path d="M67.19 117.695C64.57 117.055 62.01 115.365 59.21 113.835C59.99 115.235 60.94 116.485 62.03 117.695C66.66 122.995 74.59 122.725 80.74 120.625C85.47 119.125 89.4 115.435 91.08 110.785C87.68 113.725 84.09 116.115 79.68 117.045C75.67 117.875 71.09 118.695 67.19 117.695Z" fill="black"/>
<path d="M55.0903 87.775C57.0233 87.775 58.5903 86.208 58.5903 84.275C58.5903 82.342 57.0233 80.775 55.0903 80.775C53.1573 80.775 51.5903 82.342 51.5903 84.275C51.5903 86.208 53.1573 87.775 55.0903 87.775Z" fill="white"/>
<path d="M94.0903 88.775C96.0233 88.775 97.5903 87.208 97.5903 85.275C97.5903 83.342 96.0233 81.775 94.0903 81.775C92.1573 81.775 90.5903 83.342 90.5903 85.275C90.5903 87.208 92.1573 88.775 94.0903 88.775Z" fill="white"/>
<path d="M124.59 89.775C123.82 89.775 123.12 90.225 122.59 90.945C122.06 90.225 121.36 89.775 120.59 89.775C119.87 89.775 119.21 90.175 118.7 90.815C117.97 89.575 116.85 88.775 115.59 88.775C113.68 88.775 112.09 90.615 111.69 93.065C111.15 92.265 110.41 91.775 109.59 91.775C107.93 91.775 106.59 93.785 106.59 96.275C106.59 96.445 106.61 96.615 106.62 96.785C106.61 96.785 106.6 96.775 106.59 96.775C104.93 96.775 103.59 98.785 103.59 101.275C103.59 103.765 104.93 105.775 106.59 105.775C108.25 105.775 109.59 103.765 109.59 101.275C109.59 101.105 109.57 100.935 109.56 100.765C109.57 100.765 109.58 100.775 109.59 100.775C110.93 100.775 112.05 99.455 112.43 97.645C113.16 98.935 114.3 99.775 115.59 99.775C116.84 99.775 117.96 98.985 118.7 97.735C119.22 98.375 119.87 98.775 120.59 98.775C121.36 98.775 122.06 98.3249 122.59 97.6049C123.12 98.3249 123.82 98.775 124.59 98.775C126.25 98.775 127.59 96.765 127.59 94.275C127.59 91.785 126.25 89.775 124.59 89.775Z" fill="#736357"/>
<path d="M32.3604 67.185C33.0104 67.775 33.7704 68.025 34.4304 67.775C35.5404 67.345 35.9204 65.645 35.2804 63.975C34.6404 62.305 33.2204 61.305 32.1004 61.725C31.9104 61.795 31.7404 61.925 31.5904 62.075C30.9904 61.235 30.1904 60.725 29.3304 60.775C28.2804 60.835 27.4104 61.705 26.9504 62.965C26.6204 62.935 26.2904 62.955 25.9804 63.075C24.4304 63.675 23.9004 66.035 24.8004 68.355C25.6904 70.675 27.6704 72.075 29.2204 71.475C29.9904 71.175 30.5004 70.445 30.7204 69.505C31.4604 69.105 32.0504 68.265 32.3604 67.185Z" fill="#736357"/>
<path d="M126.98 121.855C127.13 122.235 127.34 122.555 127.59 122.825C128.19 123.475 129.01 123.765 129.74 123.485C130.76 123.095 131.19 121.725 130.69 120.425C130.19 119.125 128.96 118.395 127.94 118.795C127.82 118.845 127.7 118.905 127.6 118.975C126.82 119.525 126.55 120.715 126.98 121.855Z" fill="#736357"/>
<path d="M122.03 124.835C121.53 125.025 121.13 125.365 120.85 125.775C120.36 126.485 120.23 127.435 120.57 128.325C121.11 129.735 122.65 130.455 123.99 129.935C125.34 129.415 125.99 127.855 125.45 126.445C125.35 126.195 125.22 125.975 125.06 125.775C124.36 124.835 123.14 124.405 122.03 124.835Z" fill="#736357"/>
<path d="M127.03 127.835C125.87 128.285 125.23 129.495 125.42 130.725C124.97 130.635 124.49 130.655 124.03 130.835C122.68 131.355 122.03 132.915 122.57 134.325C123.11 135.735 124.65 136.455 125.99 135.935C127.15 135.485 127.79 134.275 127.6 133.045C128.05 133.135 128.53 133.115 128.99 132.935C130.34 132.415 130.99 130.855 130.45 129.445C129.91 128.035 128.38 127.315 127.03 127.835Z" fill="#736357"/>
<path d="M35.4503 122.445C34.9103 121.035 33.3703 120.315 32.0303 120.835C31.8403 120.905 31.6603 121.005 31.5003 121.125C31.2403 119.435 30.4103 118.035 29.3003 117.315C30.0903 116.315 30.5903 114.875 30.5903 113.285C30.5903 110.245 28.8003 107.785 26.5903 107.785C24.7003 107.785 23.1203 109.585 22.7003 112.005C22.3503 111.865 21.9703 111.785 21.5903 111.785C21.2403 111.785 20.9103 111.855 20.5903 111.965C18.8703 112.575 17.5903 114.725 17.5903 117.285C17.5903 119.845 18.8703 121.995 20.5903 122.605C20.9103 122.715 21.2403 122.785 21.5903 122.785C22.3203 122.785 23.0103 122.505 23.6003 122.035C23.6003 122.115 23.5903 122.205 23.5903 122.285C23.5903 123.625 23.9503 124.835 24.5203 125.785C24.9903 126.565 25.6003 127.165 26.3203 127.495C26.2603 127.505 26.2103 127.505 26.1503 127.515C25.1303 127.795 24.6003 129.155 24.9803 130.565C25.3603 131.975 26.5003 132.885 27.5203 132.615C28.5403 132.335 29.0703 130.975 28.6903 129.565C28.4703 128.765 28.0103 128.125 27.4603 127.775C27.5003 127.775 27.5503 127.785 27.5903 127.785C28.8303 127.785 29.9303 127.005 30.6603 125.785C30.7903 125.565 30.9103 125.345 31.0203 125.095C31.2503 125.385 31.5403 125.615 31.8503 125.785C32.5003 126.135 33.2703 126.225 33.9903 125.955C34.1103 125.915 34.2103 125.845 34.3103 125.785C35.4403 125.145 35.9503 123.735 35.4503 122.445Z" fill="#736357"/>
<path d="M120 104.945C121.35 104.425 122 102.865 121.46 101.455C120.92 100.045 119.38 99.325 118.04 99.845C116.7 100.365 116.04 101.925 116.58 103.335C117.12 104.735 118.65 105.465 120 104.945Z" fill="#736357"/>
<path d="M113.57 59.325C114.11 60.735 115.65 61.455 116.99 60.935C118.22 60.465 118.86 59.125 118.55 57.825C118.52 57.695 118.49 57.575 118.44 57.445C118.39 57.315 118.32 57.205 118.26 57.085C118.5 57.065 118.75 57.025 118.98 56.935C120.33 56.415 120.98 54.855 120.44 53.445C119.9 52.035 118.36 51.315 117.02 51.835C115.68 52.355 115.02 53.915 115.56 55.325C115.61 55.455 115.68 55.565 115.74 55.685C115.5 55.705 115.25 55.745 115.02 55.835C114.18 56.155 113.61 56.885 113.43 57.735C113.33 58.245 113.37 58.795 113.57 59.325Z" fill="#736357"/>
<path d="M128.45 55.445C127.91 54.035 126.37 53.315 125.03 53.835C123.69 54.355 123.03 55.915 123.57 57.325C123.62 57.455 123.69 57.565 123.75 57.685C123.51 57.705 123.26 57.745 123.03 57.835C122.97 57.855 122.92 57.895 122.87 57.915C121.64 58.495 121.06 59.975 121.58 61.325C121.95 62.275 122.76 62.905 123.67 63.055C123.23 63.905 123.26 64.975 123.85 65.845C124.69 67.095 126.35 67.455 127.55 66.655C127.57 66.645 127.58 66.625 127.6 66.615C127.81 66.465 127.99 66.285 128.14 66.085C128.63 66.085 129.12 65.955 129.55 65.665C130.75 64.855 131.03 63.185 130.19 61.935C129.59 61.035 128.57 60.605 127.6 60.725C127.25 60.765 126.9 60.885 126.58 61.075C126.7 60.555 126.67 59.995 126.46 59.455C126.41 59.325 126.34 59.215 126.28 59.095C126.52 59.075 126.77 59.035 127 58.945C127.22 58.865 127.41 58.735 127.59 58.605C127.8 58.445 127.98 58.265 128.13 58.055C128.65 57.335 128.8 56.365 128.45 55.445Z" fill="#736357"/>
<path d="M33.8904 57.595C35.4804 58.055 37.2005 56.935 37.7305 55.105C38.2605 53.265 37.4004 51.405 35.8104 50.945C34.2204 50.485 32.5004 51.605 31.9704 53.435C31.4404 55.275 32.3004 57.135 33.8904 57.595Z" fill="#736357"/>
<path d="M24.7001 60.725C26.2201 60.785 27.5101 59.535 27.7801 57.865C27.8101 57.715 27.8301 57.555 27.8401 57.395C27.9201 55.485 26.6401 53.885 24.9901 53.815C23.3301 53.745 21.9301 55.235 21.8501 57.145C21.8401 57.445 21.8701 57.725 21.9201 58.005C22.1901 59.505 23.3101 60.665 24.7001 60.725Z" fill="#736357"/>
<path d="M123.6 78.455C123.73 80.635 124.87 82.3849 126.27 82.7149C125.77 83.3949 125.48 84.395 125.55 85.515C125.65 87.205 126.52 88.575 127.6 88.865C127.77 88.915 127.95 88.935 128.13 88.925C129.33 88.855 130.23 87.4549 130.28 85.7149C130.47 85.7549 130.67 85.785 130.86 85.765C132.51 85.665 133.74 83.575 133.59 81.095C133.44 78.615 131.98 76.685 130.33 76.775C130.01 76.795 129.72 76.905 129.44 77.055C129.15 75.715 128.45 74.645 127.59 74.115C127.2 73.875 126.77 73.745 126.33 73.765C124.67 73.885 123.45 75.975 123.6 78.455Z" fill="#736357"/>
<path d="M34.5903 119.775C36.7995 119.775 38.5903 117.313 38.5903 114.275C38.5903 111.237 36.7995 108.775 34.5903 108.775C32.3812 108.775 30.5903 111.237 30.5903 114.275C30.5903 117.313 32.3812 119.775 34.5903 119.775Z" fill="#736357"/>
<path d="M21.45 99.235C21.25 98.505 20.96 97.835 20.59 97.245C19.49 95.495 17.76 94.535 16.16 94.965C14.03 95.545 12.94 98.385 13.73 101.315C14.52 104.245 16.89 106.155 19.02 105.585C19.64 105.415 20.16 105.035 20.59 104.535C21.62 103.325 22.01 101.305 21.45 99.235Z" fill="#736357"/>
<path d="M37.1504 123.505C36.3204 123.725 35.8304 124.675 35.8704 125.775C35.8804 126.025 35.9104 126.295 35.9804 126.555C36.3604 127.965 37.5004 128.875 38.5204 128.605C39.4904 128.345 40.0004 127.105 39.7304 125.775C39.7104 125.705 39.7104 125.625 39.6904 125.555C39.3104 124.145 38.1704 123.235 37.1504 123.505Z" fill="#736357"/>
<path d="M14.1501 108.505C13.1301 108.785 12.6001 110.145 12.9801 111.555C13.3601 112.965 14.5001 113.875 15.5201 113.605C16.5401 113.325 17.0701 111.965 16.6901 110.555C16.3101 109.145 15.1701 108.235 14.1501 108.505Z" fill="#736357"/>
</svg>
