<svg width="41" height="40" viewBox="0 0 41 40" fill="none" xmlns="http://www.w3.org/2000/svg">
<rect x="0.410156" width="40" height="40" rx="20" fill="#121029"/>
<path d="M16.5402 26.284H13.7682V17.413H16.5402V26.284ZM15.0842 16.304H15.0642C14.0612 16.304 13.4102 15.624 13.4102 14.766C13.4102 13.89 14.0802 13.226 15.1042 13.226C16.1262 13.226 16.7552 13.888 16.7752 14.763C16.7752 15.623 16.1252 16.304 15.0842 16.304ZM27.6322 26.284H24.4902V21.694C24.4902 20.492 24.0002 19.673 22.9172 19.673C22.0892 19.673 21.6302 20.226 21.4172 20.759C21.3372 20.949 21.3482 21.217 21.3482 21.484V26.284H18.2332C18.2332 26.284 18.2732 18.152 18.2332 17.413H21.3472V18.805C21.5312 18.196 22.5272 17.327 24.1152 17.327C26.0852 17.327 27.6322 18.603 27.6322 21.351V26.284Z" fill="white"/>
</svg>
