<svg width="18" height="18" viewBox="0 0 18 18" fill="none" xmlns="http://www.w3.org/2000/svg">
<path fill-rule="evenodd" clip-rule="evenodd" d="M8.10005 3.15001C6.78723 3.15001 5.52818 3.67152 4.59987 4.59983C3.67157 5.52813 3.15005 6.78718 3.15005 8.10001C3.15005 9.41283 3.67157 10.6719 4.59987 11.6002C5.52818 12.5285 6.78723 13.05 8.10005 13.05C9.41287 13.05 10.6719 12.5285 11.6002 11.6002C12.5285 10.6719 13.05 9.41283 13.05 8.10001C13.05 6.78718 12.5285 5.52813 11.6002 4.59983C10.6719 3.67152 9.41287 3.15001 8.10005 3.15001ZM1.80005 8.10001C1.80013 7.09261 2.0418 6.09992 2.50478 5.20521C2.96775 4.3105 3.63853 3.53987 4.46086 2.95794C5.28318 2.37602 6.23306 1.99978 7.23083 1.86079C8.22859 1.7218 9.24514 1.8241 10.1952 2.15913C11.1453 2.49415 12.0011 3.05212 12.691 3.78623C13.3809 4.52034 13.8846 5.40919 14.16 6.37821C14.4355 7.34723 14.4745 8.36816 14.2738 9.35538C14.0732 10.3426 13.6387 11.2673 13.0068 12.0519L16.002 15.048C16.0684 15.1098 16.1216 15.1843 16.1585 15.2671C16.1953 15.3499 16.2152 15.4393 16.2168 15.5299C16.2184 15.6206 16.2017 15.7106 16.1678 15.7946C16.1338 15.8787 16.0833 15.955 16.0192 16.0191C15.9551 16.0832 15.8787 16.1338 15.7947 16.1677C15.7106 16.2017 15.6206 16.2183 15.53 16.2167C15.4393 16.2151 15.35 16.1953 15.2672 16.1584C15.1844 16.1215 15.1098 16.0683 15.048 16.002L12.0519 13.0068C11.1263 13.7524 10.0087 14.2209 8.82815 14.3582C7.64759 14.4956 6.45226 14.2962 5.3802 13.7831C4.30815 13.27 3.4031 12.4641 2.7696 11.4584C2.13609 10.4528 1.79997 9.28853 1.80005 8.10001Z" fill="black"/>
</svg>
