<svg width="18" height="20" viewBox="0 0 18 20" fill="none" xmlns="http://www.w3.org/2000/svg">
<g clip-path="url(#clip0_416_6170)">
<path d="M9.03711 19.9995C7.47135 19.9995 5.90598 19.9995 4.34022 19.9995C4.10356 19.9995 3.98977 19.8869 3.98859 19.646C3.98701 19.3094 3.98859 18.9731 3.98819 18.6365C3.98819 18.3132 3.98464 17.9895 3.98977 17.6661C3.99135 17.5712 3.95856 17.5406 3.86413 17.5237C2.32247 17.2479 1.29365 16.3741 0.787135 14.9008C0.66505 14.5457 0.622775 14.1761 0.622775 13.801C0.623565 11.5437 0.596699 9.28602 0.631072 7.02953C0.653988 5.52756 1.40783 4.43168 2.7389 3.73249C3.27465 3.45116 3.85742 3.34013 4.46231 3.34091C4.81434 3.34091 5.16597 3.34091 5.518 3.34013C5.62099 3.34013 5.67248 3.29016 5.67248 3.19024C5.67288 2.5499 5.67011 1.90956 5.67446 1.26962C5.67841 0.721092 5.93996 0.328727 6.43936 0.104687C6.57923 0.0419089 6.74359 0.00620368 6.89688 0.00541895C8.32436 -0.00164361 9.75184 -0.00125125 11.1793 0.0026724C11.8356 0.00424186 12.3942 0.556299 12.4009 1.20959C12.4077 1.87582 12.4029 2.54245 12.4029 3.20868C12.4029 3.33973 12.4037 3.33934 12.5329 3.3413C13.0457 3.34915 13.5633 3.3158 14.0702 3.37387C15.4977 3.53709 16.5131 4.29867 17.1291 5.58131C17.3586 6.05882 17.4562 6.57046 17.4558 7.10133C17.4542 9.33546 17.457 11.57 17.4542 13.8045C17.4522 15.4124 16.4392 16.8269 14.9082 17.355C14.683 17.4327 14.4452 17.477 14.2101 17.5237C14.1204 17.5414 14.0904 17.5708 14.0908 17.661C14.0939 18.3077 14.0935 18.9547 14.0908 19.6013C14.0908 19.6715 14.0785 19.7453 14.0556 19.8116C14.0066 19.9532 13.9319 19.9999 13.783 20.0003C12.201 20.0003 10.6191 20.0003 9.03672 20.0003L9.03711 19.9995ZM9.05213 4.18175C7.52587 4.18175 5.99962 4.18253 4.47337 4.18136C4.0846 4.18136 3.7061 4.23472 3.34419 4.3795C2.17787 4.84563 1.46196 5.89834 1.46156 7.14802C1.46077 9.23226 1.46077 11.3165 1.45998 13.4007C1.45998 13.8025 1.45998 14.202 1.571 14.5959C1.92303 15.8405 3.09093 16.7272 4.39712 16.7272C7.48241 16.7276 10.5677 16.7296 13.653 16.7233C13.9003 16.7229 14.1536 16.6903 14.3938 16.6315C15.6917 16.3125 16.6127 15.1468 16.6158 13.8186C16.621 11.5743 16.6221 9.32996 16.6146 7.08603C16.6119 6.28129 16.3104 5.58798 15.732 5.02337C15.1508 4.45601 14.4452 4.18136 13.6301 4.18175C12.1038 4.18253 10.5776 4.18175 9.05133 4.18175H9.05213ZM9.0383 17.5657C7.6768 17.5657 6.3153 17.5665 4.95381 17.5637C4.85543 17.5637 4.82303 17.59 4.82382 17.6905C4.82856 18.1574 4.82579 18.6247 4.82579 19.0916C4.82579 19.2325 4.82856 19.236 4.96724 19.236C5.72345 19.236 6.48006 19.236 7.23627 19.236C9.19633 19.236 11.1564 19.236 13.1165 19.236C13.2445 19.236 13.2488 19.2313 13.2492 19.103C13.2492 18.6392 13.2492 18.1754 13.2492 17.7117C13.2492 17.6143 13.2005 17.5657 13.103 17.5657C11.7483 17.5657 10.3931 17.5657 9.0383 17.5657ZM9.03711 3.33973C9.83955 3.33973 10.6416 3.33856 11.444 3.3413C11.5373 3.3413 11.5685 3.3158 11.5681 3.21967C11.5641 2.59267 11.5665 1.96567 11.5665 1.33867C11.5665 0.995747 11.4041 0.833308 11.0604 0.833308C10.1955 0.833308 9.33067 0.832916 8.4658 0.833308C7.96601 0.833308 7.46621 0.830954 6.96642 0.837624C6.67207 0.841548 6.51562 1.01026 6.51562 1.30336C6.51522 1.93703 6.51562 2.57031 6.51562 3.20398C6.51562 3.29422 6.56052 3.33947 6.65034 3.33973C7.44606 3.33973 8.24179 3.33973 9.03751 3.33973H9.03711Z" fill="black"/>
<path d="M9.05233 4.18216C10.5786 4.18216 12.1048 4.18255 13.6311 4.18216C14.4462 4.18216 15.1518 4.45642 15.733 5.02378C16.3114 5.58839 16.6129 6.2817 16.6156 7.08644C16.6231 9.33077 16.6216 11.5751 16.6168 13.819C16.6141 15.1472 15.6931 16.3129 14.3948 16.6319C14.1546 16.6907 13.9013 16.7233 13.654 16.7237C10.5687 16.7296 7.48341 16.728 4.39812 16.7276C3.09193 16.7276 1.92403 15.8409 1.572 14.5963C1.46059 14.2024 1.46059 13.8029 1.46098 13.4012C1.46177 11.3169 1.46177 9.23267 1.46256 7.14843C1.46296 5.89875 2.17847 4.84565 3.34519 4.37991C3.7071 4.23513 4.0856 4.18137 4.47437 4.18176C6.00062 4.18333 7.52687 4.18216 9.05312 4.18255L9.05233 4.18216ZM8.87059 14.2153C9.61416 14.2161 10.1712 14.1039 10.7038 13.8771C11.1926 13.6687 11.6256 13.3768 12.0033 13.0049C12.1301 12.8801 12.1669 12.7283 12.1131 12.5635C12.0626 12.4089 11.946 12.3151 11.7832 12.2872C11.6141 12.2582 11.4877 12.3367 11.3708 12.4489C10.3336 13.4459 8.74337 13.668 7.4684 12.997C7.16971 12.8401 6.9042 12.64 6.65964 12.4085C6.43878 12.1993 6.10809 12.257 5.98008 12.5199C5.8979 12.6894 5.93859 12.875 6.09584 13.0261C6.91566 13.8112 7.89945 14.1977 8.8702 14.2153H8.87059ZM7.35106 9.19893C7.35027 8.73516 6.97492 8.35966 6.51306 8.36123C6.05277 8.3628 5.67664 8.73437 5.67388 9.18951C5.67111 9.65682 6.04803 10.037 6.51345 10.037C6.97572 10.037 7.35145 9.66074 7.35106 9.19893ZM12.4027 9.19893C12.4031 8.73673 12.0254 8.35927 11.5643 8.36162C11.1005 8.36398 10.7232 8.74065 10.7248 9.20011C10.7264 9.66192 11.1045 10.0382 11.5655 10.0374C12.029 10.0362 12.4023 9.66271 12.4027 9.19893Z" fill="#FED700"/>
<path d="M9.03873 17.5658C10.3935 17.5658 11.7487 17.5658 13.1035 17.5658C13.2007 17.5658 13.2494 17.6145 13.2496 17.7118C13.2496 18.1755 13.2496 18.6393 13.2496 19.1031C13.2496 19.2314 13.2449 19.2361 13.1169 19.2361C11.1568 19.2361 9.19676 19.2361 7.2367 19.2361C6.48049 19.2361 5.72388 19.2361 4.96767 19.2361C4.82899 19.2361 4.82623 19.2326 4.82623 19.0917C4.82623 18.6248 4.82899 18.1575 4.82425 17.6906C4.82306 17.5901 4.85586 17.5635 4.95424 17.5638C6.31573 17.5666 7.67723 17.5658 9.03873 17.5658Z" fill="#FED700"/>
<path d="M9.03703 3.34016C8.24131 3.34016 7.44559 3.34016 6.64986 3.34016C6.56031 3.34016 6.5154 3.29491 6.51514 3.2044C6.51514 2.57073 6.51514 1.93745 6.51514 1.30379C6.51514 1.0103 6.67199 0.841973 6.96594 0.838049C7.46574 0.831379 7.96553 0.834125 8.46533 0.833733C9.33019 0.833341 10.1951 0.833733 11.0599 0.833733C11.4036 0.833733 11.566 0.996172 11.566 1.3391C11.566 1.9661 11.5641 2.5931 11.5676 3.22009C11.568 3.31622 11.5368 3.34212 11.4436 3.34173C10.6411 3.33859 9.83907 3.34016 9.03663 3.34016H9.03703Z" fill="#FED700"/>
<path d="M8.87081 14.2154C7.90006 14.1978 6.91628 13.8113 6.09645 13.0262C5.93881 12.8755 5.89812 12.6895 5.98069 12.52C6.10831 12.2571 6.439 12.1995 6.66025 12.4086C6.90482 12.6397 7.17032 12.8398 7.46901 12.9971C8.74438 13.6681 10.3342 13.446 11.3714 12.449C11.4883 12.3364 11.6147 12.2583 11.7838 12.2873C11.9462 12.3152 12.0632 12.409 12.1137 12.5636C12.1675 12.7284 12.1307 12.8802 12.0039 13.005C11.6262 13.3769 11.1932 13.6689 10.7044 13.8772C10.1719 14.104 9.61477 14.2162 8.87121 14.2154H8.87081Z" fill="black"/>
<path d="M7.35127 9.19903C7.35206 9.66084 6.97593 10.0371 6.51366 10.0371C6.04824 10.0371 5.67132 9.65692 5.67409 9.18961C5.67685 8.73447 6.05298 8.3629 6.51327 8.36133C6.97513 8.35976 7.35087 8.73486 7.35127 9.19903Z" fill="black"/>
<path d="M12.4026 9.19864C12.4022 9.66242 12.0288 10.036 11.5654 10.0371C11.1043 10.0383 10.7262 9.66164 10.7246 9.19982C10.723 8.74036 11.1 8.36369 11.5642 8.36134C12.0253 8.35898 12.403 8.73644 12.4026 9.19864Z" fill="black"/>
</g>
<defs>
<clipPath id="clip0_416_6170">
<rect width="16.8421" height="20" fill="white" transform="translate(0.614014)"/>
</clipPath>
</defs>
</svg>
