<svg width="32" height="38" viewBox="0 0 32 38" fill="none" xmlns="http://www.w3.org/2000/svg">
<g clip-path="url(#clip0_416_6162)">
<path d="M16.0043 37.9992C13.0294 37.9992 10.0552 37.9992 7.08024 37.9992C6.63058 37.9992 6.41438 37.7853 6.41213 37.3275C6.40913 36.6879 6.41213 36.049 6.41138 35.4094C6.41138 34.7951 6.40462 34.1801 6.41438 33.5658C6.41739 33.3854 6.35508 33.3272 6.17567 33.2952C3.24651 32.7711 1.29174 31.1109 0.329369 28.3115C0.097409 27.6369 0.0170862 26.9346 0.0170862 26.2219C0.0185876 21.9331 -0.0324587 17.6435 0.0328505 13.3562C0.07639 10.5025 1.50869 8.42031 4.03773 7.09184C5.05565 6.55732 6.16291 6.34635 7.3122 6.34784C7.98105 6.34784 8.64916 6.34784 9.31802 6.34635C9.51369 6.34635 9.61153 6.25142 9.61153 6.06157C9.61228 4.84493 9.60703 3.62828 9.61529 2.41238C9.62279 1.37018 10.1197 0.624692 11.0686 0.199016C11.3343 0.0797367 11.6466 0.0118969 11.9379 0.0104059C14.6501 -0.003013 17.3623 -0.00226751 20.0745 0.00518742C21.3214 0.00816939 22.3829 1.05708 22.3956 2.29832C22.4084 3.56417 22.3994 4.83076 22.3994 6.09661C22.3994 6.3456 22.4009 6.34486 22.6463 6.34859C23.6207 6.3635 24.6041 6.30013 25.5672 6.41046C28.2795 6.72059 30.2087 8.16759 31.379 10.6046C31.8152 11.5119 32.0006 12.484 31.9998 13.4926C31.9968 17.7375 32.0021 21.9831 31.9968 26.2286C31.9931 29.2837 30.0683 31.9712 27.1594 32.9746C26.7315 33.1222 26.2796 33.2065 25.833 33.2952C25.6626 33.3287 25.6055 33.3846 25.6063 33.5561C25.6123 34.7847 25.6115 36.014 25.6063 37.2425C25.6063 37.376 25.583 37.5161 25.5395 37.6421C25.4464 37.9113 25.3045 38 25.0215 38.0007C22.0158 38.0007 19.0101 38.0007 16.0036 38.0007L16.0043 37.9992ZM16.0329 7.94543C13.133 7.94543 10.2331 7.94692 7.33322 7.94468C6.59455 7.94468 5.8754 8.04607 5.18777 8.32116C2.97176 9.2068 1.61153 11.207 1.61078 13.5814C1.60928 17.5414 1.60928 21.5015 1.60778 25.4615C1.60778 26.2249 1.60778 26.9838 1.81872 27.7323C2.48758 30.097 4.70659 31.7818 7.18834 31.7818C13.0504 31.7826 18.9125 31.7863 24.7745 31.7744C25.2445 31.7736 25.7256 31.7117 26.182 31.5999C28.648 30.9938 30.3979 28.779 30.4039 26.2555C30.4136 21.9913 30.4159 17.727 30.4016 13.4636C30.3964 11.9346 29.8236 10.6173 28.7246 9.54451C27.6204 8.46653 26.2796 7.94469 24.731 7.94543C21.8311 7.94692 18.9312 7.94543 16.0314 7.94543H16.0329ZM16.0066 33.3749C13.4197 33.3749 10.8329 33.3764 8.24604 33.3712C8.05912 33.3712 7.99757 33.4212 7.99907 33.612C8.00808 34.4991 8.00282 35.387 8.00282 36.2742C8.00282 36.5418 8.00808 36.5485 8.27157 36.5485C9.70837 36.5485 11.1459 36.5485 12.5827 36.5485C16.3068 36.5485 20.031 36.5485 23.7551 36.5485C23.9983 36.5485 24.0066 36.5395 24.0073 36.2958C24.0073 35.4146 24.0073 34.5334 24.0073 33.6523C24.0073 33.4674 23.9147 33.3749 23.7296 33.3749C21.1555 33.3749 18.5807 33.3749 16.0066 33.3749ZM16.0043 6.3456C17.529 6.3456 19.0528 6.34337 20.5775 6.34859C20.7546 6.34859 20.8139 6.30013 20.8132 6.11748C20.8057 4.92618 20.8102 3.73489 20.8102 2.54359C20.8102 1.89203 20.5017 1.5834 19.8486 1.5834C18.2053 1.5834 16.5621 1.58265 14.9188 1.5834C13.9692 1.5834 13.0196 1.57892 12.07 1.5916C11.5108 1.59905 11.2135 1.91961 11.2135 2.4765C11.2127 3.68047 11.2135 4.88369 11.2135 6.08766C11.2135 6.25913 11.2988 6.34511 11.4695 6.3456C12.9813 6.3456 14.4932 6.3456 16.0051 6.3456H16.0043Z" fill="black"/>
<path d="M16.033 7.94618C18.9329 7.94618 21.8328 7.94693 24.7327 7.94618C26.2813 7.94618 27.622 8.46728 28.7263 9.54527C29.8253 10.618 30.398 11.9353 30.4033 13.4643C30.4176 17.7285 30.4146 21.9928 30.4056 26.2562C30.4003 28.7797 28.6505 30.9946 26.1837 31.6007C25.7273 31.7125 25.2461 31.7744 24.7762 31.7751C18.9141 31.7863 13.0521 31.7833 7.19001 31.7826C4.70826 31.7826 2.48925 30.0978 1.8204 27.7331C1.60871 26.9846 1.60871 26.2257 1.60946 25.4623C1.61096 21.5022 1.61096 17.5422 1.61246 13.5821C1.61321 11.2077 2.97269 9.20681 5.18945 8.32191C5.87707 8.04683 6.59623 7.94469 7.3349 7.94544C10.2348 7.94842 13.1347 7.94618 16.0345 7.94693L16.033 7.94618ZM15.6877 27.0092C17.1005 27.0107 18.159 26.7975 19.1709 26.3666C20.0995 25.9707 20.9222 25.4161 21.6399 24.7093C21.8808 24.4723 21.9506 24.1838 21.8485 23.8707C21.7525 23.5769 21.531 23.3988 21.2217 23.3458C20.9004 23.2907 20.6602 23.4398 20.438 23.653C18.4675 25.5473 15.446 25.9692 13.0236 24.6944C12.456 24.3962 11.9516 24.016 11.4869 23.5762C11.0673 23.1788 10.439 23.2884 10.1957 23.7879C10.0396 24.11 10.1169 24.4626 10.4157 24.7496C11.9733 26.2413 13.8425 26.9756 15.687 27.0092H15.6877ZM12.8006 17.4781C12.7991 16.5969 12.086 15.8834 11.2084 15.8864C10.3339 15.8894 9.61922 16.5954 9.61396 17.4602C9.60871 18.348 10.3249 19.0704 11.2092 19.0704C12.0875 19.0704 12.8014 18.3555 12.8006 17.4781ZM22.3988 17.4781C22.3995 16.5999 21.6819 15.8827 20.8059 15.8872C19.9246 15.8916 19.2077 16.6073 19.2107 17.4803C19.2137 18.3577 19.9321 19.0727 20.8081 19.0712C21.6887 19.0689 22.398 18.3592 22.3988 17.4781Z" fill="#FED700"/>
<path d="M16.0068 33.375C18.5809 33.375 21.1557 33.375 23.7298 33.375C23.9145 33.375 24.0071 33.4674 24.0076 33.6523C24.0076 34.5334 24.0076 35.4146 24.0076 36.2958C24.0076 36.5396 23.9986 36.5485 23.7554 36.5485C20.0312 36.5485 16.3071 36.5485 12.583 36.5485C11.1462 36.5485 9.70863 36.5485 8.27182 36.5485C8.00833 36.5485 8.00308 36.5418 8.00308 36.2742C8.00308 35.387 8.00833 34.4992 7.99933 33.612C7.99707 33.4212 8.05938 33.3705 8.2463 33.3712C10.8331 33.3764 13.42 33.375 16.0068 33.375Z" fill="#FED700"/>
<path d="M16.0038 6.3464C14.4919 6.3464 12.98 6.3464 11.4681 6.3464C11.298 6.3464 11.2127 6.26042 11.2122 6.08846C11.2122 4.88449 11.2122 3.68126 11.2122 2.47729C11.2122 1.91966 11.5102 1.59985 12.0687 1.59239C13.0183 1.57972 13.9679 1.58494 14.9175 1.58419C16.5608 1.58344 18.204 1.58419 19.8472 1.58419C20.5003 1.58419 20.8089 1.89282 20.8089 2.54438C20.8089 3.73568 20.8051 4.92698 20.8119 6.11828C20.8126 6.30092 20.7533 6.35012 20.5761 6.34938C19.0515 6.34342 17.5276 6.3464 16.003 6.3464H16.0038Z" fill="#FED700"/>
<path d="M15.6877 27.0092C13.8433 26.9756 11.9741 26.2413 10.4164 24.7496C10.1169 24.4633 10.0396 24.1099 10.1965 23.7879C10.4389 23.2884 11.0673 23.1788 11.4876 23.5762C11.9523 24.0153 12.4568 24.3955 13.0243 24.6944C15.4475 25.9692 18.4682 25.5473 20.4388 23.653C20.661 23.439 20.9012 23.2906 21.2225 23.3458C21.531 23.3987 21.7532 23.5769 21.8493 23.8706C21.9514 24.1837 21.8816 24.4723 21.6406 24.7093C20.9229 25.416 20.1002 25.9707 19.1716 26.3665C18.1597 26.7974 17.1012 27.0107 15.6884 27.0092H15.6877Z" fill="black"/>
<path d="M12.8007 17.4781C12.8022 18.3556 12.0875 19.0705 11.2092 19.0705C10.3249 19.0705 9.60879 18.3481 9.61404 17.4602C9.6193 16.5954 10.3339 15.8895 11.2085 15.8865C12.086 15.8835 12.7999 16.5962 12.8007 17.4781Z" fill="black"/>
<path d="M22.3981 17.4774C22.3974 18.3585 21.688 19.0683 20.8074 19.0705C19.9314 19.0727 19.213 18.3571 19.21 17.4796C19.207 16.6066 19.9231 15.891 20.8052 15.8865C21.6812 15.882 22.3989 16.5992 22.3981 17.4774Z" fill="black"/>
</g>
<defs>
<clipPath id="clip0_416_6162">
<rect width="32" height="38" fill="white"/>
</clipPath>
</defs>
</svg>
