<svg width="24" height="24" viewBox="0 0 24 24" fill="none" xmlns="http://www.w3.org/2000/svg">
<path d="M11.6475 5.34153C9.41329 2.21703 4.76704 2.22003 2.53804 5.34828C1.79005 6.39728 1.42701 7.67228 1.51022 8.95796C1.59344 10.2436 2.11782 11.4612 2.99479 12.405L11.451 21.51C11.5212 21.5855 11.6061 21.6457 11.7005 21.6869C11.795 21.7281 11.8969 21.7494 11.9999 21.7494C12.1029 21.7495 12.2048 21.7283 12.2993 21.6873C12.3938 21.6462 12.4788 21.5861 12.549 21.5108L21 12.4373C21.886 11.4859 22.414 10.2564 22.4939 8.9589C22.5738 7.66138 22.2006 6.37639 21.438 5.32353C19.1805 2.20728 14.526 2.23803 12.3098 5.38428L11.997 5.82903L11.6475 5.34153Z" fill="#DA291C"/>
</svg>
