<svg width="19" height="19" viewBox="0 0 19 19" fill="none" xmlns="http://www.w3.org/2000/svg">
<path d="M2.23664 4.65174C3.90839 2.30611 7.39308 2.30386 9.06877 4.64724L9.33033 5.01286L9.56489 4.6793C11.2271 2.31961 14.7174 2.29655 16.4105 4.63374C16.9826 5.42326 17.2626 6.38693 17.2029 7.36006C17.1432 8.3332 16.7474 9.2554 16.0831 9.96905L9.74489 16.7742C9.69225 16.8307 9.62853 16.8758 9.55768 16.9067C9.48684 16.9375 9.41041 16.9534 9.33314 16.9534C9.25588 16.9534 9.17944 16.9375 9.1086 16.9067C9.03776 16.8758 8.97403 16.8307 8.92139 16.7742L2.57864 9.94487C1.92086 9.23689 1.52759 8.32357 1.46528 7.35919C1.40297 6.39481 1.67543 5.43848 2.23664 4.65174ZM8.15414 5.30143C6.92733 3.5858 4.37639 3.58805 3.15239 5.30536C2.74175 5.88123 2.54244 6.58119 2.58815 7.287C2.63386 7.99281 2.92178 8.66121 3.40327 9.1793L9.33427 15.5642L15.2596 9.20237C15.7465 8.67953 16.0366 8.00381 16.0805 7.29073C16.1243 6.57765 15.919 5.8715 15.4998 5.29299C14.2595 3.58074 11.7024 3.59818 10.4846 5.32674L9.79327 6.30774C9.74154 6.38107 9.67301 6.44096 9.59341 6.48241C9.51381 6.52385 9.42545 6.54565 9.3357 6.54598C9.24596 6.54631 9.15744 6.52517 9.07754 6.48431C8.99763 6.44345 8.92867 6.38406 8.87639 6.31111L8.15414 5.30143Z" fill="black"/>
</svg>
