<svg width="25" height="25" viewBox="0 0 25 25" fill="none" xmlns="http://www.w3.org/2000/svg">
<path d="M2.87119 5.98861C5.10019 2.86111 9.74644 2.85811 11.9807 5.98261L12.3294 6.47011L12.6422 6.02536C14.8584 2.87911 19.5122 2.84836 21.7697 5.96461C22.5324 7.0173 22.9059 8.3022 22.8262 9.59971C22.7466 10.8972 22.2189 12.1268 21.3332 13.0784L12.8822 22.1519C12.812 22.2273 12.727 22.2874 12.6326 22.3285C12.5381 22.3697 12.4362 22.3909 12.3332 22.3909C12.2302 22.3909 12.1283 22.3697 12.0338 22.3285C11.9393 22.2874 11.8544 22.2273 11.7842 22.1519L3.32719 13.0461C2.45014 12.1021 1.92578 10.8844 1.8427 9.59855C1.75962 8.31271 2.12291 7.0376 2.87119 5.98861ZM10.7612 6.85486C9.12544 4.56736 5.72419 4.57036 4.09219 6.86011C3.54466 7.62794 3.27892 8.56121 3.33987 9.50229C3.40081 10.4434 3.7847 11.3346 4.42669 12.0254L12.3347 20.5386L20.2352 12.0561C20.8843 11.359 21.2712 10.458 21.3296 9.50727C21.388 8.5565 21.1144 7.61496 20.5554 6.84361C18.9017 4.56061 15.4922 4.58386 13.8684 6.88861L12.9467 8.19661C12.8777 8.29439 12.7863 8.37424 12.6802 8.42951C12.5741 8.48477 12.4563 8.51383 12.3366 8.51427C12.2169 8.51471 12.0989 8.48652 11.9924 8.43204C11.8858 8.37756 11.7939 8.29838 11.7242 8.20111L10.7612 6.85486Z" fill="black"/>
</svg>
