<svg width="18" height="18" viewBox="0 0 18 18" fill="none" xmlns="http://www.w3.org/2000/svg">
<path d="M2.9047 12.765L2.0017 7.38C1.8652 6.5655 1.79695 6.159 2.01595 5.892C2.2342 5.625 2.6362 5.625 3.43945 5.625H14.5605C15.3637 5.625 15.7657 5.625 15.984 5.892C16.203 6.159 16.1339 6.5655 15.9982 7.38L15.0952 12.765C14.796 14.55 14.6467 15.4418 14.0355 15.9713C13.425 16.5 12.5445 16.5 10.7835 16.5H7.21645C5.45545 16.5 4.57495 16.5 3.96445 15.9705C3.3532 15.4418 3.20395 14.5492 2.9047 12.7642M13.125 5.625C13.125 4.53098 12.6904 3.48177 11.9168 2.70818C11.1432 1.9346 10.094 1.5 8.99995 1.5C7.90593 1.5 6.85672 1.9346 6.08314 2.70818C5.30955 3.48177 4.87495 4.53098 4.87495 5.625" stroke="black" stroke-width="1.5" stroke-linecap="round" stroke-linejoin="round"/>
</svg>
