<svg width="96" height="97" viewBox="0 0 96 97" fill="none" xmlns="http://www.w3.org/2000/svg">
<g clip-path="url(#clip0_416_6142)">
<path d="M0.652344 1.60864V96.3265H95.3707L95.3702 1.60864H0.652344Z" fill="white"/>
<path fill-rule="evenodd" clip-rule="evenodd" d="M0.652344 96.3265V1.60864H95.3697L95.3702 96.3265H0.652344ZM87.1435 50.0636C87.9729 47.607 88.9121 43.9302 89.0667 40.9793C89.1846 38.7532 88.8849 35.6353 86.7851 33.4198C85.1099 31.6497 82.5505 30.7564 79.1777 30.7564C74.9169 30.7564 71.4838 32.2604 68.9718 35.2348L68.3089 36.0166L67.8683 35.0918C67.5089 34.3382 67.2518 34.0294 66.8603 33.5878C65.1435 31.6454 62.2646 30.6609 58.3035 30.6614C54.6747 30.6614 51.3969 31.7489 49.0726 33.7238L48.4843 34.2236L48.079 33.5638C46.9814 31.7798 44.2454 30.6252 41.111 30.6252C36.6011 30.6262 32.0507 31.2385 29.3057 35.6636L28.1681 37.4897L28.079 35.3388C28.0097 33.6748 27.8577 32.9836 27.0838 32.1644C26.2326 31.2614 24.8001 30.8225 22.7051 30.8241C19.6289 30.8241 17.3169 32.1654 15.6353 34.9276C13.047 39.062 6.79101 52.6609 6.92914 59.1244C7.01981 63.319 9.81874 65.8865 14.4187 65.9926C18.2097 66.0844 21.223 65.1116 23.1371 63.1798L23.6257 62.686L24.095 63.1937C25.8155 65.0614 28.431 66.0908 31.4609 66.0908C35.319 66.0908 38.6182 64.8918 40.5131 62.7996L41.0305 62.2294L41.5169 62.8273C43.2907 65.0065 46.0321 66.1489 49.4438 66.135C53.8934 66.1153 58.0491 64.0705 60.8443 60.5286L61.5771 59.6001L61.9862 60.711C63.7089 65.3953 68.3777 66.0934 71.0107 66.095C79.9521 66.095 83.8134 59.9601 87.1435 50.0636Z" fill="#FFED00"/>
<path fill-rule="evenodd" clip-rule="evenodd" d="M0.652344 96.3265V1.60864H95.3697L95.3702 96.3265H0.652344ZM87.7366 56.9974C88.9745 54.446 91.3035 48.0604 91.7339 44.6124L91.7387 44.5745C92.2635 40.3654 92.7601 36.3825 89.9201 32.4246C87.9009 29.6118 84.4603 27.7244 79.2257 27.7238C75.2689 27.7238 71.735 28.7958 68.9094 31.1457C66.4897 28.751 63.0193 27.6641 58.3483 27.6652C54.6934 27.6652 51.6257 28.5009 48.9542 30.1046C47.015 28.5638 44.7387 27.6012 41.1121 27.6012C37.8246 27.6006 33.2091 27.7718 29.727 30.7281C28.9222 29.086 27.2859 27.7964 22.7723 27.7964C18.6145 27.7964 15.2225 29.7633 12.9979 33.415C10.0278 38.159 3.72328 51.8588 3.88434 59.3425C4.00434 64.9761 8.22888 68.8572 14.3483 69.0028C18.0257 69.0886 21.1574 68.3014 23.5473 66.7153C25.7083 68.2726 28.4699 69.1137 31.5387 69.1137C35.2113 69.1142 38.5243 68.15 40.9809 66.4188C43.2065 68.183 46.1265 69.1366 49.4299 69.1366C53.7158 69.1382 57.6982 67.6582 60.9153 64.8428C63.1094 67.6406 66.8683 69.095 71.4331 69.0956C79.9787 69.0961 84.4177 63.8401 87.7366 56.9974Z" fill="#E3000B"/>
<path fill-rule="evenodd" clip-rule="evenodd" d="M0 96.9666V0.966553H96L95.9984 96.965L0 96.9666ZM94.6773 95.6444L94.6784 2.28815H1.32053L1.32267 95.6439L94.6773 95.6444Z" fill="black"/>
<path fill-rule="evenodd" clip-rule="evenodd" d="M89.3946 29.9271C89.394 29.625 89.4531 29.3259 89.5683 29.0467C89.6836 28.7675 89.8528 28.5138 90.0663 28.3001C90.2798 28.0864 90.5333 27.9169 90.8124 27.8014C91.0915 27.6859 91.3907 27.6266 91.6927 27.6268C91.995 27.6263 92.2944 27.6854 92.5738 27.8008C92.8532 27.9162 93.1071 28.0856 93.3209 28.2993C93.5347 28.5129 93.7042 28.7667 93.8197 29.0461C93.9352 29.3254 93.9945 29.6248 93.9941 29.9271C93.9946 30.2294 93.9355 30.5288 93.82 30.8082C93.7045 31.0876 93.535 31.3414 93.3212 31.5551C93.1073 31.7688 92.8534 31.9381 92.5739 32.0534C92.2945 32.1687 91.995 32.2276 91.6927 32.2268C91.3907 32.2273 91.0915 32.1682 90.8123 32.0528C90.5332 31.9373 90.2796 31.7679 90.066 31.5543C89.8525 31.3406 89.6833 31.0869 89.5681 30.8076C89.4528 30.5284 89.3939 30.2292 89.3946 29.9271ZM91.6938 28.0834C92.7167 28.0839 93.5482 28.9074 93.5455 29.9303C93.5482 30.9532 92.7135 31.7794 91.6938 31.7794C91.4514 31.779 91.2115 31.7309 90.9877 31.6378C90.764 31.5446 90.5608 31.4083 90.3897 31.2366C90.2187 31.0648 90.0832 30.8611 89.9909 30.6369C89.8987 30.4128 89.8516 30.1727 89.8522 29.9303C89.8511 29.6879 89.898 29.4477 89.9901 29.2235C90.0822 28.9993 90.2178 28.7955 90.3889 28.6239C90.5601 28.4522 90.7634 28.3161 90.9874 28.2233C91.2113 28.1306 91.4514 28.083 91.6938 28.0834ZM92.5893 30.6487L92.8639 31.1287L92.2682 31.1324L92.0778 30.7431C91.9929 30.5726 91.8835 30.4156 91.753 30.277C91.6591 30.1794 91.5733 30.1548 91.3615 30.1548L91.2741 30.1554L91.273 31.1314H90.7818V28.749H91.9685C92.4799 28.749 92.7199 29.0343 92.7199 29.4119C92.721 29.7719 92.4778 30.0306 92.0757 30.0786L92.0767 30.0919C92.281 30.1628 92.3487 30.2295 92.5893 30.6487ZM91.2725 29.1191V29.7735H91.7701C92.1029 29.7735 92.2127 29.6114 92.2079 29.4428C92.2079 29.2327 92.041 29.1175 91.7167 29.1175L91.2725 29.1191ZM68.4618 34.8066C70.7807 32.0599 74.2122 30.0924 79.1743 30.0924C87.7637 30.0924 90.0106 35.7084 89.729 41.0151C89.5621 44.2044 88.5386 48.0039 87.7738 50.2764C84.3765 60.373 80.2965 66.7575 71.0111 66.7564C66.7738 66.7575 62.8959 65.1042 61.3679 60.9388C58.577 64.4706 54.3114 66.7756 49.4479 66.7996C45.7306 66.8178 42.8399 65.5042 41.0026 63.2476C38.8213 65.6551 35.1301 66.7575 31.4613 66.7586C28.1653 66.7564 25.4133 65.6082 23.6069 63.6466C21.5941 65.6764 18.4314 66.7538 14.4031 66.6594C9.24313 66.5356 6.36046 63.4396 6.26553 59.142C6.12366 52.4892 12.4597 38.7548 15.0714 34.5847C16.8741 31.6263 19.3781 30.174 22.7034 30.1724C24.529 30.174 26.4037 30.4914 27.5626 31.7191C28.5157 32.7271 28.6687 33.6231 28.7391 35.3191C31.6618 30.6098 36.5877 29.9698 41.1071 29.9708C44.5653 29.9708 47.4357 31.2652 48.6399 33.222C50.9578 31.2519 54.2959 30.0018 58.3002 30.0018C62.3989 30.0023 65.4522 31.0023 67.353 33.1527C67.7722 33.6247 68.0703 33.9852 68.4618 34.8066ZM23.2479 57.9879C23.4005 56.3794 22.1957 54.6423 17.3887 55.4764C17.8661 54.4071 18.5759 52.9415 19.3818 51.2775C21.9642 45.9452 25.5327 38.5767 25.5999 35.694C25.6362 34.2727 25.0634 33.0876 22.7583 33.0887C20.3231 33.0876 18.7957 34.1063 17.5445 36.1618C14.8309 40.4951 9.06819 53.5671 9.18926 59.2172C9.25753 62.4471 11.7615 63.7218 14.5439 63.7868C18.3786 63.8759 22.7957 62.7991 23.2485 57.9874L23.2479 57.9879ZM33.0346 51.0386C32.7146 51.8994 32.113 53.702 31.6271 55.6098C33.2047 55.2162 34.3861 54.9436 36.4111 54.9906C38.7199 55.0471 40.1973 56.0028 40.1962 57.9132C40.1962 62.5394 35.0799 63.8983 31.5349 63.8994C27.6383 63.8994 24.2154 61.6834 24.2154 57.4226C24.2154 52.4274 26.9226 44.853 29.4634 39.8103C32.5823 33.6151 35.7711 32.7922 41.2607 32.7922C43.6746 32.7922 46.4533 33.8226 46.4533 36.101C46.4533 39.2594 43.7823 40.4636 41.129 40.6162C39.9946 40.6812 38.2522 40.7436 37.2101 40.669C37.2101 40.669 36.3242 42.0156 35.3882 44.4103C40.2991 43.7191 42.3834 44.8343 41.5546 47.6743C40.4325 51.5138 37.1055 51.7671 33.0341 51.038L33.0346 51.0386ZM54.3487 40.8444C54.9967 39.9362 55.8634 39.0951 57.193 39.0951C58.8223 39.0951 58.6645 39.957 58.2778 41.0583C57.1797 44.1943 60.4959 44.277 61.3055 44.213C64.2005 43.9874 65.7957 42.117 66.1882 38.9308C66.7258 34.5927 63.0709 32.9271 58.4378 32.9271C50.7151 32.9271 47.6837 37.6503 44.7919 44.4023C43.4335 47.574 41.7226 52.9943 41.7231 56.446C41.7226 61.294 44.6725 63.9228 49.4266 63.9228C56.369 63.9228 61.2746 58.3868 62.6762 51.4892C63.1077 49.3666 63.6394 45.3831 58.2474 45.605C55.5103 45.718 53.8591 46.3218 52.9887 49.1186C52.0927 51.9996 55.3423 52.078 55.3423 52.078C54.6885 55.0567 52.7743 56.8626 51.0687 56.8642C50.0042 56.8642 49.0357 56.4023 49.3599 54.1495C49.8415 50.8556 52.9263 42.8439 54.3487 40.8444ZM86.3578 44.7948C85.5386 48.8588 83.7039 53.6695 81.7103 57.254C78.457 63.1015 74.5109 63.9207 71.0607 63.877C67.6127 63.8359 63.7253 62.5644 63.6959 57.2428C63.6751 53.4242 65.3215 48.0311 66.7205 44.4999C69.1605 38.0946 71.649 32.8706 79.5258 32.9639C88.7087 33.0711 87.0709 41.2391 86.3578 44.7948ZM74.8389 55.2146C76.1157 53.0519 79.7098 43.2423 79.8079 40.7895C79.8367 40.0748 79.7189 39.2428 78.5669 39.2295C77.777 39.2183 77.0901 39.3714 76.4725 40.3255C75.0847 42.1292 71.0223 53.2242 71.0911 55.4375C71.1162 56.2332 71.5605 56.9282 72.5375 56.9282C73.6629 56.9292 74.2863 56.1548 74.8389 55.2146Z" fill="black"/>
</g>
<defs>
<clipPath id="clip0_416_6142">
<rect width="96" height="96" fill="white" transform="translate(0 0.966553)"/>
</clipPath>
</defs>
</svg>
