<svg width="55" height="56" viewBox="0 0 55 56" fill="none" xmlns="http://www.w3.org/2000/svg">
<g clip-path="url(#clip0_416_6148)">
<path d="M0.373779 1.33447V55.5999H54.6395L54.6392 1.33447H0.373779Z" fill="white"/>
<path fill-rule="evenodd" clip-rule="evenodd" d="M0.373779 55.5999V1.33447H54.6389L54.6392 55.5999H0.373779ZM49.926 29.0951C50.4012 27.6877 50.9392 25.5812 51.0279 23.8906C51.0954 22.6152 50.9237 20.8289 49.7207 19.5596C48.7609 18.5455 47.2946 18.0337 45.3622 18.0337C42.9212 18.0337 40.9543 18.8954 39.5151 20.5994L39.1353 21.0474L38.8829 20.5176C38.677 20.0858 38.5297 19.9089 38.3054 19.6559C37.3219 18.5431 35.6725 17.979 33.4031 17.9793C31.3241 17.9793 29.4462 18.6023 28.1146 19.7338L27.7775 20.0201L27.5453 19.6421C26.9165 18.6201 25.349 17.9585 23.5532 17.9585C20.9694 17.9591 18.3624 18.3099 16.7898 20.8451L16.138 21.8913L16.087 20.659C16.0473 19.7057 15.9602 19.3097 15.5168 18.8404C15.0291 18.3231 14.2084 18.0716 13.0082 18.0725C11.2458 18.0725 9.92117 18.841 8.95775 20.4234C7.47489 22.7921 3.89072 30.5832 3.96986 34.2862C4.02181 36.6894 5.62536 38.1603 8.26078 38.2211C10.4327 38.2737 12.1591 37.7164 13.2557 36.6096L13.5356 36.3267L13.8045 36.6176C14.7902 37.6876 16.2886 38.2774 18.0245 38.2774C20.2349 38.2774 22.1251 37.5905 23.2107 36.3918L23.5071 36.0651L23.7858 36.4077C24.802 37.6562 26.3726 38.3107 28.3272 38.3027C30.8765 38.2914 33.2574 37.1199 34.8588 35.0907L35.2786 34.5588L35.513 35.1952C36.4999 37.8789 39.1748 38.2789 40.6833 38.2798C45.8059 38.2798 48.0181 34.765 49.926 29.0951Z" fill="#FFED00"/>
<path fill-rule="evenodd" clip-rule="evenodd" d="M0.373779 55.5999V1.33447H54.6389L54.6392 55.5999H0.373779ZM50.2658 33.0676C50.975 31.6059 52.3094 27.9474 52.5559 25.972L52.5587 25.9503C52.8594 23.5389 53.1438 21.257 51.5168 18.9895C50.3599 17.378 48.3888 16.2966 45.3898 16.2963C43.1228 16.2963 41.0982 16.9105 39.4794 18.2568C38.0931 16.8848 36.1048 16.2621 33.4288 16.2627C31.3348 16.2627 29.5773 16.7415 28.0467 17.6603C26.9357 16.7776 25.6316 16.226 23.5538 16.226C21.6704 16.2257 19.0261 16.3238 17.0311 18.0175C16.5701 17.0767 15.6326 16.3379 13.0467 16.3379C10.6646 16.3379 8.72125 17.4648 7.44678 19.5569C5.74514 22.2748 2.13317 30.1236 2.22545 34.4112C2.2942 37.6387 4.7145 39.8623 8.22045 39.9457C10.3273 39.9949 12.1215 39.5439 13.4907 38.6352C14.7288 39.5274 16.3109 40.0092 18.0691 40.0092C20.1732 40.0096 22.0713 39.4571 23.4787 38.4653C24.7538 39.4761 26.4267 40.0224 28.3193 40.0224C30.7747 40.0233 33.0563 39.1754 34.8994 37.5624C36.1565 39.1653 38.31 39.9986 40.9253 39.9989C45.8212 39.9992 48.3643 36.9879 50.2658 33.0676Z" fill="#E3000B"/>
<path fill-rule="evenodd" clip-rule="evenodd" d="M0 55.9666V0.966553H55L54.9991 55.9656L0 55.9666ZM54.2422 55.2091L54.2428 1.72372H0.756556L0.757778 55.2088L54.2422 55.2091Z" fill="black"/>
<path fill-rule="evenodd" clip-rule="evenodd" d="M51.2158 17.5586C51.2154 17.3855 51.2493 17.2141 51.3153 17.0542C51.3813 16.8942 51.4783 16.7489 51.6006 16.6264C51.7229 16.504 51.8682 16.4069 52.0281 16.3407C52.188 16.2746 52.3593 16.2406 52.5324 16.2407C52.7056 16.2404 52.8771 16.2743 53.0372 16.3404C53.1973 16.4065 53.3427 16.5035 53.4652 16.626C53.5877 16.7484 53.6848 16.8938 53.751 17.0538C53.8172 17.2139 53.8511 17.3854 53.8509 17.5586C53.8512 17.7318 53.8173 17.9033 53.7511 18.0634C53.685 18.2234 53.5879 18.3689 53.4654 18.4913C53.3428 18.6137 53.1974 18.7107 53.0373 18.7768C52.8772 18.8428 52.7056 18.8766 52.5324 18.8761C52.3593 18.8764 52.1879 18.8425 52.028 18.7764C51.8681 18.7103 51.7228 18.6132 51.6004 18.4908C51.4781 18.3684 51.3811 18.223 51.3151 18.0631C51.2491 17.9031 51.2153 17.7316 51.2158 17.5586ZM52.533 16.5023C53.1191 16.5026 53.5954 16.9744 53.5939 17.5604C53.5954 18.1465 53.1172 18.6198 52.533 18.6198C52.3941 18.6196 52.2567 18.592 52.1285 18.5386C52.0003 18.4853 51.8839 18.4072 51.7859 18.3088C51.6879 18.2104 51.6102 18.0937 51.5574 17.9653C51.5046 17.8368 51.4776 17.6993 51.4779 17.5604C51.4773 17.4216 51.5042 17.2839 51.5569 17.1555C51.6097 17.027 51.6874 16.9103 51.7854 16.8119C51.8835 16.7136 52 16.6356 52.1283 16.5825C52.2566 16.5293 52.3941 16.5021 52.533 16.5023ZM53.046 17.972L53.2034 18.247L52.8621 18.2491L52.753 18.0261C52.7044 17.9284 52.6417 17.8385 52.5669 17.759C52.5131 17.7031 52.4639 17.6891 52.3426 17.6891L52.2925 17.6894L52.2919 18.2485H52.0105V16.8836H52.6904C52.9834 16.8836 53.1209 17.0471 53.1209 17.2634C53.1215 17.4697 52.9822 17.6179 52.7518 17.6454L52.7524 17.653C52.8694 17.6936 52.9082 17.7318 53.046 17.972ZM52.2916 17.0957V17.4706H52.5767C52.7674 17.4706 52.8303 17.3777 52.8276 17.2811C52.8276 17.1608 52.7319 17.0948 52.5461 17.0948L52.2916 17.0957ZM39.223 20.3541C40.5516 18.7805 42.5175 17.6533 45.3604 17.6533C50.2814 17.6533 51.5687 20.8708 51.4073 23.9111C51.3117 25.7383 50.7253 27.9151 50.2872 29.2171C48.3408 35.0015 46.0033 38.6593 40.6836 38.6587C38.2559 38.6593 36.0342 37.7121 35.1588 35.3257C33.5598 37.3491 31.116 38.6697 28.3296 38.6835C26.1999 38.6939 24.5438 37.9413 23.4912 36.6485C22.2414 38.0278 20.1267 38.6593 18.0248 38.6599C16.1364 38.6587 14.5598 38.0009 13.5249 36.877C12.3717 38.04 10.5597 38.6572 8.25189 38.6031C5.29564 38.5322 3.64411 36.7585 3.58972 34.2963C3.50844 30.4848 7.13844 22.6161 8.63475 20.227C9.66753 18.5321 11.1021 17.7001 13.0072 17.6991C14.0532 17.7001 15.1272 17.8819 15.7912 18.5853C16.3372 19.1628 16.4249 19.6761 16.4652 20.6478C18.1397 17.9497 20.9618 17.583 23.5511 17.5836C25.5323 17.5836 27.1768 18.3252 27.8667 19.4463C29.1947 18.3176 31.1071 17.6014 33.4012 17.6014C35.7494 17.6017 37.4987 18.1746 38.5877 19.4066C38.8279 19.677 38.9987 19.8836 39.223 20.3541ZM13.3192 33.6351C13.4066 32.7135 12.7164 31.7183 9.96239 32.1962C10.2359 31.5836 10.6426 30.7439 11.1042 29.7906C12.5837 26.7356 14.6282 22.5141 14.6667 20.8626C14.6875 20.0483 14.3593 19.3693 13.0387 19.3699C11.6436 19.3693 10.7684 19.9529 10.0516 21.1305C8.49694 23.6132 5.19542 31.1023 5.26478 34.3394C5.30389 36.1898 6.73847 36.9201 8.33256 36.9574C10.5295 37.0084 13.0601 36.3915 13.3195 33.6348L13.3192 33.6351ZM18.9262 29.6537C18.7428 30.1469 18.3982 31.1796 18.1198 32.2726C19.0236 32.0471 19.7004 31.891 20.8606 31.9179C22.1834 31.9503 23.0298 32.4978 23.0292 33.5923C23.0292 36.2427 20.098 37.0213 18.0669 37.0219C15.8346 37.0219 13.8735 35.7523 13.8735 33.3112C13.8735 30.4494 15.4245 26.1099 16.8802 23.2208C18.6671 19.6715 20.494 19.2 23.6391 19.2C25.022 19.2 26.6139 19.7904 26.6139 21.0957C26.6139 22.9052 25.0837 23.5951 23.5636 23.6825C22.9137 23.7198 21.9154 23.7556 21.3184 23.7128C21.3184 23.7128 20.8108 24.4843 20.2746 25.8563C23.0881 25.4603 24.2822 26.0992 23.8074 27.7263C23.1645 29.9259 21.2585 30.0711 18.9259 29.6534L18.9262 29.6537ZM31.1374 23.8133C31.5086 23.2929 32.0052 22.8111 32.7669 22.8111C33.7004 22.8111 33.6099 23.3049 33.3884 23.9358C32.7593 25.7325 34.6592 25.7799 35.1231 25.7432C36.7816 25.6139 37.6955 24.5424 37.9204 22.717C38.2284 20.2316 36.1344 19.2773 33.4801 19.2773C29.0556 19.2773 27.3189 21.9833 25.6621 25.8517C24.8839 27.6688 23.9037 30.7742 23.904 32.7517C23.9037 35.5292 25.5937 37.0353 28.3174 37.0353C32.2948 37.0353 35.1053 33.8636 35.9083 29.9119C36.1555 28.6958 36.4602 26.4136 33.371 26.5407C31.8029 26.6055 30.8569 26.9514 30.3582 28.5537C29.8449 30.2043 31.7066 30.2492 31.7066 30.2492C31.332 31.9558 30.2354 32.9904 29.2582 32.9913C28.6483 32.9913 28.0934 32.7267 28.2792 31.436C28.5551 29.5489 30.3225 24.9588 31.1374 23.8133ZM49.4759 26.0766C49.0066 28.4049 47.9555 31.161 46.8133 33.2146C44.9494 36.5648 42.6886 37.0341 40.712 37.009C38.7366 36.9855 36.5094 36.2571 36.4926 33.2082C36.4806 31.0204 37.4239 27.9307 38.2254 25.9076C39.6233 22.2379 41.049 19.2449 45.5617 19.2984C50.8228 19.3598 49.8844 24.0394 49.4759 26.0766ZM42.8765 32.0462C43.608 30.8072 45.6672 25.1871 45.7234 23.7818C45.7399 23.3724 45.6724 22.8957 45.0124 22.8881C44.5598 22.8817 44.1663 22.9694 43.8124 23.516C43.0174 24.5494 40.69 30.9059 40.7294 32.1739C40.7438 32.6298 40.9983 33.0279 41.5581 33.0279C42.2028 33.0286 42.56 32.5849 42.8765 32.0462Z" fill="black"/>
</g>
<defs>
<clipPath id="clip0_416_6148">
<rect width="55" height="55" fill="white" transform="translate(0 0.966553)"/>
</clipPath>
</defs>
</svg>
