<svg width="48" height="49" viewBox="0 0 48 49" fill="none" xmlns="http://www.w3.org/2000/svg">
<g clip-path="url(#clip0_416_6136)">
<path d="M0.326172 1.2876V48.6465H47.6854L47.6851 1.2876H0.326172Z" fill="white"/>
<path fill-rule="evenodd" clip-rule="evenodd" d="M0.326172 48.6465V1.2876H47.6848L47.6851 48.6465H0.326172ZM43.5718 25.5151C43.9864 24.2868 44.456 22.4484 44.5334 20.9729C44.5923 19.8599 44.4424 18.3009 43.3926 17.1932C42.555 16.3081 41.2752 15.8615 39.5888 15.8615C37.4584 15.8615 35.7419 16.6135 34.4859 18.1007L34.1544 18.4916L33.9342 18.0292C33.7544 17.6524 33.6259 17.498 33.4302 17.2772C32.5718 16.306 31.1323 15.8137 29.1518 15.814C27.3374 15.814 25.6984 16.3577 24.5363 17.3452L24.2422 17.5951L24.0395 17.2652C23.4907 16.3732 22.1227 15.7959 20.5555 15.7959C18.3006 15.7964 16.0254 16.1025 14.6528 18.3151L14.084 19.2281L14.0395 18.1527C14.0048 17.3207 13.9288 16.9751 13.5419 16.5655C13.1163 16.114 12.4 15.8945 11.3526 15.8953C9.81444 15.8953 8.65844 16.566 7.81764 17.9471C6.52351 20.0143 3.39551 26.8137 3.46457 30.0455C3.50991 32.1428 4.90937 33.4265 7.20937 33.4796C9.10484 33.5255 10.6115 33.0391 11.5686 32.0732L11.8128 31.8263L12.0475 32.0801C12.9078 33.014 14.2155 33.5287 15.7304 33.5287C17.6595 33.5287 19.3091 32.9292 20.2566 31.8831L20.5152 31.598L20.7584 31.8969C21.6454 32.9865 23.016 33.5577 24.7219 33.5508C26.9467 33.5409 29.0246 32.5185 30.4222 30.7476L30.7886 30.2833L30.9931 30.8388C31.8544 33.1809 34.1888 33.53 35.5054 33.5308C39.976 33.5308 41.9067 30.4633 43.5718 25.5151Z" fill="#FFED00"/>
<path fill-rule="evenodd" clip-rule="evenodd" d="M0.326172 48.6465V1.2876H47.6848L47.6851 48.6465H0.326172ZM43.8683 28.982C44.4872 27.7063 45.6518 24.5135 45.867 22.7895L45.8694 22.7705C46.1318 20.666 46.38 18.6745 44.96 16.6956C43.9504 15.2892 42.2302 14.3455 39.6128 14.3452C37.6344 14.3452 35.8675 14.8812 34.4547 16.0561C33.2448 14.8588 31.5096 14.3153 29.1742 14.3159C27.3467 14.3159 25.8128 14.7337 24.4771 15.5356C23.5075 14.7652 22.3694 14.2839 20.556 14.2839C18.9123 14.2836 16.6046 14.3692 14.8635 15.8473C14.4611 15.0263 13.643 14.3815 11.3862 14.3815C9.30724 14.3815 7.61124 15.3649 6.49897 17.1908C5.01391 19.5628 1.86164 26.4127 1.94217 30.1545C2.00217 32.9713 4.11444 34.9119 7.17417 34.9847C9.01284 35.0276 10.5787 34.634 11.7736 33.8409C12.8542 34.6196 14.235 35.0401 15.7694 35.0401C17.6056 35.0404 19.2622 34.5583 20.4904 33.6927C21.6032 34.5748 23.0632 35.0516 24.715 35.0516C26.8579 35.0524 28.8491 34.3124 30.4576 32.9047C31.5547 34.3036 33.4342 35.0308 35.7166 35.0311C39.9894 35.0313 42.2088 32.4033 43.8683 28.982Z" fill="#E3000B"/>
<path fill-rule="evenodd" clip-rule="evenodd" d="M0 48.9666V0.966553H48L47.9992 48.9658L0 48.9666ZM47.3387 48.3055L47.3392 1.62735H0.660267L0.661333 48.3052L47.3387 48.3055Z" fill="black"/>
<path fill-rule="evenodd" clip-rule="evenodd" d="M44.6973 15.4468C44.697 15.2957 44.7265 15.1461 44.7842 15.0065C44.8418 14.8669 44.9264 14.7401 45.0332 14.6333C45.1399 14.5264 45.2667 14.4417 45.4062 14.3839C45.5458 14.3262 45.6953 14.2965 45.8464 14.2966C45.9975 14.2964 46.1472 14.3259 46.2869 14.3836C46.4266 14.4413 46.5535 14.526 46.6604 14.6328C46.7673 14.7397 46.8521 14.8666 46.9099 15.0063C46.9676 15.1459 46.9972 15.2956 46.997 15.4468C46.9973 15.5979 46.9677 15.7476 46.91 15.8873C46.8523 16.027 46.7675 16.1539 46.6606 16.2608C46.5537 16.3676 46.4267 16.4523 46.287 16.5099C46.1472 16.5675 45.9975 16.597 45.8464 16.5966C45.6953 16.5969 45.5457 16.5673 45.4062 16.5096C45.2666 16.4519 45.1398 16.3672 45.033 16.2603C44.9263 16.1535 44.8416 16.0266 44.784 15.887C44.7264 15.7474 44.6969 15.5978 44.6973 15.4468ZM45.8469 14.5249C46.3584 14.5252 46.7741 14.9369 46.7728 15.4484C46.7741 15.9598 46.3568 16.3729 45.8469 16.3729C45.7257 16.3727 45.6057 16.3487 45.4939 16.3021C45.382 16.2555 45.2804 16.1874 45.1949 16.1015C45.1093 16.0156 45.0416 15.9137 44.9955 15.8017C44.9494 15.6896 44.9258 15.5696 44.9261 15.4484C44.9256 15.3272 44.949 15.2071 44.9951 15.095C45.0411 14.9829 45.1089 14.881 45.1945 14.7951C45.28 14.7093 45.3817 14.6413 45.4937 14.5949C45.6057 14.5485 45.7257 14.5247 45.8469 14.5249ZM46.2946 15.8076L46.432 16.0476L46.1341 16.0494L46.0389 15.8548C45.9965 15.7695 45.9418 15.691 45.8765 15.6217C45.8296 15.5729 45.7866 15.5606 45.6808 15.5606L45.637 15.5609L45.6365 16.0489H45.3909V14.8577H45.9842C46.24 14.8577 46.36 15.0004 46.36 15.1892C46.3605 15.3692 46.2389 15.4985 46.0378 15.5225L46.0384 15.5292C46.1405 15.5646 46.1744 15.598 46.2946 15.8076ZM45.6362 15.0428V15.37H45.885C46.0514 15.37 46.1064 15.2889 46.104 15.2046C46.104 15.0996 46.0205 15.042 45.8584 15.042L45.6362 15.0428ZM34.2309 17.8865C35.3904 16.5132 37.1061 15.5294 39.5872 15.5294C43.8818 15.5294 45.0053 18.3374 44.8645 20.9908C44.781 22.5854 44.2693 24.4852 43.8869 25.6214C42.1882 30.6697 40.1482 33.862 35.5056 33.8614C33.3869 33.862 31.448 33.0353 30.684 30.9526C29.2885 32.7185 27.1557 33.871 24.724 33.883C22.8653 33.8921 21.42 33.2353 20.5013 32.107C19.4106 33.3108 17.565 33.862 15.7306 33.8625C14.0826 33.8614 12.7066 33.2873 11.8034 32.3065C10.797 33.3214 9.2157 33.8601 7.20156 33.8129C4.62156 33.751 3.18023 32.203 3.13276 30.0542C3.06183 26.7278 6.22983 19.8606 7.5357 17.7756C8.43703 16.2964 9.68903 15.5702 11.3517 15.5694C12.2645 15.5702 13.2018 15.7289 13.7813 16.3428C14.2578 16.8468 14.3344 17.2948 14.3696 18.1428C15.8309 15.7881 18.2938 15.4681 20.5536 15.4686C22.2826 15.4686 23.7178 16.1158 24.32 17.0942C25.4789 16.1092 27.148 15.4841 29.1501 15.4841C31.1994 15.4844 32.7261 15.9844 33.6765 17.0596C33.8861 17.2956 34.0352 17.4758 34.2309 17.8865ZM11.624 29.4772C11.7002 28.6729 11.0978 27.8044 8.69436 28.2214C8.93303 27.6868 9.28796 26.954 9.6909 26.122C10.9821 23.4558 12.7664 19.7716 12.8 18.3302C12.8181 17.6196 12.5317 17.027 11.3792 17.0276C10.1616 17.027 9.39783 17.5364 8.77223 18.5641C7.41543 20.7308 4.5341 27.2668 4.59463 30.0918C4.62876 31.7068 5.88076 32.3441 7.27196 32.3766C9.1893 32.4212 11.3978 31.8828 11.6242 29.4769L11.624 29.4772ZM16.5173 26.0025C16.3573 26.4329 16.0565 27.3342 15.8136 28.2881C16.6024 28.0913 17.193 27.955 18.2056 27.9785C19.36 28.0068 20.0986 28.4846 20.0981 29.4398C20.0981 31.7529 17.54 32.4324 15.7674 32.4329C13.8192 32.4329 12.1077 31.3249 12.1077 29.1945C12.1077 26.6969 13.4613 22.9097 14.7317 20.3884C16.2912 17.2908 17.8856 16.8793 20.6304 16.8793C21.8373 16.8793 23.2266 17.3945 23.2266 18.5337C23.2266 20.1129 21.8912 20.715 20.5645 20.7913C19.9973 20.8238 19.1261 20.855 18.605 20.8177C18.605 20.8177 18.1621 21.491 17.6941 22.6884C20.1496 22.3428 21.1917 22.9004 20.7773 24.3204C20.2162 26.2401 18.5528 26.3668 16.517 26.0022L16.5173 26.0025ZM27.1744 20.9054C27.4984 20.4513 27.9317 20.0308 28.5965 20.0308C29.4112 20.0308 29.3322 20.4617 29.1389 21.0124C28.5898 22.5804 30.248 22.6217 30.6528 22.5897C32.1002 22.4769 32.8978 21.5417 33.0941 19.9486C33.3629 17.7796 31.5354 16.9468 29.2189 16.9468C25.3576 16.9468 23.8418 19.3084 22.396 22.6844C21.7168 24.2702 20.8613 26.9804 20.8616 28.7062C20.8613 31.1302 22.3362 32.4446 24.7133 32.4446C28.1845 32.4446 30.6373 29.6766 31.3381 26.2278C31.5538 25.1665 31.8197 23.1748 29.1237 23.2857C27.7552 23.3422 26.9296 23.6441 26.4944 25.0425C26.0464 26.483 27.6712 26.5222 27.6712 26.5222C27.3442 28.0116 26.3872 28.9145 25.5344 28.9153C25.0021 28.9153 24.5178 28.6844 24.68 27.558C24.9208 25.911 26.4632 21.9052 27.1744 20.9054ZM43.1789 22.8806C42.7693 24.9126 41.852 27.318 40.8552 29.1102C39.2285 32.034 37.2554 32.4436 35.5304 32.4217C33.8064 32.4012 31.8626 31.7654 31.848 29.1046C31.8376 27.1953 32.6608 24.4988 33.3602 22.7332C34.5802 19.5305 35.8245 16.9185 39.7629 16.9652C44.3544 17.0188 43.5354 21.1028 43.1789 22.8806ZM37.4194 28.0905C38.0578 27.0092 39.8549 22.1044 39.904 20.878C39.9184 20.5206 39.8594 20.1046 39.2834 20.098C38.8885 20.0924 38.545 20.1689 38.2362 20.646C37.5424 21.5478 35.5112 27.0953 35.5456 28.202C35.5581 28.5998 35.7802 28.9473 36.2688 28.9473C36.8314 28.9478 37.1432 28.5606 37.4194 28.0905Z" fill="black"/>
</g>
<defs>
<clipPath id="clip0_416_6136">
<rect width="48" height="48" fill="white" transform="translate(0 0.966553)"/>
</clipPath>
</defs>
</svg>
