<svg width="18" height="18" viewBox="0 0 18 18" fill="none" xmlns="http://www.w3.org/2000/svg">
<rect width="18" height="18" fill="white"/>
<path d="M6.1822 5.505L1.3972 6.19875L1.31245 6.216C1.18415 6.25006 1.06719 6.31756 0.973516 6.4116C0.879839 6.50565 0.812799 6.62287 0.779243 6.7513C0.745687 6.87973 0.746817 7.01476 0.782517 7.14261C0.818217 7.27046 0.887209 7.38654 0.982446 7.479L4.44895 10.8533L3.63145 15.6195L3.6217 15.702C3.61384 15.8347 3.6414 15.9671 3.70153 16.0856C3.76167 16.2042 3.85223 16.3046 3.96395 16.3766C4.07566 16.4487 4.20451 16.4897 4.33731 16.4956C4.4701 16.5014 4.60207 16.4719 4.7197 16.41L8.9992 14.16L13.2689 16.41L13.3439 16.4445C13.4677 16.4933 13.6023 16.5082 13.7338 16.4878C13.8652 16.4674 13.9889 16.4124 14.0921 16.3285C14.1954 16.2445 14.2744 16.1346 14.3211 16.01C14.3678 15.8854 14.3805 15.7506 14.3579 15.6195L13.5397 10.8533L17.0077 7.47825L17.0662 7.4145C17.1498 7.31158 17.2046 7.18834 17.225 7.05735C17.2454 6.92636 17.2308 6.79229 17.1825 6.6688C17.1343 6.54532 17.0541 6.43683 16.9503 6.35439C16.8465 6.27195 16.7227 6.21851 16.5914 6.1995L11.8064 5.505L9.66745 1.17C9.60555 1.0444 9.50974 0.938639 9.39084 0.864681C9.27194 0.790723 9.13472 0.751526 8.9947 0.751526C8.85468 0.751526 8.71745 0.790723 8.59856 0.864681C8.47966 0.938639 8.38384 1.0444 8.32195 1.17L6.1822 5.505Z" fill="black"/>
</svg>
